# Blender v2.78 (sub 0) OBJ File: 'Key.blend'
# www.blender.org
mtllib Key.mtl
o Key
v -0.040402 -0.094715 0.361395
v -0.040385 -0.040464 0.364271
v 0.031598 -0.094736 0.361378
v 0.031615 -0.040486 0.364254
v -0.040424 -0.152734 0.340320
v -0.040374 0.009892 0.348504
v 0.031576 -0.152756 0.340303
v 0.031626 0.009871 0.348488
v -0.040452 -0.215795 0.299581
v -0.040368 0.056230 0.313655
v -0.040410 -0.072882 0.299881
v 0.031548 -0.215817 0.299564
v 0.031632 0.056208 0.313638
v -0.040396 -0.025887 0.296436
v 0.031590 -0.072904 0.299864
v 0.031603 -0.025908 0.296419
v -0.040439 -0.144846 0.266192
v -0.040368 0.083820 0.279406
v -0.040391 0.013221 0.271812
v 0.031561 -0.144867 0.266175
v 0.031632 0.083798 0.279389
v 0.031609 0.013200 0.271795
v -0.040487 -0.285169 0.237717
v 0.031512 -0.285190 0.237700
v -0.040371 0.101230 0.242112
v -0.040393 0.038300 0.230210
v 0.031629 0.101208 0.242095
v 0.031607 0.038278 0.230193
v -0.040484 -0.235541 0.188350
v -0.040378 0.108031 0.202960
v 0.031516 -0.235562 0.188333
v 0.031621 0.108010 0.202944
v -0.040404 0.040335 0.178708
v 0.031596 0.040313 0.178692
v -0.040389 0.103798 0.163140
v -0.040540 -0.374684 0.128234
v 0.031611 0.103776 0.163123
v 0.031460 -0.374706 0.128217
v -0.040529 -0.313987 0.098049
v -0.040403 0.089806 0.121787
v -0.040430 0.008136 0.111321
v 0.031471 -0.314009 0.098032
v 0.031597 0.089784 0.121770
v 0.031570 0.008114 0.111304
v -0.040420 0.067332 0.078037
v 0.031580 0.067311 0.078020
v -0.040574 -0.412927 0.029763
v -0.040554 -0.345668 0.030517
v 0.031426 -0.412948 0.029746
v 0.031446 -0.345690 0.030500
v -0.040442 0.032094 0.029144
v -0.040474 -0.069488 0.022062
v -0.040448 0.013917 0.025475
v 0.031558 0.032073 0.029128
v 0.031526 -0.069510 0.022046
v 0.031552 0.013896 0.025458
v -0.040565 -0.343101 -0.020398
v 0.031435 -0.343122 -0.020415
v -0.040588 -0.403544 -0.040581
v -0.040476 -0.039153 -0.027521
v -0.040470 -0.020192 -0.027636
v 0.031412 -0.403565 -0.040598
v 0.031524 -0.039175 -0.027538
v 0.031529 -0.020213 -0.027653
v -0.040568 -0.318802 -0.060846
v -0.040519 -0.159727 -0.056084
v 0.031433 -0.318823 -0.060863
v 0.031481 -0.159749 -0.056100
v -0.040561 -0.278354 -0.085168
v -0.040546 -0.227339 -0.087704
v 0.031439 -0.278375 -0.085185
v -0.040590 -0.361259 -0.103243
v -0.040505 -0.089075 -0.089079
v 0.031454 -0.227361 -0.087721
v 0.031410 -0.361280 -0.103260
v 0.031495 -0.089096 -0.089096
v -0.040584 -0.314679 -0.138265
v -0.040534 -0.151880 -0.129769
v 0.031416 -0.314701 -0.138282
v 0.031466 -0.151901 -0.129786
v -0.040573 -0.264150 -0.153997
v -0.040556 -0.209830 -0.150983
v 0.031427 -0.264172 -0.154014
v 0.031444 -0.209852 -0.151000
v -0.040464 0.144564 -0.211499
v 0.031536 0.144542 -0.211515
v -0.040461 0.194026 -0.261031
v 0.031539 0.194005 -0.261048
v -0.040533 0.014845 -0.341034
v 0.031467 0.014824 -0.341051
v -0.040530 0.064308 -0.390567
v -0.040453 0.317683 -0.384863
v 0.031470 0.064286 -0.390583
v -0.040422 0.420215 -0.381400
v 0.031547 0.317661 -0.384879
v 0.031578 0.420194 -0.381416
v -0.040537 0.160347 -0.541975
v 0.031463 0.160325 -0.541992
v -0.040534 0.209809 -0.591508
v 0.031466 0.209788 -0.591525
vt 0.8443 0.3429
vt 0.8444 0.1025
vt 0.3746 0.1023
vt 0.3745 0.3427
vt 1.1670 0.3430
vt 1.1671 0.1026
vt 0.7185 -0.7657
vt 0.4781 -0.7657
vt 0.4781 -0.9539
vt 0.7185 -0.9539
vt 0.7185 -0.5179
vt 0.4781 -0.5180
vt 0.7185 -0.3253
vt 0.4781 -0.3253
vt 0.7185 -0.1689
vt 0.4781 -0.1689
vt 1.1143 0.3429
vt 1.1144 0.1025
vt 1.2497 0.1026
vt 1.2496 0.3430
vt 0.9274 0.3428
vt 0.9275 0.1025
vt 0.6831 0.3427
vt 0.6832 0.1024
vt 0.3754 0.3426
vt 0.3755 0.1023
vt 0.1179 0.3425
vt 0.1180 0.1022
vt -0.0807 0.3425
vt -0.0806 0.1021
vt -0.2370 0.3424
vt -0.2369 0.1020
vt -0.3677 0.3424
vt -0.3676 0.1020
vt -0.4717 0.3423
vt -0.4716 0.1019
vt 0.7178 -0.2414
vt 0.4774 -0.2414
vt 0.4774 -0.1329
vt 0.7178 -0.1329
vt 0.7178 -0.3706
vt 0.4774 -0.3706
vt 0.7178 -0.5165
vt 0.4774 -0.5166
vt 0.7178 -0.7082
vt 0.4774 -0.7082
vt 0.7178 -0.8643
vt 0.4775 -0.8643
vt -0.3671 0.3424
vt -0.3670 0.1020
vt -0.5018 0.1020
vt -0.5019 0.3423
vt -0.1803 0.3425
vt -0.1802 0.1021
vt 0.0647 0.3426
vt 0.0648 0.1022
vt 1.0066 0.1025
vt 1.0065 0.3429
vt 0.7723 0.3428
vt 0.7724 0.1024
vt 0.4781 -0.6707
vt 0.7184 -0.6706
vt 0.7184 -0.7969
vt 0.4780 -0.7969
vt 0.4781 -0.5178
vt 0.7184 -0.5178
vt 0.4780 -0.3649
vt 0.7184 -0.3649
vt 0.4780 -0.2385
vt 0.7184 -0.2385
vt 0.7721 0.1024
vt 0.7720 0.3428
vt 1.0062 0.3429
vt 1.0063 0.1025
vt 0.3746 0.1023
vt 0.3745 0.3426
vt -0.0194 0.1021
vt -0.0195 0.3425
vt -0.2545 0.1020
vt -0.2546 0.3424
vt 0.4775 -0.3619
vt 0.7179 -0.3619
vt 0.7179 -0.2355
vt 0.4775 -0.2355
vt 0.4775 -0.5193
vt 0.7179 -0.5193
vt 0.4775 -0.6698
vt 0.7179 -0.6698
vt 0.4775 -0.7888
vt 0.7179 -0.7888
vt -0.0239 0.1021
vt -0.0240 0.3425
vt -0.2734 0.3424
vt -0.2733 0.1020
vt 0.3740 0.1023
vt 0.3739 0.3427
vt 0.0648 -1.1255
vt 0.3746 -1.1432
vt 0.8444 -1.0961
vt 0.8443 -1.0961
vt 0.3745 -1.1432
vt 0.0647 -1.1255
vt 1.1671 -0.9539
vt 1.1670 -0.9539
vt 1.3111 -0.7657
vt 1.3110 -0.7657
vt 1.3592 -0.5180
vt 1.3319 -0.3253
vt 1.3318 -0.3253
vt 1.3591 -0.5179
vt 1.2497 -0.1689
vt 1.2496 -0.1689
vt 1.1144 -0.0478
vt 1.1143 -0.0478
vt 0.9275 0.0390
vt 0.6832 0.0912
vt 0.6831 0.0912
vt 0.9274 0.0390
vt 0.3755 0.1087
vt 0.3754 0.1087
vt 0.1180 0.0981
vt -0.0806 0.0659
vt -0.0807 0.0659
vt 0.1179 0.0981
vt -0.2369 0.0157
vt -0.2370 0.0157
vt -0.3676 -0.0489
vt -0.3677 -0.0489
vt -0.4716 -0.1329
vt -0.4717 -0.1329
vt -0.5479 -0.2414
vt -0.5480 -0.2414
vt -0.5949 -0.3706
vt -0.5950 -0.3706
vt -0.6106 -0.5166
vt -0.5835 -0.7082
vt -0.5836 -0.7082
vt -0.6107 -0.5165
vt -0.5018 -0.8643
vt -0.5019 -0.8643
vt -0.3670 -0.9856
vt -0.3671 -0.9856
vt -0.1802 -1.0728
vt -0.1803 -1.0728
vt 0.3746 -0.1250
vt 0.3745 -0.1250
vt 0.7721 -0.1535
vt 0.7720 -0.1535
vt 1.0063 -0.2385
vt 1.0062 -0.2385
vt 1.1208 -0.3649
vt 1.1207 -0.3649
vt 1.1588 -0.5178
vt 1.1588 -0.5178
vt -0.0194 -0.1524
vt -0.0195 -0.1524
vt 1.1207 -0.6707
vt 1.1206 -0.6706
vt 1.0066 -0.7969
vt 1.0065 -0.7969
vt 0.7724 -0.8816
vt 0.7723 -0.8815
vt -0.2545 -0.2355
vt -0.2546 -0.2355
vt 0.3740 -0.9095
vt 0.3739 -0.9095
vt -0.0239 -0.8792
vt -0.0240 -0.8792
vt -0.2733 -0.7888
vt -0.2734 -0.7888
vt -0.3713 -0.3619
vt -0.3714 -0.3619
vt -0.3761 -0.6698
vt -0.3762 -0.6698
vt -0.4103 -0.5193
vt -0.4104 -0.5193
vt 0.7181 0.9317
vt 0.4777 0.9317
vt 0.4778 0.0637
vt 0.7181 0.0637
vt 0.7180 0.0639
vt 0.4777 0.0639
vt 0.4776 1.9835
vt 0.7180 1.9836
vt 0.1710 1.9835
vt 0.1696 0.0639
vt 0.4200 0.0637
vt 0.4199 0.0637
vt 0.1695 0.0639
vt 0.1709 1.9836
vt 0.4206 0.9317
vt 0.4205 0.9317
vt 0.4208 1.1654
vt 0.4207 1.1654
vt 0.4212 1.7497
vt 0.7181 1.7497
vt 0.4777 1.7497
vt 0.4777 1.1654
vt 0.7181 1.1654
vt 0.4211 1.7497
vt 0.1709 0.3425
vt 0.1710 0.1021
vt 1.1637 0.1025
vt 1.1636 0.3428
vt 1.0325 0.3428
vt 1.0326 0.1025
vt 0.4206 0.1022
vt 0.4205 0.3426
vt 1.0325 0.9313
vt 1.0327 1.1650
vt 0.7183 1.1650
vt 0.4779 1.1650
vt 0.4780 0.9313
vt 0.7183 0.9313
vt 0.4207 0.3426
vt 0.4208 0.1022
vt 1.0328 0.1025
vt 1.0327 0.3428
vt 1.0328 1.1650
vt 1.0326 0.9313
vt 1.1634 1.7492
vt 1.1636 1.9829
vt 1.1634 0.3429
vt 1.1635 0.1025
vt 0.4212 0.1022
vt 0.4211 0.3426
vt 1.1637 1.9828
vt 1.1635 1.7491
vt 0.7183 1.7492
vt 0.7183 1.9829
vt 0.4780 1.9828
vt 0.4780 1.7491
vn -0.0001 -0.8639 0.5037
vn -0.0001 -0.7221 0.6918
vn -0.0003 -0.9929 0.1186
vn -0.0004 -0.9348 -0.3552
vn -0.0004 -0.7249 -0.6888
vn -0.0003 -0.4558 -0.8901
vn -0.0003 -0.1229 -0.9924
vn -0.0002 0.2018 -0.9794
vn -0.0001 0.4465 -0.8948
vn -0.0000 0.6065 -0.7951
vn 0.0000 0.7015 -0.7127
vn 0.0001 0.7748 -0.6322
vn 0.0001 0.8528 -0.5223
vn 0.0002 0.9209 -0.3898
vn 0.0002 0.9767 -0.2144
vn 0.0003 0.9995 0.0330
vn 0.0004 0.9540 0.2997
vn 0.0004 0.8486 0.5290
vn 0.0004 0.6952 0.7188
vn 0.0003 0.4566 0.8897
vn 0.0003 0.1249 0.9922
vn 0.0002 -0.1993 0.9799
vn 0.0001 -0.4448 0.8956
vn 0.0000 -0.6059 0.7955
vn 0.0002 0.9812 -0.1929
vn 0.0001 0.8381 -0.5455
vn 0.0004 0.9566 0.2914
vn 0.0004 0.7073 0.7070
vn 0.0003 0.2912 0.9566
vn 0.0002 -0.1927 0.9813
vn 0.0000 -0.5443 0.8389
vn -0.0000 -0.7064 0.7078
vn -0.0001 -0.8360 0.5487
vn -0.0002 -0.9794 0.2017
vn -0.0004 -0.9580 -0.2869
vn -0.0004 -0.7139 -0.7002
vn -0.0003 -0.3122 -0.9500
vn -0.0002 0.1813 -0.9834
vn -0.0000 0.5426 -0.8400
vn 0.0000 0.7050 -0.7092
vn 1.0000 -0.0003 -0.0002
vn -1.0000 0.0003 0.0002
vn 1.0000 -0.0003 -0.0003
vn -0.0004 -0.7076 -0.7066
vn 0.0004 0.7076 0.7066
vn 0.0000 0.7066 -0.7076
vn -0.0000 -0.7066 0.7076
vn -0.0001 -0.7066 0.7076
usemtl 0
s 1
f 36/1/1 38/2/1 24/3/2
f 23/4/2 36/1/1 24/3/2
f 47/5/3 49/6/3 38/2/1
f 36/1/1 47/5/3 38/2/1
f 59/7/4 62/8/4 49/9/3
f 47/10/3 59/7/4 49/9/3
f 72/11/5 75/12/5 62/8/4
f 59/7/4 72/11/5 62/8/4
f 77/13/6 79/14/6 75/12/5
f 72/11/5 77/13/6 75/12/5
f 81/15/7 83/16/7 79/14/6
f 77/13/6 81/15/7 79/14/6
f 82/17/8 84/18/8 83/19/7
f 81/20/7 82/17/8 83/19/7
f 78/21/9 80/22/9 84/18/8
f 82/17/8 78/21/9 84/18/8
f 73/23/10 76/24/10 80/22/9
f 78/21/9 73/23/10 80/22/9
f 61/25/11 64/26/11 76/24/10
f 73/23/10 61/25/11 76/24/10
f 51/27/12 54/28/12 64/26/11
f 61/25/11 51/27/12 64/26/11
f 45/29/13 46/30/13 54/28/12
f 51/27/12 45/29/13 54/28/12
f 40/31/14 43/32/14 46/30/13
f 45/29/13 40/31/14 46/30/13
f 35/33/15 37/34/15 43/32/14
f 40/31/14 35/33/15 43/32/14
f 30/35/16 32/36/16 37/34/15
f 35/33/15 30/35/16 37/34/15
f 25/37/17 27/38/17 32/39/16
f 30/40/16 25/37/17 32/39/16
f 18/41/18 21/42/18 27/38/17
f 25/37/17 18/41/18 27/38/17
f 10/43/19 13/44/19 21/42/18
f 18/41/18 10/43/19 21/42/18
f 6/45/20 8/46/20 13/44/19
f 10/43/19 6/45/20 13/44/19
f 2/47/21 4/48/21 8/46/20
f 6/45/20 2/47/21 8/46/20
f 1/49/22 3/50/22 4/51/21
f 2/52/21 1/49/22 4/51/21
f 5/53/23 7/54/23 3/50/22
f 1/49/22 5/53/23 3/50/22
f 9/55/24 12/56/24 7/54/23
f 5/53/23 9/55/24 7/54/23
f 23/4/2 24/3/2 12/56/24
f 9/55/24 23/4/2 12/56/24
f 50/57/25 48/58/25 39/59/26
f 42/60/26 50/57/25 39/59/26
f 58/61/27 57/62/27 48/63/25
f 50/64/25 58/61/27 48/63/25
f 67/65/28 65/66/28 57/62/27
f 58/61/27 67/65/28 57/62/27
f 71/67/29 69/68/29 65/66/28
f 67/65/28 71/67/29 65/66/28
f 74/69/30 70/70/30 69/68/29
f 71/67/29 74/69/30 69/68/29
f 68/71/31 66/72/31 70/73/30
f 74/74/30 68/71/31 70/73/30
f 55/75/32 52/76/32 66/72/31
f 68/71/31 55/75/32 66/72/31
f 44/77/33 41/78/33 52/76/32
f 55/75/32 44/77/33 52/76/32
f 34/79/34 33/80/34 41/78/33
f 44/77/33 34/79/34 41/78/33
f 28/81/35 26/82/35 33/83/34
f 34/84/34 28/81/35 33/83/34
f 22/85/36 19/86/36 26/82/35
f 28/81/35 22/85/36 26/82/35
f 16/87/37 14/88/37 19/86/36
f 22/85/36 16/87/37 19/86/36
f 15/89/38 11/90/38 14/88/37
f 16/87/37 15/89/38 14/88/37
f 20/91/39 17/92/39 11/93/38
f 15/94/38 20/91/39 11/93/38
f 31/95/40 29/96/40 17/92/39
f 20/91/39 31/95/40 17/92/39
f 42/60/26 39/59/26 29/96/40
f 31/95/40 42/60/26 29/96/40
f 12/97/41 24/98/41 38/99/41
f 36/100/42 23/101/42 9/102/42
f 12/97/41 38/99/41 49/103/41
f 47/104/42 36/100/42 9/102/42
f 12/97/41 49/103/41 62/105/41
f 59/106/42 47/104/42 9/102/42
f 62/105/41 75/107/41 79/108/41
f 77/109/42 72/110/42 59/106/42
f 62/105/41 79/108/41 83/111/41
f 81/112/42 77/109/42 59/106/42
f 62/105/41 83/111/41 84/113/41
f 82/114/42 81/112/42 59/106/42
f 84/113/41 80/115/41 76/116/41
f 73/117/42 78/118/42 82/114/42
f 84/113/41 76/116/41 64/119/41
f 61/120/42 73/117/42 82/114/42
f 64/119/41 54/121/43 46/122/41
f 45/123/42 51/124/42 61/120/42
f 64/119/41 46/122/41 43/125/41
f 40/126/42 45/123/42 61/120/42
f 64/119/41 43/125/41 37/127/41
f 35/128/42 40/126/42 61/120/42
f 64/119/41 37/127/41 32/129/41
f 30/130/42 35/128/42 61/120/42
f 64/119/41 32/129/41 27/131/41
f 25/132/42 30/130/42 61/120/42
f 64/119/41 27/131/41 21/133/41
f 18/134/42 25/132/42 61/120/42
f 21/133/41 13/135/43 8/136/41
f 6/137/42 10/138/42 18/134/42
f 21/133/41 8/136/41 4/139/41
f 2/140/42 6/137/42 18/134/42
f 21/133/41 4/139/41 3/141/41
f 1/142/42 2/140/42 18/134/42
f 21/133/41 3/141/41 7/143/41
f 5/144/42 1/142/42 18/134/42
f 84/113/41 64/119/41 55/145/41
f 52/146/42 61/120/42 82/114/42
f 84/113/41 55/145/41 68/147/41
f 66/148/42 52/146/42 82/114/42
f 84/113/41 68/147/41 74/149/41
f 70/150/42 66/148/42 82/114/42
f 84/113/41 74/149/41 71/151/41
f 69/152/42 70/150/42 82/114/42
f 84/113/41 71/151/41 67/153/41
f 65/154/42 69/152/42 82/114/42
f 44/155/41 55/145/41 64/119/41
f 61/120/42 52/146/42 41/156/42
f 62/105/41 84/113/41 67/153/41
f 65/154/42 82/114/42 59/106/42
f 62/105/41 67/153/41 58/157/41
f 57/158/42 65/154/42 59/106/42
f 62/105/41 58/157/41 50/159/41
f 48/160/42 57/158/42 59/106/42
f 62/105/41 50/159/41 42/161/41
f 39/162/42 48/160/42 59/106/42
f 34/163/41 44/155/41 64/119/41
f 61/120/42 41/156/42 33/164/42
f 34/163/41 64/119/41 21/133/41
f 18/134/42 61/120/42 33/164/42
f 12/97/41 62/105/41 42/161/41
f 39/162/42 59/106/42 9/102/42
f 12/97/41 42/161/41 31/165/41
f 29/166/42 39/162/42 9/102/42
f 12/97/41 31/165/41 20/167/41
f 17/168/42 29/166/42 9/102/42
f 12/97/41 20/167/41 15/169/41
f 11/170/42 17/168/42 9/102/42
f 28/171/41 34/163/41 21/133/41
f 18/134/42 33/164/42 26/172/42
f 7/143/41 12/97/41 15/169/41
f 11/170/42 9/102/42 5/144/42
f 7/143/41 15/169/41 16/173/41
f 14/174/42 11/170/42 5/144/42
f 22/175/41 28/171/41 21/133/41
f 18/134/42 26/172/42 19/176/42
f 21/133/41 7/143/41 16/173/41
f 14/174/42 5/144/42 18/134/42
f 16/173/41 22/175/41 21/133/41
f 18/134/42 19/176/42 14/174/42
f 85/177/44 86/178/44 63/179/44
f 60/180/44 85/177/44 63/179/44
f 53/181/45 56/182/45 96/183/45
f 94/184/45 53/181/45 96/183/45
f 96/185/41 56/186/41 63/187/41
f 60/188/42 53/189/42 94/190/42
f 96/185/41 63/187/41 86/191/41
f 85/192/42 60/188/42 94/190/42
f 96/185/41 86/191/41 88/193/41
f 87/194/42 85/192/42 94/190/42
f 95/195/41 96/185/41 88/193/41
f 92/196/44 95/197/44 88/198/44
f 87/199/44 92/196/44 88/198/44
f 92/200/42 87/194/42 94/190/42
f 94/201/46 96/202/46 100/203/46
f 99/204/46 94/201/46 100/203/46
f 89/205/47 90/206/47 86/207/47
f 85/208/47 89/205/47 86/207/47
f 89/209/42 85/192/42 87/194/42
f 87/194/42 91/210/42 89/209/42
f 91/211/44 93/212/44 90/213/44
f 89/214/44 91/211/44 90/213/44
f 87/215/46 88/216/46 93/217/46
f 91/218/46 87/215/46 93/217/46
f 93/219/41 88/193/41 86/191/41
f 86/191/41 90/220/41 93/219/41
f 97/221/42 92/200/42 94/190/42
f 97/221/42 94/190/42 99/222/42
f 97/223/47 98/224/47 95/225/47
f 92/226/48 97/223/47 95/225/47
f 100/227/41 96/185/41 95/195/41
f 100/227/41 95/195/41 98/228/41
f 97/229/44 99/230/44 100/231/44
f 98/232/44 97/229/44 100/231/44
