# Blender v2.78 (sub 0) OBJ File: 'SpikesMirror.blend'
# www.blender.org
mtllib SpikesMirror.mtl
o Cylinder
v 0.129904 0.462182 -0.925000
v 0.129904 0.662182 -0.925000
v 0.866025 0.462182 -0.350000
v 0.866025 0.662182 -0.350000
v 0.736122 0.462182 0.575000
v 0.736122 0.662182 0.575000
v -0.129904 0.462182 0.925000
v -0.129904 0.662182 0.925000
v -0.866025 0.462182 0.350000
v -0.866025 0.662182 0.350000
v -0.866025 0.562182 -0.350000
v -0.736122 0.562182 0.575000
v -0.736122 0.462182 -0.575000
v -0.736122 0.662182 -0.575000
v 0.129904 0.562182 0.925000
v -0.866025 0.437182 0.500000
v -0.866025 0.687182 0.500000
v 0.866025 0.562182 0.350000
v -0.000000 0.437182 1.000000
v -0.000000 0.687182 1.000000
v 0.736122 0.562182 -0.575000
v 0.866025 0.437182 0.500000
v 0.866025 0.687182 0.500000
v -0.129904 0.562182 -0.925000
v 0.866025 0.437182 -0.500000
v 0.866025 0.687182 -0.500000
v 0.000000 0.437182 -1.000000
v 0.000000 0.687182 -1.000000
v -0.866025 0.687182 -0.500000
v -0.866025 0.437182 -0.500000
v 0.282894 0.562182 -2.049705
v 1.916544 0.562182 -0.779859
v 1.633650 0.562182 1.269846
v -0.282894 0.562182 2.049705
v -1.916544 0.562182 0.779859
v -1.633650 0.562182 -1.269846
v 0.779423 0.787182 -0.450000
v -0.000000 0.787182 -0.900000
v 0.779423 0.787182 0.450000
v -0.000000 0.787182 0.900000
v -0.779423 0.787182 0.450000
v -0.779423 0.787182 -0.450000
v 0.000000 0.337182 -0.649399
v 0.562396 0.337182 -0.324700
v 0.562396 0.337182 0.324700
v -0.000000 0.337182 0.649399
v -0.562396 0.337182 0.324699
v -0.562396 0.337182 -0.324700
v -0.000000 0.337182 -0.900000
v 0.779423 0.337182 -0.450000
v 0.779423 0.337182 0.450000
v -0.000000 0.337182 0.900000
v -0.779423 0.337182 0.450000
v -0.779423 0.337182 -0.450000
v -0.000000 -0.019626 0.000000
v 0.129904 -0.462182 -0.925000
v 0.129904 -0.662182 -0.925000
v 0.866025 -0.462182 -0.350000
v 0.866025 -0.662182 -0.350000
v 0.736122 -0.462182 0.575000
v 0.736122 -0.662182 0.575000
v -0.129904 -0.462182 0.925000
v -0.129904 -0.662182 0.925000
v -0.866025 -0.462182 0.350000
v -0.866025 -0.662182 0.350000
v -0.866025 -0.562182 -0.350000
v -0.736122 -0.562182 0.575000
v -0.736122 -0.462182 -0.575000
v -0.736122 -0.662182 -0.575000
v 0.129904 -0.562182 0.925000
v -0.866025 -0.437182 0.500000
v -0.866025 -0.687182 0.500000
v 0.866025 -0.562182 0.350000
v -0.000000 -0.437182 1.000000
v -0.000000 -0.687182 1.000000
v 0.736122 -0.562182 -0.575000
v 0.866025 -0.437182 0.500000
v 0.866025 -0.687182 0.500000
v -0.129904 -0.562182 -0.925000
v 0.866025 -0.437182 -0.500000
v 0.866025 -0.687182 -0.500000
v 0.000000 -0.437182 -1.000000
v 0.000000 -0.687182 -1.000000
v -0.866025 -0.687182 -0.500000
v -0.866025 -0.437182 -0.500000
v 0.282894 -0.562182 -2.049705
v 1.916544 -0.562182 -0.779859
v 1.633650 -0.562182 1.269846
v -0.282894 -0.562182 2.049705
v -1.916544 -0.562182 0.779859
v -1.633650 -0.562182 -1.269846
v 0.779423 -0.787182 -0.450000
v -0.000000 -0.787182 -0.900000
v 0.779423 -0.787182 0.450000
v -0.000000 -0.787182 0.900000
v -0.779423 -0.787182 0.450000
v -0.779423 -0.787182 -0.450000
v 0.000000 -0.337182 -0.649399
v 0.562396 -0.337182 -0.324700
v 0.562396 -0.337182 0.324700
v -0.000000 -0.337182 0.649399
v -0.562396 -0.337182 0.324699
v -0.562396 -0.337182 -0.324700
v -0.000000 -0.337182 -0.900000
v 0.779423 -0.337182 -0.450000
v 0.779423 -0.337182 0.450000
v -0.000000 -0.337182 0.900000
v -0.779423 -0.337182 0.450000
v -0.779423 -0.337182 -0.450000
v -0.000000 0.019626 0.000000
vn -0.9909 0.0000 -0.1348
vn 0.1963 0.9787 -0.0603
vn 0.1963 -0.9787 -0.0603
vn -0.3787 0.0000 -0.9255
vn 0.1504 0.9787 0.1398
vn 0.1504 -0.9787 0.1398
vn 0.6122 0.0000 -0.7907
vn -0.0459 0.9787 0.2001
vn -0.0459 -0.9787 0.2001
vn 0.9909 0.0000 0.1348
vn -0.1963 0.9787 0.0603
vn -0.1963 -0.9787 0.0603
vn 0.3787 0.0000 0.9255
vn -0.1504 0.9787 -0.1398
vn -0.1504 -0.9787 -0.1398
vn -0.6122 0.0000 0.7907
vn 0.0459 0.9787 -0.2001
vn 0.0459 -0.9787 -0.2001
vn 0.8127 0.3453 0.4692
vn 0.8127 0.3453 -0.4692
vn 0.4156 0.8773 -0.2400
vn 0.4156 0.8773 0.2400
vn 0.8127 -0.3453 0.4692
vn 0.0000 -0.3453 0.9385
vn 0.0000 -0.8773 0.4799
vn 0.4156 -0.8773 0.2400
vn -0.9019 0.3736 0.2166
vn -0.9019 -0.3736 0.2167
vn -0.8127 -0.3453 0.4692
vn -0.8127 0.3453 0.4692
vn -0.9994 0.0000 -0.0341
vn -0.8127 -0.3453 -0.4692
vn -0.8127 0.3453 -0.4692
vn -0.2633 0.3736 0.8894
vn -0.2633 -0.3736 0.8894
vn 0.0000 0.3453 0.9385
vn -0.5292 0.0000 0.8484
vn 0.6386 0.3736 0.6727
vn 0.6386 -0.3736 0.6727
vn 0.4702 0.0000 0.8826
vn 0.9019 0.3736 -0.2167
vn 0.9019 -0.3736 -0.2166
vn 0.8127 -0.3453 -0.4692
vn 0.9994 0.0000 0.0341
vn 0.2633 -0.3736 -0.8894
vn 0.5292 0.0000 -0.8484
vn 0.0000 -0.3453 -0.9385
vn 0.2633 0.3736 -0.8894
vn 0.0000 0.3453 -0.9385
vn -0.4702 0.0000 -0.8826
vn -0.6386 0.3736 -0.6727
vn -0.6386 -0.3736 -0.6727
vn 0.0000 0.8773 -0.4799
vn -0.4156 0.8773 -0.2400
vn -0.4156 0.8773 0.2400
vn 0.0000 0.8773 0.4799
vn -0.1456 -0.9857 0.0841
vn -0.1456 -0.9857 -0.0841
vn 0.0000 -1.0000 0.0000
vn 0.0000 -0.8773 -0.4799
vn -0.4156 -0.8773 -0.2400
vn -0.4156 -0.8773 0.2400
vn 0.4156 -0.8773 -0.2400
vn 0.1456 -0.9857 -0.0841
vn 0.0000 -0.9857 -0.1682
vn 0.1456 -0.9857 0.0841
vn 0.0000 -0.9857 0.1682
vn -0.9019 -0.3736 0.2166
vn -0.9019 0.3736 0.2167
vn 0.9019 0.3736 -0.2166
vn -0.1456 0.9857 0.0841
vn 0.0000 1.0000 0.0000
vn -0.1456 0.9857 -0.0841
vn 0.1456 0.9857 -0.0841
vn 0.0000 0.9857 -0.1682
vn 0.1456 0.9857 0.0841
vn 0.0000 0.9857 0.1682
usemtl None
s off
f 2//1 31//1 1//1
f 21//2 31//2 2//2
f 1//3 31//3 21//3
f 4//4 32//4 3//4
f 18//5 32//5 4//5
f 3//6 32//6 18//6
f 6//7 33//7 5//7
f 15//8 33//8 6//8
f 5//9 33//9 15//9
f 8//10 34//10 7//10
f 12//11 34//11 8//11
f 7//12 34//12 12//12
f 10//13 35//13 9//13
f 11//14 35//14 10//14
f 9//15 35//15 11//15
f 14//16 36//16 13//16
f 24//17 36//17 14//17
f 13//18 36//18 24//18
f 57//1 56//1 86//1
f 76//3 57//3 86//3
f 56//2 76//2 86//2
f 59//4 58//4 87//4
f 73//6 59//6 87//6
f 58//5 73//5 87//5
f 61//7 60//7 88//7
f 70//9 61//9 88//9
f 60//8 70//8 88//8
f 63//10 62//10 89//10
f 67//12 63//12 89//12
f 62//11 67//11 89//11
f 65//13 64//13 90//13
f 66//15 65//15 90//15
f 64//14 66//14 90//14
f 69//16 68//16 91//16
f 79//18 69//18 91//18
f 68//17 79//17 91//17
s 1
f 23//19 26//20 37//21 39//22
f 22//23 19//24 52//25 51//26
f 10//27 9//28 16//29 17//30
f 9//28 11//31 30//32 16//29
f 11//31 10//27 17//30 29//33
f 11//31 29//33 30//32
f 8//34 7//35 19//24 20//36
f 7//35 12//37 16//29 19//24
f 12//37 8//34 20//36 17//30
f 12//37 17//30 16//29
f 6//38 5//39 22//23 23//19
f 5//39 15//40 19//24 22//23
f 15//40 6//38 23//19 20//36
f 15//40 20//36 19//24
f 4//41 3//42 25//43 26//20
f 3//42 18//44 22//23 25//43
f 18//44 4//41 26//20 23//19
f 18//44 23//19 22//23
f 1//45 21//46 25//43 27//47
f 21//46 2//48 28//49 26//20
f 2//48 1//45 27//47 28//49
f 21//46 26//20 25//43
f 24//50 28//49 27//47
f 14//51 13//52 30//32 29//33
f 13//52 24//50 27//47 30//32
f 24//50 14//51 29//33 28//49
f 37//21 38//53 42//54 41//55 40//56 39//22
f 29//33 17//30 41//55 42//54
f 26//20 28//49 38//53 37//21
f 20//36 23//19 39//22 40//56
f 28//49 29//33 42//54 38//53
f 17//30 20//36 40//56 41//55
f 47//57 48//58 55//59
f 30//32 27//47 49//60 54//61
f 19//24 16//29 53//62 52//25
f 25//43 22//23 51//26 50//63
f 16//29 30//32 54//61 53//62
f 27//47 25//43 50//63 49//60
f 44//64 43//65 49//60 50//63
f 45//66 44//64 50//63 51//26
f 46//67 45//66 51//26 52//25
f 47//57 46//67 52//25 53//62
f 48//58 47//57 53//62 54//61
f 43//65 48//58 54//61 49//60
f 45//66 46//67 55//59
f 43//65 44//64 55//59
f 48//58 43//65 55//59
f 46//67 47//57 55//59
f 44//64 45//66 55//59
f 78//23 94//26 92//63 81//43
f 77//19 106//22 107//56 74//36
f 65//68 72//29 71//30 64//69
f 64//69 71//30 85//33 66//31
f 66//31 84//32 72//29 65//68
f 66//31 85//33 84//32
f 63//35 75//24 74//36 62//34
f 62//34 74//36 71//30 67//37
f 67//37 72//29 75//24 63//35
f 67//37 71//30 72//29
f 61//39 78//23 77//19 60//38
f 60//38 77//19 74//36 70//40
f 70//40 75//24 78//23 61//39
f 70//40 74//36 75//24
f 59//42 81//43 80//20 58//70
f 58//70 80//20 77//19 73//44
f 73//44 78//23 81//43 59//42
f 73//44 77//19 78//23
f 56//48 82//49 80//20 76//46
f 76//46 81//43 83//47 57//45
f 57//45 83//47 82//49 56//48
f 76//46 80//20 81//43
f 79//50 82//49 83//47
f 69//52 84//32 85//33 68//51
f 68//51 85//33 82//49 79//50
f 79//50 83//47 84//32 69//52
f 92//63 94//26 95//25 96//62 97//61 93//60
f 84//32 97//61 96//62 72//29
f 81//43 92//63 93//60 83//47
f 75//24 95//25 94//26 78//23
f 83//47 93//60 97//61 84//32
f 72//29 96//62 95//25 75//24
f 102//71 110//72 103//73
f 85//33 109//54 104//53 82//49
f 74//36 107//56 108//55 71//30
f 80//20 105//21 106//22 77//19
f 71//30 108//55 109//54 85//33
f 82//49 104//53 105//21 80//20
f 99//74 105//21 104//53 98//75
f 100//76 106//22 105//21 99//74
f 101//77 107//56 106//22 100//76
f 102//71 108//55 107//56 101//77
f 103//73 109//54 108//55 102//71
f 98//75 104//53 109//54 103//73
f 100//76 110//72 101//77
f 98//75 110//72 99//74
f 103//73 110//72 98//75
f 101//77 110//72 102//71
f 99//74 110//72 100//76
