# This file uses centimeters as units for non-parametric coordinates.

mtllib bigRock.mtl
g default
v 1.091179 0.000000 -0.758325
v 0.398670 0.000000 -1.261462
v -1.149826 0.000000 -0.758325
v -1.149826 0.000000 0.869860
v 0.398670 0.000000 1.372997
v 1.091178 0.000000 0.869860
v 0.877182 0.814092 -0.602847
v 0.316930 0.814092 -1.009893
v -0.935829 0.814092 -0.602847
v -0.935829 0.814092 0.714382
v 0.316930 0.814092 1.121428
v 0.877181 0.814092 0.714382
v 0.316930 1.317229 -0.195801
v 0.102934 1.317229 -0.351279
v -0.375578 1.317229 -0.195801
v -0.375578 1.317229 0.307336
v 0.102933 1.317229 0.462814
v 0.316930 1.317229 0.307336
v -0.029324 1.385016 0.055768
vt 0.050000 0.500000
vt 0.150000 0.500000
vt 0.350000 0.500000
vt 0.550000 0.500000
vt 0.750000 0.500000
vt 0.850000 0.500000
vt 0.050000 0.700000
vt 0.150000 0.700000
vt 0.350000 0.700000
vt 0.550000 0.700000
vt 0.750000 0.700000
vt 0.850000 0.700000
vt 0.050000 0.900000
vt 0.150000 0.900000
vt 0.350000 0.900000
vt 0.550000 0.900000
vt 0.750000 0.900000
vt 0.850000 0.900000
vt 0.075000 1.000000
vt 0.175000 1.000000
vt 0.375000 1.000000
vt 0.575000 1.000000
vt 0.775000 1.000000
vt 0.875000 1.000000
vn 0.041639 0.298800 -0.953407
vn 0.032973 0.498970 -0.865992
vn 0.910509 0.294729 -0.290013
vn 0.834422 0.493672 -0.245005
vn -0.667893 0.497402 -0.553634
vn -0.742885 0.308719 -0.593982
vn -0.732927 0.497402 0.464121
vn -0.794474 0.308719 0.522975
vn -0.024837 0.493672 0.869293
vn -0.005544 0.294729 0.955565
vn 0.893877 0.298800 0.334220
vn 0.813418 0.498970 0.298966
vn 0.049350 0.849527 -0.525232
vn 0.569191 0.816601 -0.095831
vn -0.354755 0.835901 -0.418829
vn -0.507955 0.835901 0.207967
vn -0.084749 0.816601 0.570947
vn 0.484275 0.849527 0.209241
vn -0.013077 0.999915 -0.000000
s 1
g pSphere1
usemtl initialShadingGroup
f 2/2/1 8/8/2 1/1/3
f 1/1/3 8/8/2 7/7/4
f 8/8/2 2/2/1 9/9/5
f 9/9/5 2/2/1 3/3/6
f 9/9/5 3/3/6 10/10/7
f 10/10/7 3/3/6 4/4/8
f 10/10/7 4/4/8 11/11/9
f 11/11/9 4/4/8 5/5/10
f 6/6/11 12/12/12 5/5/10
f 5/5/10 12/12/12 11/11/9
f 12/12/12 6/6/11 7/7/4
f 7/7/4 6/6/11 1/1/3
f 8/8/2 14/14/13 7/7/4
f 7/7/4 14/14/13 13/13/14
f 14/14/13 8/8/2 15/15/15
f 15/15/15 8/8/2 9/9/5
f 15/15/15 9/9/5 16/16/16
f 16/16/16 9/9/5 10/10/7
f 16/16/16 10/10/7 17/17/17
f 17/17/17 10/10/7 11/11/9
f 12/12/12 18/18/18 11/11/9
f 11/11/9 18/18/18 17/17/17
f 18/18/18 12/12/12 13/13/14
f 13/13/14 12/12/12 7/7/4
f 19/19/19 13/13/14 14/14/13
f 19/20/19 14/14/13 15/15/15
f 19/21/19 15/15/15 16/16/16
f 19/22/19 16/16/16 17/17/17
f 19/23/19 17/17/17 18/18/18
f 19/24/19 18/18/18 13/13/14
