# Blender v2.78 (sub 0) OBJ File: 'Clock.blend'
# www.blender.org
mtllib ClockFrame.mtl
o Cube_Cube.001
v -0.000011 -0.000004 -2.499998
v 0.322611 -0.000004 -2.499999
v 0.322611 -0.487731 -2.451962
v -0.000011 -0.487731 -2.451961
v 0.322611 -0.956713 -2.309697
v -0.000011 -0.956713 -2.309697
v 0.322611 -1.388929 -2.078673
v -0.000011 -1.388929 -2.078672
v 0.322611 -1.767771 -1.767765
v -0.000011 -1.767771 -1.767765
v 0.322611 -2.078679 -1.388924
v -0.000011 -2.078679 -1.388924
v 0.322611 -2.309704 -0.956707
v -0.000011 -2.309704 -0.956707
v 0.322611 -2.451968 -0.487725
v -0.000011 -2.451968 -0.487724
v 0.322611 -2.500005 0.000001
v -0.000011 -2.500005 0.000002
v 0.322611 -2.451968 0.487727
v -0.000011 -2.451968 0.487727
v 0.322611 -2.309704 0.956709
v -0.000011 -2.309704 0.956710
v 0.322611 -2.078679 1.388927
v -0.000011 -2.078679 1.388927
v 0.322611 -1.767771 1.767768
v -0.000011 -1.767771 1.767769
v 0.322611 -1.388930 2.078675
v -0.000011 -1.388930 2.078676
v 0.322611 -0.956714 2.309700
v -0.000011 -0.956714 2.309701
v 0.322611 -0.487729 2.451964
v -0.000011 -0.487729 2.451965
v 0.322611 -0.000004 2.500001
v -0.000011 -0.000004 2.500001
v 0.322611 0.487722 2.451964
v -0.000011 0.487722 2.451965
v 0.322611 0.956705 2.309700
v -0.000011 0.956705 2.309700
v 0.322611 1.388921 2.078674
v -0.000011 1.388921 2.078676
v 0.322611 1.767764 1.767767
v -0.000011 1.767764 1.767767
v 0.322611 2.078671 1.388926
v -0.000011 2.078671 1.388927
v 0.322611 2.309694 0.956709
v -0.000011 2.309694 0.956709
v 0.322611 2.451959 0.487726
v -0.000011 2.451959 0.487726
v 0.322611 2.499995 -0.000000
v -0.000011 2.499995 -0.000000
v 0.322611 2.451959 -0.487726
v -0.000011 2.451959 -0.487726
v 0.322611 2.309695 -0.956709
v -0.000011 2.309695 -0.956708
v 0.322611 2.078667 -1.388927
v -0.000011 2.078667 -1.388925
v 0.322611 1.767761 -1.767768
v -0.000011 1.767761 -1.767767
v 0.322611 1.388918 -2.078675
v -0.000011 1.388918 -2.078674
v 0.322611 0.956702 -2.309699
v -0.000011 0.956702 -2.309698
v 0.348204 0.450504 -2.264878
v 0.348204 -0.000004 -2.309249
v 0.322611 0.487718 -2.451962
v -0.000011 0.487718 -2.451962
v 0.339188 -1.835943 0.365194
v 0.339188 -1.871911 0.000001
v 0.054272 -1.871911 0.000001
v 0.054272 -1.835943 0.365194
v 0.348204 -0.883717 -2.133468
v 0.348204 -1.282955 -1.920070
v 0.348204 -1.632891 -1.632885
v 0.348204 -1.920078 -1.282949
v 0.348204 -2.133474 -0.883710
v 0.348204 -2.264884 -0.450511
v 0.348204 -2.309256 0.000001
v 0.348204 -2.264884 0.450513
v 0.348204 -2.133474 0.883713
v 0.348204 -1.920076 1.282952
v 0.348204 -1.632891 1.632888
v 0.348204 -1.282956 1.920073
v 0.348204 -0.883717 2.133471
v 0.348204 -0.450517 2.264880
v 0.348204 -0.000004 2.309252
v 0.348204 0.450509 2.264880
v 0.348204 0.883708 2.133471
v 0.348204 1.282947 1.920072
v 0.348204 1.632883 1.632887
v 0.348204 1.920069 1.282952
v 0.348204 2.133465 0.883713
v 0.348204 2.264876 0.450513
v 0.348204 2.309246 -0.000000
v 0.348204 2.264876 -0.450513
v 0.348204 2.133465 -0.883712
v 0.348204 1.920066 -1.282951
v 0.348204 1.632880 -1.632887
v 0.348204 1.282945 -1.920072
v 0.348204 0.883705 -2.133469
v 0.348204 -0.450517 -2.264878
v 0.392019 -0.000004 -2.173862
v 0.392019 -0.424104 -2.132091
v 0.424095 -0.000004 -2.013783
v 0.424095 -0.392875 -1.975088
v 0.339188 -0.000004 -1.871906
v 0.339188 -0.365194 -1.835937
v 0.392019 -0.831905 -2.008386
v 0.424095 -0.770645 -1.860493
v 0.339188 -0.716352 -1.729415
v 0.392019 -1.207738 -1.807499
v 0.424095 -1.118802 -1.674399
v 0.339188 -1.039978 -1.556433
v 0.392019 -1.537157 -1.537151
v 0.424095 -1.423965 -1.423958
v 0.339188 -1.323644 -1.323635
v 0.392019 -1.807505 -1.207731
v 0.424095 -1.674404 -1.118797
v 0.339188 -1.556438 -1.039974
v 0.392019 -2.008393 -0.831900
v 0.424095 -1.860499 -0.770640
v 0.339188 -1.729422 -0.716346
v 0.392019 -2.132099 -0.424099
v 0.424095 -1.975095 -0.392870
v 0.339188 -1.835943 -0.365192
v 0.392019 -2.173867 0.000001
v 0.424095 -2.013787 0.000001
v 0.392019 -2.132099 0.424101
v 0.424095 -1.975095 0.392872
v 0.392019 -2.008393 0.831902
v 0.424095 -1.860499 0.770642
v 0.339188 -1.729422 0.716348
v 0.392019 -1.807506 1.207735
v 0.424095 -1.674404 1.118799
v 0.339188 -1.556438 1.039977
v 0.392019 -1.537157 1.537154
v 0.424095 -1.423965 1.423960
v 0.339188 -1.323644 1.323638
v 0.392019 -1.207738 1.807502
v 0.424095 -1.118802 1.674402
v 0.339188 -1.039978 1.556436
v 0.392019 -0.831905 2.008389
v 0.424095 -0.770646 1.860496
v 0.339188 -0.716352 1.729418
v 0.392019 -0.424105 2.132094
v 0.424095 -0.392876 1.975091
v 0.339188 -0.365197 1.835940
v 0.392019 -0.000004 2.173864
v 0.424095 -0.000002 2.013785
v 0.339188 -0.000002 1.871908
v 0.392019 0.424095 2.132094
v 0.424095 0.392866 1.975091
v 0.339188 0.365187 1.835940
v 0.392019 0.831897 2.008389
v 0.424095 0.770636 1.860495
v 0.339188 0.716343 1.729418
v 0.392019 1.207731 1.807502
v 0.424095 1.118795 1.674401
v 0.339188 1.039973 1.556433
v 0.392019 1.537150 1.537154
v 0.424095 1.423958 1.423961
v 0.339191 1.323634 1.323639
v 0.392019 1.807498 1.207733
v 0.424095 1.674398 1.118798
v 0.339188 1.556433 1.039974
v 0.392019 2.008383 0.831903
v 0.424095 1.860490 0.770644
v 0.339188 1.729411 0.716352
v 0.392019 2.132087 0.424100
v 0.424097 1.975083 0.392870
v 0.339191 1.835936 0.365193
v 0.392019 2.173858 -0.000000
v 0.424095 2.013779 -0.000000
v 0.339188 1.871901 -0.000001
v 0.392019 2.132087 -0.424099
v 0.424095 1.975083 -0.392870
v 0.339188 1.835936 -0.365193
v 0.392019 2.008383 -0.831901
v 0.424095 1.860490 -0.770642
v 0.339188 1.729412 -0.716347
v 0.392019 1.807494 -1.207734
v 0.424095 1.674394 -1.118799
v 0.339188 1.556427 -1.039977
v 0.392019 1.537147 -1.537154
v 0.424095 1.423955 -1.423961
v 0.339188 1.323633 -1.323637
v 0.392019 1.207729 -1.807502
v 0.424095 1.118793 -1.674400
v 0.339188 1.039973 -1.556433
v 0.392019 0.831895 -2.008387
v 0.424095 0.770636 -1.860493
v 0.339188 0.716342 -1.729416
v 0.392019 0.424092 -2.132092
v 0.424095 0.392862 -1.975089
v 0.339188 0.365183 -1.835938
v 0.054272 -1.323644 1.323638
v 0.054272 -1.556438 1.039977
v 0.054272 -1.729422 0.716348
v 0.054272 -1.039978 1.556436
v 0.054272 -0.716352 1.729418
v 0.054272 -0.365197 1.835940
v 0.054272 -0.000002 1.871908
v 0.054272 0.365187 1.835940
v 0.054274 0.716343 1.729418
v 0.054272 1.039973 1.556433
v 0.054274 1.323634 1.323639
v 0.054272 1.556433 1.039974
v 0.054272 1.729411 0.716352
v 0.054274 1.835936 0.365193
v 0.054272 -0.365194 -1.835937
v 0.054272 -0.716352 -1.729415
v 0.054272 1.871901 -0.000001
v 0.054272 1.835936 -0.365193
v 0.054272 -1.039978 -1.556433
v 0.054272 -1.323644 -1.323635
v 0.054272 1.729412 -0.716347
v 0.054272 1.556427 -1.039977
v 0.054272 -1.556438 -1.039974
v 0.054272 -1.729422 -0.716346
v 0.054272 1.323633 -1.323637
v 0.054272 1.039973 -1.556433
v 0.054272 -1.835943 -0.365192
v 0.054272 0.716342 -1.729416
v 0.054272 0.365183 -1.835938
v 0.054272 -0.000004 -1.871906
vn -0.0000 -0.0000 -1.0000
vn -0.0000 -0.1951 -0.9808
vn -0.0000 -0.3827 -0.9239
vn -0.0000 -0.5556 -0.8315
vn -0.0000 -0.7071 -0.7071
vn 0.0000 -0.8315 -0.5556
vn -0.0000 -0.9239 -0.3827
vn -0.0000 -0.9808 -0.1951
vn -0.0000 -1.0000 -0.0000
vn 0.0000 -0.9808 0.1951
vn 0.0000 -0.9239 0.3827
vn 0.0000 -0.8315 0.5556
vn 0.0000 -0.7071 0.7071
vn 0.0000 -0.5556 0.8315
vn 0.0000 -0.3827 0.9239
vn 0.0000 -0.1951 0.9808
vn 0.0000 -0.0000 1.0000
vn 0.0000 0.1951 0.9808
vn 0.0000 0.3827 0.9239
vn 0.0000 0.5556 0.8315
vn 0.0000 0.7071 0.7071
vn 0.0000 0.8315 0.5556
vn 0.0000 0.9239 0.3827
vn 0.0000 0.9808 0.1951
vn 0.0000 1.0000 0.0000
vn -0.0000 0.9808 -0.1951
vn -0.0000 0.9239 -0.3827
vn -0.0000 0.8315 -0.5556
vn -0.0000 0.7071 -0.7071
vn -0.0000 0.5556 -0.8315
vn -0.0000 0.3827 -0.9239
vn 0.9764 0.0421 -0.2118
vn 0.9764 0.0000 -0.2160
vn 0.9911 0.0000 -0.1330
vn 0.9911 0.0259 -0.1304
vn -0.0000 0.1951 -0.9808
vn -1.0000 -0.0000 0.0000
vn 0.9764 -0.0827 -0.1995
vn 0.9764 -0.1200 -0.1796
vn 0.9911 -0.0739 -0.1106
vn 0.9911 -0.0509 -0.1229
vn 0.9764 -0.1527 -0.1527
vn 0.9911 -0.0940 -0.0940
vn 0.9764 -0.1796 -0.1200
vn 0.9911 -0.1106 -0.0739
vn 0.9764 -0.1996 -0.0827
vn 0.9911 -0.1229 -0.0509
vn 0.9764 -0.2118 -0.0421
vn 0.9911 -0.1304 -0.0259
vn 0.9764 -0.2160 -0.0000
vn 0.9911 -0.1330 -0.0000
vn 0.9764 -0.2118 0.0421
vn 0.9911 -0.1304 0.0259
vn 0.9764 -0.1996 0.0827
vn 0.9911 -0.1229 0.0509
vn 0.9764 -0.1796 0.1200
vn 0.9911 -0.1106 0.0739
vn 0.9764 -0.1527 0.1527
vn 0.9911 -0.0940 0.0940
vn 0.9764 -0.1200 0.1796
vn 0.9911 -0.0739 0.1106
vn 0.9764 -0.0827 0.1995
vn 0.9911 -0.0509 0.1229
vn 0.9764 -0.0421 0.2118
vn 0.9911 -0.0259 0.1304
vn 0.9764 0.0000 0.2160
vn 0.9911 -0.0000 0.1330
vn 0.9764 0.0421 0.2118
vn 0.9911 0.0259 0.1304
vn 0.9764 0.0827 0.1996
vn 0.9911 0.0509 0.1229
vn 0.9764 0.1200 0.1796
vn 0.9911 0.0739 0.1106
vn 0.9764 0.1527 0.1527
vn 0.9911 0.0940 0.0940
vn 0.9764 0.1796 0.1200
vn 0.9911 0.1106 0.0739
vn 0.9764 0.1995 0.0827
vn 0.9911 0.1229 0.0509
vn 0.9764 0.2118 0.0421
vn 0.9911 0.1304 0.0259
vn 0.9764 0.2160 -0.0000
vn 0.9911 0.1330 0.0000
vn 0.9764 0.2118 -0.0421
vn 0.9911 0.1304 -0.0259
vn 0.9764 0.1995 -0.0827
vn 0.9911 0.1229 -0.0509
vn 0.9764 0.1796 -0.1200
vn 0.9911 0.1106 -0.0739
vn 0.9764 0.1527 -0.1527
vn 0.9911 0.0940 -0.0940
vn 0.9764 0.1200 -0.1796
vn 0.9911 0.0739 -0.1106
vn 0.9764 0.0827 -0.1996
vn 0.9911 0.0509 -0.1229
vn 0.9764 -0.0421 -0.2118
vn 0.9911 -0.0259 -0.1304
vn 0.9667 -0.0000 -0.2560
vn 0.9667 -0.0499 -0.2511
vn 0.9805 -0.0000 -0.1965
vn 0.9805 -0.0383 -0.1927
vn 0.8581 0.1002 0.5037
vn 0.8581 0.0000 0.5135
vn 0.9667 -0.0980 -0.2365
vn 0.9805 -0.0752 -0.1815
vn 0.8581 0.1965 0.4744
vn 0.9667 -0.1422 -0.2128
vn 0.9805 -0.1092 -0.1634
vn 0.8581 0.2853 0.4270
vn 0.9667 -0.1810 -0.1810
vn 0.9805 -0.1389 -0.1389
vn 0.8581 0.3631 0.3631
vn 0.9667 -0.2128 -0.1422
vn 0.9805 -0.1634 -0.1092
vn 0.8581 0.4270 0.2853
vn 0.9667 -0.2365 -0.0980
vn 0.9805 -0.1815 -0.0752
vn 0.8581 0.4744 0.1965
vn 0.9667 -0.2511 -0.0499
vn 0.9805 -0.1927 -0.0383
vn 0.8581 0.5037 0.1002
vn 0.9667 -0.2560 0.0000
vn 0.9805 -0.1965 0.0000
vn 0.8581 0.5135 0.0000
vn 0.9667 -0.2511 0.0499
vn 0.9805 -0.1927 0.0383
vn 0.8581 0.5037 -0.1002
vn 0.9667 -0.2365 0.0980
vn 0.9805 -0.1815 0.0752
vn 0.8581 0.4744 -0.1965
vn 0.9667 -0.2128 0.1422
vn 0.9805 -0.1634 0.1092
vn 0.8581 0.4270 -0.2853
vn 0.9667 -0.1810 0.1810
vn 0.9805 -0.1389 0.1389
vn 0.8581 0.3631 -0.3631
vn 0.9667 -0.1422 0.2128
vn 0.9805 -0.1092 0.1634
vn 0.8581 0.2853 -0.4270
vn 0.9667 -0.0980 0.2365
vn 0.9805 -0.0752 0.1815
vn 0.8581 0.1965 -0.4744
vn 0.9667 -0.0499 0.2511
vn 0.9805 -0.0383 0.1927
vn 0.8581 0.1002 -0.5037
vn 0.9667 -0.0000 0.2560
vn 0.9805 0.0000 0.1965
vn 0.8581 -0.0000 -0.5135
vn 0.9667 0.0499 0.2511
vn 0.9805 0.0383 0.1927
vn 0.8581 -0.1002 -0.5037
vn 0.9667 0.0980 0.2365
vn 0.9805 0.0752 0.1815
vn 0.8581 -0.1965 -0.4744
vn 0.9667 0.1422 0.2128
vn 0.9805 0.1092 0.1634
vn 0.8581 -0.2853 -0.4270
vn 0.9667 0.1810 0.1810
vn 0.9805 0.1389 0.1389
vn 0.8581 -0.3631 -0.3631
vn 0.9667 0.2128 0.1422
vn 0.9805 0.1634 0.1092
vn 0.8581 -0.4270 -0.2853
vn 0.9667 0.2365 0.0980
vn 0.9805 0.1815 0.0752
vn 0.8581 -0.4744 -0.1965
vn 0.9667 0.2511 0.0499
vn 0.9805 0.1927 0.0383
vn 0.8581 -0.5037 -0.1002
vn 0.9667 0.2560 -0.0000
vn 0.9805 0.1965 -0.0000
vn 0.8581 -0.5135 -0.0000
vn 0.9667 0.2511 -0.0499
vn 0.9805 0.1927 -0.0383
vn 0.8581 -0.5037 0.1002
vn 0.9667 0.2365 -0.0980
vn 0.9805 0.1815 -0.0752
vn 0.8581 -0.4744 0.1965
vn 0.9667 0.2128 -0.1422
vn 0.9805 0.1634 -0.1092
vn 0.8581 -0.4270 0.2853
vn 0.9667 0.1810 -0.1810
vn 0.9805 0.1389 -0.1389
vn 0.8581 -0.3631 0.3631
vn 0.9667 0.1422 -0.2128
vn 0.9805 0.1092 -0.1634
vn 0.8581 -0.2853 0.4270
vn 0.9667 0.0980 -0.2365
vn 0.9805 0.0752 -0.1815
vn 0.8581 -0.1965 0.4744
vn 0.9667 0.0499 -0.2511
vn 0.9805 0.0383 -0.1927
vn 0.8581 -0.1002 0.5037
usemtl None
s 1
f 1//1 2//1 3//2 4//2
f 4//2 3//2 5//3 6//3
f 6//3 5//3 7//4 8//4
f 8//4 7//4 9//5 10//5
f 10//5 9//5 11//6 12//6
f 12//6 11//6 13//7 14//7
f 14//7 13//7 15//8 16//8
f 16//8 15//8 17//9 18//9
f 18//9 17//9 19//10 20//10
f 20//10 19//10 21//11 22//11
f 22//11 21//11 23//12 24//12
f 24//12 23//12 25//13 26//13
f 26//13 25//13 27//14 28//14
f 28//14 27//14 29//15 30//15
f 30//15 29//15 31//16 32//16
f 32//16 31//16 33//17 34//17
f 34//17 33//17 35//18 36//18
f 36//18 35//18 37//19 38//19
f 38//19 37//19 39//20 40//20
f 40//20 39//20 41//21 42//21
f 42//21 41//21 43//22 44//22
f 44//22 43//22 45//23 46//23
f 46//23 45//23 47//24 48//24
f 48//24 47//24 49//25 50//25
f 50//25 49//25 51//26 52//26
f 52//26 51//26 53//27 54//27
f 54//27 53//27 55//28 56//28
f 56//28 55//28 57//29 58//29
f 58//29 57//29 59//30 60//30
f 60//30 59//30 61//31 62//31
f 63//32 64//33 2//34 65//35
f 62//31 61//31 65//36 66//36
f 66//36 65//36 2//1 1//1
f 1//37 4//37 6//37 8//37 10//37 12//37 14//37 16//37 18//37 20//37 22//37 24//37 26//37 28//37 30//37 32//37 34//37 36//37 38//37 40//37 42//37 44//37 46//37 48//37 50//37 52//37 54//37 56//37 58//37 60//37 62//37 66//37
f 67//26 68//25 69//25 70//26
f 71//38 72//39 7//40 5//41
f 72//39 73//42 9//43 7//40
f 73//42 74//44 11//45 9//43
f 74//44 75//46 13//47 11//45
f 75//46 76//48 15//49 13//47
f 76//48 77//50 17//51 15//49
f 77//50 78//52 19//53 17//51
f 78//52 79//54 21//55 19//53
f 79//54 80//56 23//57 21//55
f 80//56 81//58 25//59 23//57
f 81//58 82//60 27//61 25//59
f 82//60 83//62 29//63 27//61
f 83//62 84//64 31//65 29//63
f 84//64 85//66 33//67 31//65
f 85//66 86//68 35//69 33//67
f 86//68 87//70 37//71 35//69
f 87//70 88//72 39//73 37//71
f 88//72 89//74 41//75 39//73
f 89//74 90//76 43//77 41//75
f 90//76 91//78 45//79 43//77
f 91//78 92//80 47//81 45//79
f 92//80 93//82 49//83 47//81
f 93//82 94//84 51//85 49//83
f 94//84 95//86 53//87 51//85
f 95//86 96//88 55//89 53//87
f 96//88 97//90 57//91 55//89
f 97//90 98//92 59//93 57//91
f 98//92 99//94 61//95 59//93
f 99//94 63//32 65//35 61//95
f 100//96 71//38 5//41 3//97
f 100//96 64//33 101//98 102//99
f 102//99 101//98 103//100 104//101
f 104//102 103//103 105//103 106//102
f 71//38 100//96 102//99 107//104
f 107//104 102//99 104//101 108//105
f 108//106 104//102 106//102 109//106
f 72//39 71//38 107//104 110//107
f 110//107 107//104 108//105 111//108
f 111//109 108//106 109//106 112//109
f 73//42 72//39 110//107 113//110
f 113//110 110//107 111//108 114//111
f 114//112 111//109 112//109 115//112
f 74//44 73//42 113//110 116//113
f 116//113 113//110 114//111 117//114
f 117//115 114//112 115//112 118//115
f 75//46 74//44 116//113 119//116
f 119//116 116//113 117//114 120//117
f 120//118 117//115 118//115 121//118
f 76//48 75//46 119//116 122//119
f 122//119 119//116 120//117 123//120
f 123//121 120//118 121//118 124//121
f 77//50 76//48 122//119 125//122
f 125//122 122//119 123//120 126//123
f 126//124 123//121 124//121 68//124
f 78//52 77//50 125//122 127//125
f 127//125 125//122 126//123 128//126
f 128//127 126//124 68//124 67//127
f 79//54 78//52 127//125 129//128
f 129//128 127//125 128//126 130//129
f 130//130 128//127 67//127 131//130
f 80//56 79//54 129//128 132//131
f 132//131 129//128 130//129 133//132
f 133//133 130//130 131//130 134//133
f 81//58 80//56 132//131 135//134
f 135//134 132//131 133//132 136//135
f 136//136 133//133 134//133 137//136
f 82//60 81//58 135//134 138//137
f 138//137 135//134 136//135 139//138
f 139//139 136//136 137//136 140//139
f 83//62 82//60 138//137 141//140
f 141//140 138//137 139//138 142//141
f 142//142 139//139 140//139 143//142
f 84//64 83//62 141//140 144//143
f 144//143 141//140 142//141 145//144
f 145//145 142//142 143//142 146//145
f 85//66 84//64 144//143 147//146
f 147//146 144//143 145//144 148//147
f 148//148 145//145 146//145 149//148
f 86//68 85//66 147//146 150//149
f 150//149 147//146 148//147 151//150
f 151//151 148//148 149//148 152//151
f 87//70 86//68 150//149 153//152
f 153//152 150//149 151//150 154//153
f 154//154 151//151 152//151 155//154
f 88//72 87//70 153//152 156//155
f 156//155 153//152 154//153 157//156
f 157//157 154//154 155//154 158//157
f 89//74 88//72 156//155 159//158
f 159//158 156//155 157//156 160//159
f 160//160 157//157 158//157 161//160
f 90//76 89//74 159//158 162//161
f 162//161 159//158 160//159 163//162
f 163//163 160//160 161//160 164//163
f 91//78 90//76 162//161 165//164
f 165//164 162//161 163//162 166//165
f 166//166 163//163 164//163 167//166
f 92//80 91//78 165//164 168//167
f 168//167 165//164 166//165 169//168
f 169//169 166//166 167//166 170//169
f 93//82 92//80 168//167 171//170
f 171//170 168//167 169//168 172//171
f 172//172 169//169 170//169 173//172
f 94//84 93//82 171//170 174//173
f 174//173 171//170 172//171 175//174
f 175//175 172//172 173//172 176//175
f 95//86 94//84 174//173 177//176
f 177//176 174//173 175//174 178//177
f 178//178 175//175 176//175 179//178
f 96//88 95//86 177//176 180//179
f 180//179 177//176 178//177 181//180
f 181//181 178//178 179//178 182//181
f 97//90 96//88 180//179 183//182
f 183//182 180//179 181//180 184//183
f 184//184 181//181 182//181 185//184
f 98//92 97//90 183//182 186//185
f 186//185 183//182 184//183 187//186
f 187//187 184//184 185//184 188//187
f 99//94 98//92 186//185 189//188
f 189//188 186//185 187//186 190//189
f 190//190 187//187 188//187 191//190
f 63//32 99//94 189//188 192//191
f 192//191 189//188 190//189 193//192
f 193//193 190//190 191//190 194//193
f 64//33 63//32 192//191 101//98
f 101//98 192//191 193//192 103//100
f 103//103 193//193 194//193 105//103
f 64//33 100//96 3//97 2//34
f 134//28 131//27 197//27 196//28
f 140//30 137//29 195//29 198//30
f 146//36 143//31 199//31 200//36
f 152//2 149//1 201//1 202//2
f 158//4 155//3 203//3 204//4
f 164//6 161//5 205//5 206//6
f 170//8 167//7 207//7 208//8
f 109//19 106//18 209//18 210//19
f 176//10 173//9 211//9 212//10
f 115//21 112//20 213//20 214//21
f 182//12 179//11 215//11 216//12
f 121//23 118//22 217//22 218//23
f 188//14 185//13 219//13 220//14
f 68//25 124//24 221//24 69//25
f 194//16 191//15 222//15 223//16
f 131//27 67//26 70//26 197//27
f 137//29 134//28 196//28 195//29
f 143//31 140//30 198//30 199//31
f 149//1 146//36 200//36 201//1
f 155//3 152//2 202//2 203//3
f 161//5 158//4 204//4 205//5
f 105//17 194//16 223//16 224//17
f 167//7 164//6 206//6 207//7
f 106//18 105//17 224//17 209//18
f 173//9 170//8 208//8 211//9
f 112//20 109//19 210//19 213//20
f 179//11 176//10 212//10 215//11
f 118//22 115//21 214//21 217//22
f 185//13 182//12 216//12 219//13
f 124//24 121//23 218//23 221//24
f 191//15 188//14 220//14 222//15
