# Blender v2.78 (sub 0) OBJ File: 'DoorMirrored.blend'
# www.blender.org
mtllib DoorFrame3.mtl
o Cube.001_Cube.002
v 1.500000 2.625000 -0.600000
v 1.650000 2.687132 -0.750000
v 1.650000 2.687132 0.750000
v 1.500000 2.625000 0.600000
v -1.650000 2.687132 -0.750000
v -1.500000 2.625000 -0.600000
v -1.500000 2.625000 0.600000
v -1.650000 2.687132 0.750000
v -1.125000 3.000000 -0.600000
v -1.187132 3.150000 -0.750000
v -1.187132 3.150000 0.750000
v -1.125000 3.000000 0.600000
v 1.187132 3.150000 -0.750000
v 1.125000 3.000000 -0.600000
v 1.125000 3.000000 0.600000
v 1.187132 3.150000 0.750000
v 3.600000 3.687868 0.750000
v 3.750000 3.750000 0.600000
v 2.937868 4.350000 0.750000
v 3.000000 4.500000 0.600000
v -2.937868 4.350000 0.750000
v -3.000000 4.500000 0.600000
v -3.600000 3.687868 0.750000
v -3.750000 3.750000 0.600000
v 2.937868 4.350000 -0.750000
v 3.000000 4.500000 -0.600000
v 3.600000 3.687868 -0.750000
v 3.750000 3.750000 -0.600000
v -3.600000 3.687868 -0.750000
v -3.750000 3.750000 -0.600000
v -2.937868 4.350000 -0.750000
v -3.000000 4.500000 -0.600000
v 3.750000 0.000000 0.600000
v 3.600000 0.000000 0.750000
v -3.600000 0.000000 0.750000
v -3.750000 0.000000 0.600000
v 3.600000 0.000000 -0.750000
v 3.750000 0.000000 -0.600000
v -3.750000 0.000000 -0.600000
v -3.600000 0.000000 -0.750000
v 1.500000 -2.625000 -0.600000
v 1.650000 -2.687132 -0.750000
v 1.650000 -2.687132 0.750000
v 1.500000 -2.625000 0.600000
v 1.500000 0.000000 -0.600000
v 1.650000 0.000000 -0.750000
v 1.650000 0.000000 0.750000
v 1.500000 0.000000 0.600000
v -1.650000 -2.687132 -0.750000
v -1.500000 -2.625000 -0.600000
v -1.500000 -2.625000 0.600000
v -1.650000 -2.687132 0.750000
v -1.650000 0.000000 -0.750000
v -1.500000 0.000000 -0.600000
v -1.500000 0.000000 0.600000
v -1.650000 0.000000 0.750000
v -1.125000 -3.000000 -0.600000
v -1.187132 -3.150000 -0.750000
v -1.187132 -3.150000 0.750000
v -1.125000 -3.000000 0.600000
v 1.187132 -3.150000 -0.750000
v 1.125000 -3.000000 -0.600000
v 1.125000 -3.000000 0.600000
v 1.187132 -3.150000 0.750000
v 3.600000 -3.687868 0.750000
v 3.750000 -3.750000 0.600000
v 2.937868 -4.350000 0.750000
v 3.000000 -4.500000 0.600000
v -2.937868 -4.350000 0.750000
v -3.000000 -4.500000 0.600000
v -3.600000 -3.687868 0.750000
v -3.750000 -3.750000 0.600000
v 2.937868 -4.350000 -0.750000
v 3.000000 -4.500000 -0.600000
v 3.600000 -3.687868 -0.750000
v 3.750000 -3.750000 -0.600000
v -3.600000 -3.687868 -0.750000
v -3.750000 -3.750000 -0.600000
v -2.937868 -4.350000 -0.750000
v -3.000000 -4.500000 -0.600000
vn -0.7071 0.7071 0.0000
vn -1.0000 -0.0000 0.0000
vn -0.0000 0.0000 -1.0000
vn 0.7071 0.7071 0.0000
vn -0.7071 -0.7071 0.0000
vn 1.0000 0.0000 0.0000
vn 0.7071 -0.7071 0.0000
vn 0.0000 -1.0000 0.0000
vn 0.0000 1.0000 0.0000
vn 0.0000 -0.0000 1.0000
vn -0.7071 -0.0000 -0.7071
vn -0.7071 0.0000 0.7071
vn 0.7071 -0.0000 -0.7071
vn 0.7071 0.0000 0.7071
vn -0.0000 -0.7071 -0.7071
vn 0.0000 -0.7071 0.7071
vn -0.5000 -0.5000 0.7071
vn -0.5000 -0.5000 -0.7071
vn 0.5000 -0.5000 -0.7071
vn 0.5000 -0.5000 0.7071
vn -0.5000 0.5000 0.7071
vn -0.5000 0.5000 -0.7071
vn 0.5000 0.5000 -0.7071
vn 0.5000 0.5000 0.7071
vn 0.0000 0.7071 0.7071
vn -0.0000 0.7071 -0.7071
usemtl None
s off
f 22//1 30//1 24//1
f 4//2 45//2 48//2
f 24//2 39//2 36//2
f 31//3 25//3 13//3
f 26//4 18//4 28//4
f 4//5 14//5 1//5
f 28//6 33//6 38//6
f 6//7 12//7 7//7
f 15//8 9//8 14//8
f 7//6 54//6 6//6
f 32//9 20//9 26//9
f 19//10 21//10 11//10
f 46//11 1//11 2//11
f 4//12 47//12 3//12
f 6//13 53//13 5//13
f 56//14 7//14 8//14
f 13//15 9//15 10//15
f 15//16 11//16 12//16
f 4//17 16//17 15//17
f 13//18 1//18 14//18
f 6//19 10//19 9//19
f 11//20 7//20 12//20
f 23//21 22//21 24//21
f 29//22 32//22 31//22
f 27//23 26//23 28//23
f 17//24 20//24 19//24
f 27//13 38//13 37//13
f 17//14 33//14 18//14
f 22//25 19//25 20//25
f 36//12 23//12 24//12
f 31//26 26//26 25//26
f 29//11 39//11 30//11
f 70//5 78//5 80//5
f 44//2 45//2 41//2
f 53//9 40//9 56//9
f 39//2 72//2 36//2
f 61//3 79//3 58//3
f 74//7 66//7 68//7
f 62//1 44//1 41//1
f 33//6 76//6 38//6
f 60//4 50//4 51//4
f 57//9 63//9 62//9
f 54//6 51//6 50//6
f 80//8 68//8 70//8
f 59//10 67//10 64//10
f 41//11 46//11 42//11
f 44//12 47//12 48//12
f 50//13 53//13 54//13
f 51//14 56//14 52//14
f 57//26 61//26 58//26
f 59//25 63//25 60//25
f 64//21 44//21 63//21
f 61//22 41//22 42//22
f 58//23 50//23 57//23
f 59//24 51//24 52//24
f 71//17 70//17 69//17
f 80//18 77//18 79//18
f 75//19 74//19 73//19
f 68//20 65//20 67//20
f 38//13 75//13 37//13
f 65//14 33//14 34//14
f 67//16 70//16 68//16
f 71//12 36//12 72//12
f 74//15 79//15 73//15
f 77//11 39//11 40//11
f 37//9 46//9 34//9
f 22//1 32//1 30//1
f 4//2 1//2 45//2
f 24//2 30//2 39//2
f 53//3 40//3 5//3
f 29//3 31//3 5//3
f 25//3 27//3 2//3
f 37//3 46//3 2//3
f 27//3 37//3 2//3
f 5//3 40//3 29//3
f 10//3 5//3 31//3
f 25//3 2//3 13//3
f 13//3 10//3 31//3
f 26//4 20//4 18//4
f 4//5 15//5 14//5
f 28//6 18//6 33//6
f 6//7 9//7 12//7
f 15//8 12//8 9//8
f 7//6 55//6 54//6
f 32//9 22//9 20//9
f 47//10 34//10 3//10
f 17//10 19//10 3//10
f 21//10 23//10 8//10
f 35//10 56//10 8//10
f 23//10 35//10 8//10
f 3//10 34//10 17//10
f 16//10 3//10 19//10
f 21//10 8//10 11//10
f 11//10 16//10 19//10
f 46//11 45//11 1//11
f 4//12 48//12 47//12
f 6//13 54//13 53//13
f 56//14 55//14 7//14
f 13//15 14//15 9//15
f 15//16 16//16 11//16
f 4//17 3//17 16//17
f 13//18 2//18 1//18
f 6//19 5//19 10//19
f 11//20 8//20 7//20
f 23//21 21//21 22//21
f 29//22 30//22 32//22
f 27//23 25//23 26//23
f 17//24 18//24 20//24
f 27//13 28//13 38//13
f 17//14 34//14 33//14
f 22//25 21//25 19//25
f 36//12 35//12 23//12
f 31//26 32//26 26//26
f 29//11 40//11 39//11
f 70//5 72//5 78//5
f 44//2 48//2 45//2
f 36//9 35//9 40//9
f 56//9 55//9 54//9
f 54//9 53//9 56//9
f 40//9 39//9 36//9
f 35//9 56//9 40//9
f 39//2 78//2 72//2
f 77//3 40//3 49//3
f 40//3 53//3 49//3
f 73//3 79//3 61//3
f 37//3 75//3 42//3
f 42//3 46//3 37//3
f 42//3 75//3 73//3
f 77//3 49//3 79//3
f 61//3 42//3 73//3
f 49//3 58//3 79//3
f 74//7 76//7 66//7
f 62//1 63//1 44//1
f 33//6 66//6 76//6
f 60//4 57//4 50//4
f 57//9 60//9 63//9
f 54//6 55//6 51//6
f 80//8 74//8 68//8
f 65//10 34//10 43//10
f 34//10 47//10 43//10
f 69//10 67//10 59//10
f 35//10 71//10 52//10
f 52//10 56//10 35//10
f 52//10 71//10 69//10
f 65//10 43//10 67//10
f 59//10 52//10 69//10
f 43//10 64//10 67//10
f 41//11 45//11 46//11
f 44//12 43//12 47//12
f 50//13 49//13 53//13
f 51//14 55//14 56//14
f 57//26 62//26 61//26
f 59//25 64//25 63//25
f 64//21 43//21 44//21
f 61//22 62//22 41//22
f 58//23 49//23 50//23
f 59//24 60//24 51//24
f 71//17 72//17 70//17
f 80//18 78//18 77//18
f 75//19 76//19 74//19
f 68//20 66//20 65//20
f 38//13 76//13 75//13
f 65//14 66//14 33//14
f 67//16 69//16 70//16
f 71//12 35//12 36//12
f 74//15 80//15 79//15
f 77//11 78//11 39//11
f 48//9 47//9 46//9
f 34//9 33//9 38//9
f 38//9 37//9 34//9
f 46//9 45//9 48//9
f 47//9 34//9 46//9
