# Blender v2.79 (sub 0) OBJ File: 'Fireball.blend'
# www.blender.org
mtllib Fireball.mtl
o Icosphere
v -0.000000 -0.200000 -0.000000
v 0.144721 -0.089444 0.105145
v -0.055278 -0.089444 0.170130
v -0.178885 -0.089443 -0.000000
v -0.055278 -0.089444 -0.170130
v 0.144721 -0.089444 -0.105145
v 0.055278 0.089444 0.170130
v -0.144721 0.089444 0.105145
v -0.144721 0.089444 -0.105145
v 0.055278 0.089444 -0.170130
v 0.178885 0.089443 -0.000000
v -0.000000 0.200000 -0.000000
v -0.032491 -0.170131 0.099999
v 0.085065 -0.170131 0.061802
v 0.052574 -0.105148 0.161802
v 0.170130 -0.105147 -0.000000
v 0.085065 -0.170131 -0.061802
v -0.105146 -0.170130 -0.000000
v -0.137638 -0.105147 0.099999
v -0.032491 -0.170131 -0.099999
v -0.137638 -0.105147 -0.099999
v 0.052574 -0.105148 -0.161802
v 0.190212 0.000000 0.061803
v 0.190212 0.000000 -0.061803
v -0.000000 0.000000 0.200000
v 0.117557 0.000000 0.161803
v -0.190212 0.000000 0.061803
v -0.117557 0.000000 0.161803
v -0.117557 0.000000 -0.161803
v -0.190212 0.000000 -0.061803
v 0.117557 0.000000 -0.161803
v -0.000000 0.000000 -0.200000
v 0.137638 0.105147 0.099999
v -0.052574 0.105148 0.161802
v -0.170130 0.105147 -0.000000
v -0.052574 0.105148 -0.161802
v 0.137638 0.105147 -0.099999
v 0.032491 0.170131 0.099999
v 0.105146 0.170130 -0.000000
v -0.085065 0.170131 0.061802
v -0.085065 0.170131 -0.061802
v 0.032491 0.170131 -0.099999
vt 0.242199 0.837158
vt 0.191773 0.685798
vt 0.312433 0.716459
vt 0.130453 0.558414
vt 0.057183 0.685797
vt 0.318098 0.899251
vt 0.200939 0.981559
vt 0.122866 0.849638
vt 0.028979 0.552617
vt 0.448110 0.428670
vt 0.412069 0.515736
vt 0.348454 0.362062
vt 0.648773 0.267089
vt 0.554314 0.362064
vt 0.554314 0.172113
vt 0.757946 0.160696
vt 0.877524 0.154168
vt 0.804464 0.314475
vt 0.112878 0.428671
vt 0.013223 0.362066
vt 0.101134 0.267089
vt 0.800157 0.979009
vt 0.723671 0.855355
vt 0.858176 0.848651
vt 0.436366 0.267087
vt 0.657242 0.113417
vt 0.684666 0.277822
vt 0.219082 0.362063
vt 0.904695 0.694872
vt 0.785117 0.688344
vt 0.859762 0.552617
vt 0.649419 0.837156
vt 0.596291 0.981559
vt 0.539774 0.849638
vt 0.532187 0.558414
vt 0.605457 0.685797
vt 0.470868 0.685798
vt 0.112878 0.105506
vt 0.076837 0.018441
vt 0.204064 0.018441
vt 0.313541 0.267087
vt 0.219082 0.172112
vt 0.322010 0.113415
vt 0.344542 0.899251
vt 0.350208 0.716460
vt 0.420441 0.837158
vt 0.415890 0.552618
vt 0.461702 0.981559
vt 0.978955 0.629037
vt 0.725258 0.559322
vt 0.675862 0.706280
vt 0.013222 0.172115
vt 0.746112 0.444833
vt 0.862483 0.444833
vt 0.633661 0.552617
vt 0.539295 0.018441
vt 0.448110 0.105505
vt 0.348455 0.172110
vt 0.977975 0.811998
vt 0.683686 0.094861
vt 0.938969 0.321179
vt 0.986778 0.172103
vt 0.916529 0.979009
vt 0.322010 0.420759
vt 0.204063 0.515736
vt 0.066349 0.981559
vt 0.013222 0.837156
vt 0.802878 0.018441
vt 0.937382 0.025146
vt 0.657242 0.420761
vt 0.539296 0.515735
vt 0.246751 0.552617
vn 0.0000 -1.0000 0.0000
vn 0.4253 -0.8506 0.3090
vn -0.1625 -0.8506 0.5000
vn 0.7236 -0.4472 0.5257
vn 0.8506 -0.5257 0.0000
vn -0.5257 -0.8506 0.0000
vn -0.1625 -0.8506 -0.5000
vn 0.4253 -0.8506 -0.3090
vn 0.9510 0.0000 0.3090
vn -0.2764 -0.4472 0.8506
vn 0.2629 -0.5257 0.8090
vn 0.0000 0.0000 1.0000
vn -0.8944 -0.4472 0.0000
vn -0.6882 -0.5257 0.5000
vn -0.9510 0.0000 0.3090
vn -0.2764 -0.4472 -0.8506
vn -0.6882 -0.5257 -0.5000
vn -0.5878 0.0000 -0.8090
vn 0.7236 -0.4472 -0.5257
vn 0.2629 -0.5257 -0.8090
vn 0.5878 0.0000 -0.8090
vn 0.5878 0.0000 0.8090
vn -0.5878 0.0000 0.8090
vn -0.9510 0.0000 -0.3090
vn 0.0000 0.0000 -1.0000
vn 0.9510 0.0000 -0.3090
vn 0.2764 0.4472 0.8506
vn 0.6882 0.5257 0.5000
vn 0.1625 0.8506 0.5000
vn -0.7236 0.4472 0.5257
vn -0.2629 0.5257 0.8090
vn -0.4253 0.8506 0.3090
vn -0.7236 0.4472 -0.5257
vn -0.8506 0.5257 0.0000
vn -0.4253 0.8506 -0.3090
vn 0.2764 0.4472 -0.8506
vn -0.2629 0.5257 -0.8090
vn 0.1625 0.8506 -0.5000
vn 0.8944 0.4472 0.0000
vn 0.6882 0.5257 -0.5000
vn 0.5257 0.8506 0.0000
vn 0.0000 1.0000 0.0000
usemtl Material.001
s 1
f 1/1/1 14/2/2 13/3/3
f 2/4/4 14/2/2 16/5/5
f 1/1/1 13/3/3 18/6/6
f 1/1/1 18/6/6 20/7/7
f 1/1/1 20/7/7 17/8/8
f 2/4/4 16/5/5 23/9/9
f 3/10/10 15/11/11 25/12/12
f 4/13/13 19/14/14 27/15/15
f 5/16/16 21/17/17 29/18/18
f 6/19/19 22/20/20 31/21/21
f 2/22/4 23/23/9 26/24/22
f 3/10/10 25/12/12 28/25/23
f 4/13/13 27/15/15 30/26/24
f 5/16/16 29/18/18 32/27/25
f 6/19/19 31/21/21 24/28/26
f 7/29/27 33/30/28 38/31/29
f 8/32/30 34/33/31 40/34/32
f 9/35/33 35/36/34 41/37/35
f 10/38/36 36/39/37 42/40/38
f 11/41/39 37/42/40 39/43/41
f 39/44/41 42/45/38 12/46/42
f 39/43/41 37/42/40 42/40/38
f 37/42/40 10/38/36 42/40/38
f 42/45/38 41/37/35 12/46/42
f 42/45/38 36/47/37 41/37/35
f 36/47/37 9/35/33 41/37/35
f 41/37/35 40/34/32 12/46/42
f 41/37/35 35/36/34 40/34/32
f 35/36/34 8/32/30 40/34/32
f 40/34/32 38/48/29 12/46/42
f 40/34/32 34/33/31 38/48/29
f 34/49/31 7/29/27 38/31/29
f 38/48/29 39/44/41 12/46/42
f 38/31/29 33/30/28 39/50/41
f 33/30/28 11/51/39 39/50/41
f 24/28/26 37/42/40 11/41/39
f 24/28/26 31/21/21 37/42/40
f 31/21/21 10/38/36 37/42/40
f 32/52/25 36/39/37 10/38/36
f 32/27/25 29/18/18 36/53/37
f 29/18/18 9/54/33 36/53/37
f 30/55/24 35/36/34 9/35/33
f 30/26/24 27/15/15 35/56/34
f 27/15/15 8/57/30 35/56/34
f 28/25/23 34/58/31 8/57/30
f 28/25/23 25/12/12 34/58/31
f 25/59/12 7/29/27 34/49/31
f 26/24/22 33/30/28 7/29/27
f 26/24/22 23/23/9 33/30/28
f 23/23/9 11/51/39 33/30/28
f 31/21/21 32/52/25 10/38/36
f 31/21/21 22/20/20 32/52/25
f 22/60/20 5/16/16 32/27/25
f 29/18/18 30/61/24 9/54/33
f 29/18/18 21/17/17 30/61/24
f 21/17/17 4/62/13 30/61/24
f 27/15/15 28/25/23 8/57/30
f 27/15/15 19/14/14 28/25/23
f 19/14/14 3/10/10 28/25/23
f 25/59/12 26/24/22 7/29/27
f 25/59/12 15/63/11 26/24/22
f 15/63/11 2/22/4 26/24/22
f 23/64/9 24/28/26 11/41/39
f 23/64/9 16/65/5 24/28/26
f 16/65/5 6/19/19 24/28/26
f 17/8/8 22/66/20 6/67/19
f 17/8/8 20/7/7 22/66/20
f 20/68/7 5/16/16 22/60/20
f 20/68/7 21/17/17 5/16/16
f 20/68/7 18/69/6 21/17/17
f 18/69/6 4/62/13 21/17/17
f 18/70/6 19/14/14 4/13/13
f 18/70/6 13/71/3 19/14/14
f 13/71/3 3/10/10 19/14/14
f 16/5/5 17/8/8 6/67/19
f 16/5/5 14/2/2 17/8/8
f 14/2/2 1/1/1 17/8/8
f 13/71/3 15/11/11 3/10/10
f 13/3/3 14/2/2 15/72/11
f 14/2/2 2/4/4 15/72/11
