# Blender v2.79 (sub 0) OBJ File: 'Gate.blend'
# www.blender.org
mtllib Gate.mtl
o Gate_Cube.002
v -2.000000 5.500000 0.300000
v -2.000000 6.500000 0.300000
v -2.000000 5.500000 -0.300000
v -2.000000 6.500000 -0.300000
v 2.000000 5.500000 0.300000
v 2.000000 6.500000 0.300000
v 2.000000 5.500000 -0.300000
v 2.000000 6.500000 -0.300000
v -2.000000 3.900000 0.180000
v -2.000000 4.100000 0.180000
v -2.000000 3.900000 -0.180000
v -2.000000 4.100000 -0.180000
v 2.000000 3.900000 0.180000
v 2.000000 4.100000 0.180000
v 2.000000 3.900000 -0.180000
v 2.000000 4.100000 -0.180000
v -2.000000 2.900000 0.180000
v -2.000000 3.100000 0.180000
v -2.000000 2.900000 -0.180000
v -2.000000 3.100000 -0.180000
v 2.000000 2.900000 0.180000
v 2.000000 3.100000 0.180000
v 2.000000 2.900000 -0.180000
v 2.000000 3.100000 -0.180000
v -2.000000 1.900000 0.180000
v -2.000000 2.100000 0.180000
v -2.000000 1.900000 -0.180000
v -2.000000 2.100000 -0.180000
v 2.000000 1.900000 0.180000
v 2.000000 2.100000 0.180000
v 2.000000 1.900000 -0.180000
v 2.000000 2.100000 -0.180000
v -2.000000 0.900000 0.180000
v -2.000000 1.100000 0.180000
v -2.000000 0.900000 -0.180000
v -2.000000 1.100000 -0.180000
v 2.000000 0.900000 0.180000
v 2.000000 1.100000 0.180000
v 2.000000 0.900000 -0.180000
v 2.000000 1.100000 -0.180000
v -2.000000 4.900000 0.180000
v -2.000000 5.100000 0.180000
v -2.000000 4.900000 -0.180000
v -2.000000 5.100000 -0.180000
v 2.000000 4.900000 0.180000
v 2.000000 5.100000 0.180000
v 2.000000 4.900000 -0.180000
v 2.000000 5.100000 -0.180000
v -1.800000 0.098392 -0.071967
v -1.800000 5.855773 -0.071967
v -1.743734 0.098392 -0.044871
v -1.743734 5.855773 -0.044871
v -1.729837 0.098392 0.016014
v -1.729837 5.855773 0.016014
v -1.768775 0.098392 0.064840
v -1.768775 5.855773 0.064840
v -1.831226 0.098392 0.064840
v -1.831226 5.855773 0.064840
v -1.870163 0.098392 0.016014
v -1.870163 5.855773 0.016014
v -1.856266 0.098392 -0.044871
v -1.856266 5.855773 -0.044871
v -1.800001 -0.116758 0.000000
v -1.350000 0.098392 -0.071967
v -1.350000 5.855773 -0.071967
v -1.293734 0.098392 -0.044871
v -1.293734 5.855773 -0.044871
v -1.279837 0.098392 0.016014
v -1.279837 5.855773 0.016014
v -1.318775 0.098392 0.064840
v -1.318775 5.855773 0.064840
v -1.381225 0.098392 0.064840
v -1.381225 5.855773 0.064840
v -1.420163 0.098392 0.016014
v -1.420163 5.855773 0.016014
v -1.406266 0.098392 -0.044871
v -1.406266 5.855773 -0.044871
v -1.350001 -0.116758 0.000000
v -0.900000 0.098392 -0.071967
v -0.900000 5.855773 -0.071967
v -0.843734 0.098392 -0.044871
v -0.843734 5.855773 -0.044871
v -0.829837 0.098392 0.016014
v -0.829837 5.855773 0.016014
v -0.868775 0.098392 0.064840
v -0.868775 5.855773 0.064840
v -0.931225 0.098392 0.064840
v -0.931225 5.855773 0.064840
v -0.970163 0.098392 0.016014
v -0.970163 5.855773 0.016014
v -0.956266 0.098392 -0.044871
v -0.956266 5.855773 -0.044871
v -0.900001 -0.116758 0.000000
v -0.450000 0.098392 -0.071967
v -0.450000 5.855773 -0.071967
v -0.393734 0.098392 -0.044871
v -0.393734 5.855773 -0.044871
v -0.379837 0.098392 0.016014
v -0.379837 5.855773 0.016014
v -0.418775 0.098392 0.064840
v -0.418775 5.855773 0.064840
v -0.481225 0.098392 0.064840
v -0.481225 5.855773 0.064840
v -0.520163 0.098392 0.016014
v -0.520163 5.855773 0.016014
v -0.506266 0.098392 -0.044871
v -0.506266 5.855773 -0.044871
v -0.450001 -0.116758 0.000000
v 0.000000 0.098392 -0.071967
v 0.000000 5.855773 -0.071967
v 0.056266 0.098392 -0.044871
v 0.056266 5.855773 -0.044871
v 0.070163 0.098392 0.016014
v 0.070163 5.855773 0.016014
v 0.031225 0.098392 0.064840
v 0.031225 5.855773 0.064840
v -0.031225 0.098392 0.064840
v -0.031225 5.855773 0.064840
v -0.070163 0.098392 0.016014
v -0.070163 5.855773 0.016014
v -0.056266 0.098392 -0.044871
v -0.056266 5.855773 -0.044871
v -0.000001 -0.116758 0.000000
v 0.450000 0.098392 -0.071967
v 0.450000 5.855773 -0.071967
v 0.506266 0.098392 -0.044871
v 0.506266 5.855773 -0.044871
v 0.520163 0.098392 0.016014
v 0.520163 5.855773 0.016014
v 0.481225 0.098392 0.064840
v 0.481225 5.855773 0.064840
v 0.418775 0.098392 0.064840
v 0.418775 5.855773 0.064840
v 0.379837 0.098392 0.016014
v 0.379837 5.855773 0.016014
v 0.393734 0.098392 -0.044871
v 0.393734 5.855773 -0.044871
v 0.449999 -0.116758 0.000000
v 0.900000 0.098392 -0.071967
v 0.900000 5.855773 -0.071967
v 0.956266 0.098392 -0.044871
v 0.956266 5.855773 -0.044871
v 0.970163 0.098392 0.016014
v 0.970163 5.855773 0.016014
v 0.931226 0.098392 0.064840
v 0.931226 5.855773 0.064840
v 0.868775 0.098392 0.064840
v 0.868775 5.855773 0.064840
v 0.829837 0.098392 0.016014
v 0.829837 5.855773 0.016014
v 0.843734 0.098392 -0.044871
v 0.843734 5.855773 -0.044871
v 0.899999 -0.116758 0.000000
v 1.350000 0.098392 -0.071967
v 1.350000 5.855773 -0.071967
v 1.406266 0.098392 -0.044871
v 1.406266 5.855773 -0.044871
v 1.420163 0.098392 0.016014
v 1.420163 5.855773 0.016014
v 1.381225 0.098392 0.064840
v 1.381225 5.855773 0.064840
v 1.318775 0.098392 0.064840
v 1.318775 5.855773 0.064840
v 1.279837 0.098392 0.016014
v 1.279837 5.855773 0.016014
v 1.293734 0.098392 -0.044871
v 1.293734 5.855773 -0.044871
v 1.349999 -0.116758 0.000000
v 1.800000 0.098392 -0.071967
v 1.800000 5.855773 -0.071967
v 1.856266 0.098392 -0.044871
v 1.856266 5.855773 -0.044871
v 1.870163 0.098392 0.016014
v 1.870163 5.855773 0.016014
v 1.831225 0.098392 0.064840
v 1.831225 5.855773 0.064840
v 1.768775 0.098392 0.064840
v 1.768775 5.855773 0.064840
v 1.729837 0.098392 0.016014
v 1.729837 5.855773 0.016014
v 1.743734 0.098392 -0.044871
v 1.743734 5.855773 -0.044871
v 1.799999 -0.116758 0.000000
vt 0.736913 0.599642
vt 0.736913 0.697245
vt 0.686433 0.698324
vt 0.686433 0.600722
vt 0.100175 0.005892
vt 0.184706 0.005892
vt 0.184706 0.398676
vt 0.100175 0.398676
vt 0.736913 0.711186
vt 0.736913 0.808788
vt 0.686433 0.807709
vt 0.686433 0.710107
vt 0.005120 0.005892
vt 0.089936 0.005892
vt 0.089936 0.398676
vt 0.005120 0.398676
vt 0.194946 0.398676
vt 0.194946 0.005892
vt 0.246142 0.005892
vt 0.246142 0.398676
vt 0.307578 0.005892
vt 0.307578 0.398676
vt 0.256382 0.398676
vt 0.256382 0.005892
vt 0.552705 0.850251
vt 0.535745 0.849888
vt 0.535745 0.815027
vt 0.552705 0.815389
vt 0.658810 0.410459
vt 0.675716 0.410459
vt 0.675716 0.803243
vt 0.658810 0.803243
vt 0.471097 0.849888
vt 0.454138 0.850251
vt 0.454138 0.815390
vt 0.471097 0.815027
vt 0.508543 0.410459
vt 0.525506 0.410459
vt 0.525506 0.803243
vt 0.508543 0.803243
vt 0.317818 0.398676
vt 0.317818 0.005892
vt 0.348536 0.005892
vt 0.348536 0.398676
vt 0.512365 0.005892
vt 0.512365 0.398676
vt 0.481647 0.398676
vt 0.481647 0.005892
vt 0.617906 0.815027
vt 0.634865 0.815390
vt 0.634865 0.850251
vt 0.617906 0.849888
vt 0.535745 0.410459
vt 0.552652 0.410459
vt 0.552652 0.803243
vt 0.535746 0.803243
vt 0.426935 0.815390
vt 0.443894 0.815027
vt 0.443894 0.849888
vt 0.426935 0.850251
vt 0.399732 0.410459
vt 0.416696 0.410459
vt 0.416696 0.803243
vt 0.399732 0.803243
vt 0.358775 0.398676
vt 0.358775 0.005892
vt 0.389493 0.005892
vt 0.389493 0.398676
vt 0.553322 0.005892
vt 0.553322 0.398676
vt 0.522604 0.398676
vt 0.522604 0.005892
vt 0.579904 0.850251
vt 0.562944 0.849888
vt 0.562944 0.815027
vt 0.579904 0.815390
vt 0.621425 0.803243
vt 0.604519 0.803243
vt 0.604519 0.410459
vt 0.621425 0.410459
vt 0.005120 0.815390
vt 0.022079 0.815027
vt 0.022079 0.849888
vt 0.005120 0.850251
vt 0.426935 0.410459
vt 0.443898 0.410459
vt 0.443898 0.803243
vt 0.426935 0.803243
vt 0.399732 0.398676
vt 0.399732 0.005892
vt 0.430450 0.005892
vt 0.430450 0.398676
vt 0.594280 0.005892
vt 0.594280 0.398676
vt 0.563562 0.398676
vt 0.563562 0.005892
vt 0.508543 0.815027
vt 0.525502 0.815390
vt 0.525502 0.850251
vt 0.508543 0.849888
vt 0.580468 0.803243
vt 0.563562 0.803243
vt 0.563562 0.410459
vt 0.580468 0.410459
vt 0.590707 0.815390
vt 0.607666 0.815027
vt 0.607666 0.849888
vt 0.590707 0.850251
vt 0.481340 0.410459
vt 0.498304 0.410459
vt 0.498304 0.803243
vt 0.481340 0.803243
vt 0.440690 0.398676
vt 0.440690 0.005892
vt 0.471408 0.005892
vt 0.471408 0.398676
vt 0.635237 0.005892
vt 0.635237 0.398676
vt 0.604519 0.398676
vt 0.604519 0.005892
vt 0.481340 0.815027
vt 0.498300 0.815389
vt 0.498300 0.850251
vt 0.481340 0.849888
vt 0.631664 0.410459
vt 0.648571 0.410459
vt 0.648571 0.803243
vt 0.631664 0.803243
vt 0.399732 0.815390
vt 0.416692 0.815027
vt 0.416692 0.849888
vt 0.399732 0.850251
vt 0.454138 0.410459
vt 0.471101 0.410459
vt 0.471101 0.803243
vt 0.454138 0.803243
vt 0.005120 0.803243
vt 0.005120 0.410459
vt 0.035838 0.410459
vt 0.035838 0.803243
vt 0.676194 0.005892
vt 0.676194 0.398676
vt 0.645476 0.398676
vt 0.645476 0.005892
vt 0.711076 0.027785
vt 0.711076 0.587859
vt 0.706275 0.587496
vt 0.706275 0.027422
vt 0.226970 0.432137
vt 0.226970 0.994070
vt 0.221650 0.994108
vt 0.221650 0.432176
vt 0.218096 0.993606
vt 0.218096 0.431674
vt 0.917040 0.027588
vt 0.917040 0.589553
vt 0.911711 0.589553
vt 0.911711 0.027588
vt 0.150517 0.431674
vt 0.150517 0.993606
vt 0.146963 0.994108
vt 0.146963 0.432176
vt 0.710658 0.858550
vt 0.708346 0.853025
vt 0.710658 0.847499
vt 0.715854 0.846135
vt 0.720020 0.849958
vt 0.720020 0.856091
vt 0.715854 0.859914
vt 0.141643 0.994070
vt 0.141643 0.432137
vt 0.715877 0.027422
vt 0.715877 0.587496
vt 0.711076 0.005892
vt 0.223996 0.410459
vt 0.144618 0.410459
vt 0.914375 0.005892
vt 0.830125 0.027785
vt 0.830125 0.587859
vt 0.825324 0.587496
vt 0.825324 0.027422
vt 0.345805 0.432137
vt 0.345805 0.994070
vt 0.340485 0.994108
vt 0.340485 0.432176
vt 0.336931 0.993606
vt 0.336931 0.431674
vt 0.885904 0.027588
vt 0.885904 0.589553
vt 0.880575 0.589553
vt 0.880575 0.027588
vt 0.112291 0.431674
vt 0.112291 0.993606
vt 0.108737 0.994108
vt 0.108737 0.432176
vt 0.698107 0.824395
vt 0.698107 0.830528
vt 0.693941 0.834351
vt 0.688746 0.832987
vt 0.686433 0.827462
vt 0.688746 0.821936
vt 0.693941 0.820572
vt 0.103417 0.994070
vt 0.103417 0.432137
vt 0.834926 0.027422
vt 0.834926 0.587496
vt 0.830125 0.005892
vt 0.342830 0.410459
vt 0.106391 0.410459
vt 0.883239 0.005892
vt 0.849966 0.027785
vt 0.849966 0.587859
vt 0.845165 0.587496
vt 0.845165 0.027422
vt 0.326692 0.432137
vt 0.326692 0.994070
vt 0.321371 0.994108
vt 0.321371 0.432176
vt 0.317818 0.993606
vt 0.317818 0.431674
vt 0.979312 0.027588
vt 0.979312 0.589553
vt 0.973984 0.589553
vt 0.973984 0.027588
vt 0.188744 0.431674
vt 0.188744 0.993606
vt 0.185190 0.994108
vt 0.185190 0.432176
vt 0.754660 0.613422
vt 0.749464 0.612057
vt 0.747152 0.606532
vt 0.749464 0.601007
vt 0.754660 0.599642
vt 0.758826 0.603466
vt 0.758826 0.609598
vt 0.179870 0.994070
vt 0.179870 0.432137
vt 0.854767 0.027422
vt 0.854767 0.587496
vt 0.849966 0.005892
vt 0.323717 0.410459
vt 0.182844 0.410459
vt 0.976648 0.005892
vt 0.810283 0.027785
vt 0.810283 0.587859
vt 0.805482 0.587496
vt 0.805482 0.027422
vt 0.303482 0.432137
vt 0.303482 0.994070
vt 0.298162 0.994108
vt 0.298162 0.432176
vt 0.294608 0.993606
vt 0.294608 0.431674
vt 0.932608 0.027588
vt 0.932608 0.589553
vt 0.927279 0.589553
vt 0.927279 0.027588
vt 0.054951 0.431674
vt 0.054951 0.993606
vt 0.051397 0.994108
vt 0.051397 0.432176
vt 0.686433 0.853025
vt 0.688746 0.847499
vt 0.693941 0.846135
vt 0.698107 0.849958
vt 0.698107 0.856091
vt 0.693941 0.859914
vt 0.688746 0.858550
vt 0.046077 0.994070
vt 0.046077 0.432137
vt 0.815084 0.027422
vt 0.815084 0.587496
vt 0.810283 0.005892
vt 0.300508 0.410459
vt 0.049051 0.410459
vt 0.929943 0.005892
vt 0.790442 0.027785
vt 0.790442 0.587859
vt 0.785641 0.587496
vt 0.785641 0.027422
vt 0.284369 0.432137
vt 0.284369 0.994070
vt 0.279049 0.994108
vt 0.279049 0.432176
vt 0.275495 0.993606
vt 0.275495 0.431674
vt 0.948176 0.027588
vt 0.948176 0.589553
vt 0.942847 0.589553
vt 0.942847 0.027588
vt 0.093177 0.431674
vt 0.093177 0.993606
vt 0.089624 0.994108
vt 0.089624 0.432176
vt 0.737766 0.834351
vt 0.732571 0.832987
vt 0.730259 0.827462
vt 0.732571 0.821936
vt 0.737766 0.820572
vt 0.741932 0.824395
vt 0.741932 0.830528
vt 0.084304 0.994070
vt 0.084303 0.432137
vt 0.795243 0.027422
vt 0.795243 0.587496
vt 0.790442 0.005892
vt 0.281395 0.410459
vt 0.087278 0.410459
vt 0.945512 0.005892
vt 0.691235 0.565966
vt 0.691235 0.005892
vt 0.696036 0.006255
vt 0.696036 0.566329
vt 0.265256 0.432137
vt 0.265256 0.994070
vt 0.259935 0.994108
vt 0.259935 0.432176
vt 0.256382 0.993606
vt 0.256382 0.431674
vt 0.963744 0.027588
vt 0.963744 0.589553
vt 0.958415 0.589553
vt 0.958415 0.027588
vt 0.131404 0.431674
vt 0.131404 0.993606
vt 0.127850 0.994108
vt 0.127850 0.432176
vt 0.645104 0.847480
vt 0.647417 0.841955
vt 0.652612 0.840590
vt 0.656778 0.844413
vt 0.656778 0.850546
vt 0.652612 0.854369
vt 0.647417 0.853005
vt 0.122530 0.994070
vt 0.122530 0.432137
vt 0.686434 0.566329
vt 0.686433 0.006255
vt 0.691235 0.587859
vt 0.262281 0.410459
vt 0.125504 0.410459
vt 0.961080 0.005892
vt 0.770600 0.027785
vt 0.770600 0.587859
vt 0.765799 0.587496
vt 0.765799 0.027422
vt 0.207857 0.432137
vt 0.207857 0.994070
vt 0.202537 0.994108
vt 0.202537 0.432176
vt 0.198983 0.993606
vt 0.198983 0.431674
vt 0.870335 0.027588
vt 0.870335 0.589553
vt 0.865007 0.589553
vt 0.865007 0.027588
vt 0.237210 0.972894
vt 0.237210 0.410961
vt 0.240763 0.410459
vt 0.240763 0.972392
vt 0.708346 0.827462
vt 0.710658 0.821936
vt 0.715854 0.820572
vt 0.720020 0.824395
vt 0.720020 0.830528
vt 0.715854 0.834351
vt 0.710658 0.832987
vt 0.246083 0.410498
vt 0.246083 0.972430
vt 0.775402 0.027422
vt 0.775402 0.587496
vt 0.770600 0.005892
vt 0.204883 0.410459
vt 0.243109 0.994108
vt 0.867671 0.005892
vt 0.730918 0.027785
vt 0.730918 0.587859
vt 0.726116 0.587496
vt 0.726116 0.027422
vt 0.364918 0.432137
vt 0.364918 0.994070
vt 0.359598 0.994108
vt 0.359598 0.432176
vt 0.356044 0.993606
vt 0.356044 0.431674
vt 0.901472 0.027588
vt 0.901472 0.589553
vt 0.896143 0.589553
vt 0.896143 0.027588
vt 0.169630 0.431674
vt 0.169630 0.993606
vt 0.166077 0.994108
vt 0.166077 0.432176
vt 0.652612 0.815027
vt 0.656778 0.818850
vt 0.656778 0.824983
vt 0.652612 0.828806
vt 0.647417 0.827442
vt 0.645104 0.821917
vt 0.647417 0.816392
vt 0.160757 0.994070
vt 0.160757 0.432137
vt 0.735719 0.027422
vt 0.735719 0.587496
vt 0.730918 0.005892
vt 0.361944 0.410459
vt 0.163731 0.410459
vt 0.898807 0.005892
vt 0.750759 0.027785
vt 0.750759 0.587859
vt 0.745958 0.587496
vt 0.745958 0.027422
vt 0.384031 0.432137
vt 0.384031 0.994070
vt 0.378711 0.994108
vt 0.378711 0.432176
vt 0.375157 0.993606
vt 0.375157 0.431674
vt 0.994880 0.027588
vt 0.994880 0.589553
vt 0.989552 0.589553
vt 0.989552 0.027588
vt 0.074064 0.431674
vt 0.074064 0.993606
vt 0.070510 0.994108
vt 0.070510 0.432176
vt 0.730259 0.853025
vt 0.732571 0.847499
vt 0.737766 0.846135
vt 0.741932 0.849958
vt 0.741932 0.856091
vt 0.737766 0.859914
vt 0.732571 0.858550
vt 0.065190 0.994070
vt 0.065190 0.432137
vt 0.755560 0.027422
vt 0.755560 0.587496
vt 0.750759 0.005892
vt 0.381057 0.410459
vt 0.068165 0.410459
vt 0.992216 0.005892
vn -1.0000 0.0000 0.0000
vn 0.0000 0.0000 -1.0000
vn 1.0000 0.0000 0.0000
vn 0.0000 0.0000 1.0000
vn 0.0000 -1.0000 0.0000
vn 0.0000 1.0000 0.0000
vn 0.0000 -0.1541 -0.9881
vn 0.0000 0.6212 -0.7836
vn 0.6127 0.6212 -0.4886
vn 0.7725 -0.1541 -0.6160
vn 0.7640 0.6212 0.1744
vn 0.9633 -0.1541 0.2199
vn 0.3400 0.6212 0.7060
vn 0.4287 -0.1541 0.8902
vn -0.3400 0.6212 0.7060
vn -0.4287 -0.1541 0.8902
vn -0.7640 0.6212 0.1744
vn -0.9633 -0.1541 0.2199
vn -0.6127 0.6212 -0.4886
vn -0.7725 -0.1541 -0.6160
usemtl Material.005
s off
f 1/1/1 2/2/1 4/3/1 3/4/1
f 3/5/2 4/6/2 8/7/2 7/8/2
f 7/9/3 8/10/3 6/11/3 5/12/3
f 5/13/4 6/14/4 2/15/4 1/16/4
f 3/17/5 7/18/5 5/19/5 1/20/5
f 8/21/6 4/22/6 2/23/6 6/24/6
f 9/25/1 10/26/1 12/27/1 11/28/1
f 11/29/2 12/30/2 16/31/2 15/32/2
f 15/33/3 16/34/3 14/35/3 13/36/3
f 13/37/4 14/38/4 10/39/4 9/40/4
f 11/41/5 15/42/5 13/43/5 9/44/5
f 16/45/6 12/46/6 10/47/6 14/48/6
f 17/49/1 18/50/1 20/51/1 19/52/1
f 19/53/2 20/54/2 24/55/2 23/56/2
f 23/57/3 24/58/3 22/59/3 21/60/3
f 21/61/4 22/62/4 18/63/4 17/64/4
f 19/65/5 23/66/5 21/67/5 17/68/5
f 24/69/6 20/70/6 18/71/6 22/72/6
f 25/73/1 26/74/1 28/75/1 27/76/1
f 27/77/2 28/78/2 32/79/2 31/80/2
f 31/81/3 32/82/3 30/83/3 29/84/3
f 29/85/4 30/86/4 26/87/4 25/88/4
f 27/89/5 31/90/5 29/91/5 25/92/5
f 32/93/6 28/94/6 26/95/6 30/96/6
f 33/97/1 34/98/1 36/99/1 35/100/1
f 35/101/2 36/102/2 40/103/2 39/104/2
f 39/105/3 40/106/3 38/107/3 37/108/3
f 37/109/4 38/110/4 34/111/4 33/112/4
f 35/113/5 39/114/5 37/115/5 33/116/5
f 40/117/6 36/118/6 34/119/6 38/120/6
f 41/121/1 42/122/1 44/123/1 43/124/1
f 43/125/2 44/126/2 48/127/2 47/128/2
f 47/129/3 48/130/3 46/131/3 45/132/3
f 45/133/4 46/134/4 42/135/4 41/136/4
f 43/137/5 47/138/5 45/139/5 41/140/5
f 48/141/6 44/142/6 42/143/6 46/144/6
s 1
f 49/145/7 50/146/8 52/147/9 51/148/10
f 51/149/10 52/150/9 54/151/11 53/152/12
f 53/152/12 54/151/11 56/153/13 55/154/14
f 55/155/14 56/156/13 58/157/15 57/158/16
f 57/159/16 58/160/15 60/161/17 59/162/18
f 52/163/9 50/164/8 62/165/19 60/166/17 58/167/15 56/168/13 54/169/11
f 59/162/18 60/161/17 62/170/19 61/171/20
f 61/172/20 62/173/19 50/146/8 49/145/7
f 61/172/20 49/145/7 63/174/5
f 51/149/10 53/152/12 63/175/5
f 57/159/16 59/162/18 63/176/5
f 49/145/7 51/148/10 63/174/5
f 53/152/12 55/154/14 63/175/5
f 59/162/18 61/171/20 63/176/5
f 55/155/14 57/158/16 63/177/5
f 64/178/7 65/179/8 67/180/9 66/181/10
f 66/182/10 67/183/9 69/184/11 68/185/12
f 68/185/12 69/184/11 71/186/13 70/187/14
f 70/188/14 71/189/13 73/190/15 72/191/16
f 72/192/16 73/193/15 75/194/17 74/195/18
f 67/196/9 65/197/8 77/198/19 75/199/17 73/200/15 71/201/13 69/202/11
f 74/195/18 75/194/17 77/203/19 76/204/20
f 76/205/20 77/206/19 65/179/8 64/178/7
f 76/205/20 64/178/7 78/207/5
f 66/182/10 68/185/12 78/208/5
f 72/192/16 74/195/18 78/209/5
f 64/178/7 66/181/10 78/207/5
f 68/185/12 70/187/14 78/208/5
f 74/195/18 76/204/20 78/209/5
f 70/188/14 72/191/16 78/210/5
f 79/211/7 80/212/8 82/213/9 81/214/10
f 81/215/10 82/216/9 84/217/11 83/218/12
f 83/218/12 84/217/11 86/219/13 85/220/14
f 85/221/14 86/222/13 88/223/15 87/224/16
f 87/225/16 88/226/15 90/227/17 89/228/18
f 82/229/9 80/230/8 92/231/19 90/232/17 88/233/15 86/234/13 84/235/11
f 89/228/18 90/227/17 92/236/19 91/237/20
f 91/238/20 92/239/19 80/212/8 79/211/7
f 91/238/20 79/211/7 93/240/5
f 81/215/10 83/218/12 93/241/5
f 87/225/16 89/228/18 93/242/5
f 79/211/7 81/214/10 93/240/5
f 83/218/12 85/220/14 93/241/5
f 89/228/18 91/237/20 93/242/5
f 85/221/14 87/224/16 93/243/5
f 94/244/7 95/245/8 97/246/9 96/247/10
f 96/248/10 97/249/9 99/250/11 98/251/12
f 98/251/12 99/250/11 101/252/13 100/253/14
f 100/254/14 101/255/13 103/256/15 102/257/16
f 102/258/16 103/259/15 105/260/17 104/261/18
f 97/262/9 95/263/8 107/264/19 105/265/17 103/266/15 101/267/13 99/268/11
f 104/261/18 105/260/17 107/269/19 106/270/20
f 106/271/20 107/272/19 95/245/8 94/244/7
f 106/271/20 94/244/7 108/273/5
f 96/248/10 98/251/12 108/274/5
f 102/258/16 104/261/18 108/275/5
f 94/244/7 96/247/10 108/273/5
f 98/251/12 100/253/14 108/274/5
f 104/261/18 106/270/20 108/275/5
f 100/254/14 102/257/16 108/276/5
f 109/277/7 110/278/8 112/279/9 111/280/10
f 111/281/10 112/282/9 114/283/11 113/284/12
f 113/284/12 114/283/11 116/285/13 115/286/14
f 115/287/14 116/288/13 118/289/15 117/290/16
f 117/291/16 118/292/15 120/293/17 119/294/18
f 112/295/9 110/296/8 122/297/19 120/298/17 118/299/15 116/300/13 114/301/11
f 119/294/18 120/293/17 122/302/19 121/303/20
f 121/304/20 122/305/19 110/278/8 109/277/7
f 121/304/20 109/277/7 123/306/5
f 111/281/10 113/284/12 123/307/5
f 117/291/16 119/294/18 123/308/5
f 109/277/7 111/280/10 123/306/5
f 113/284/12 115/286/14 123/307/5
f 119/294/18 121/303/20 123/308/5
f 115/287/14 117/290/16 123/309/5
f 124/310/7 125/311/8 127/312/9 126/313/10
f 126/314/10 127/315/9 129/316/11 128/317/12
f 128/317/12 129/316/11 131/318/13 130/319/14
f 130/320/14 131/321/13 133/322/15 132/323/16
f 132/324/16 133/325/15 135/326/17 134/327/18
f 127/328/9 125/329/8 137/330/19 135/331/17 133/332/15 131/333/13 129/334/11
f 134/327/18 135/326/17 137/335/19 136/336/20
f 136/337/20 137/338/19 125/311/8 124/310/7
f 136/337/20 124/310/7 138/339/5
f 126/314/10 128/317/12 138/340/5
f 132/324/16 134/327/18 138/341/5
f 124/310/7 126/313/10 138/339/5
f 128/317/12 130/319/14 138/340/5
f 134/327/18 136/336/20 138/341/5
f 130/320/14 132/323/16 138/342/5
f 139/343/7 140/344/8 142/345/9 141/346/10
f 141/347/10 142/348/9 144/349/11 143/350/12
f 143/350/12 144/349/11 146/351/13 145/352/14
f 145/353/14 146/354/13 148/355/15 147/356/16
f 147/357/16 148/358/15 150/359/17 149/360/18
f 142/361/9 140/362/8 152/363/19 150/364/17 148/365/15 146/366/13 144/367/11
f 149/360/18 150/359/17 152/368/19 151/369/20
f 151/370/20 152/371/19 140/344/8 139/343/7
f 151/370/20 139/343/7 153/372/5
f 141/347/10 143/350/12 153/373/5
f 147/357/16 149/360/18 153/374/5
f 139/343/7 141/346/10 153/372/5
f 143/350/12 145/352/14 153/373/5
f 149/360/18 151/369/20 153/374/5
f 145/353/14 147/356/16 153/375/5
f 154/376/7 155/377/8 157/378/9 156/379/10
f 156/380/10 157/381/9 159/382/11 158/383/12
f 158/383/12 159/382/11 161/384/13 160/385/14
f 160/386/14 161/387/13 163/388/15 162/389/16
f 162/390/16 163/391/15 165/392/17 164/393/18
f 157/394/9 155/395/8 167/396/19 165/397/17 163/398/15 161/399/13 159/400/11
f 164/393/18 165/392/17 167/401/19 166/402/20
f 166/403/20 167/404/19 155/377/8 154/376/7
f 166/403/20 154/376/7 168/405/5
f 156/380/10 158/383/12 168/406/5
f 162/390/16 164/393/18 168/407/5
f 154/376/7 156/379/10 168/405/5
f 158/383/12 160/385/14 168/406/5
f 164/393/18 166/402/20 168/407/5
f 160/386/14 162/389/16 168/408/5
f 169/409/7 170/410/8 172/411/9 171/412/10
f 171/413/10 172/414/9 174/415/11 173/416/12
f 173/416/12 174/415/11 176/417/13 175/418/14
f 175/419/14 176/420/13 178/421/15 177/422/16
f 177/423/16 178/424/15 180/425/17 179/426/18
f 172/427/9 170/428/8 182/429/19 180/430/17 178/431/15 176/432/13 174/433/11
f 179/426/18 180/425/17 182/434/19 181/435/20
f 181/436/20 182/437/19 170/410/8 169/409/7
f 181/436/20 169/409/7 183/438/5
f 171/413/10 173/416/12 183/439/5
f 177/423/16 179/426/18 183/440/5
f 169/409/7 171/412/10 183/438/5
f 173/416/12 175/418/14 183/439/5
f 179/426/18 181/435/20 183/440/5
f 175/419/14 177/422/16 183/441/5
