# Blender v2.79 (sub 0) OBJ File: 'HeartUICarveModel01.blend'
# www.blender.org
mtllib HeartUI01.mtl
o Cube
v 0.000000 0.000000 0.816971
v -0.756807 0.000000 -0.695702
v -0.681126 0.000000 -0.730640
v -0.832487 0.000000 -0.633727
v -0.075681 0.000000 0.777055
v -0.681126 0.000000 0.315238
v -0.454084 0.000000 -0.748178
v -0.773460 0.000000 0.216793
v -0.075681 0.000000 -0.487728
v -0.966336 0.000000 -0.389097
v -0.979235 0.000000 -0.249791
v -0.605445 0.000000 -0.747050
v -0.529765 0.000000 -0.755120
v -0.302723 0.000000 -0.681439
v -0.908168 0.000000 -0.539931
v -0.877411 0.000000 0.077946
v -0.943021 0.000000 -0.077506
v 0.000000 0.000000 -0.379123
v 0.908168 0.000000 -0.539931
v 0.773460 0.000000 0.216793
v 0.832487 0.000000 -0.633727
v 0.681126 0.000000 0.315238
v 0.605445 0.000000 -0.747050
v 0.681126 0.000000 -0.730640
v 0.756807 0.000000 -0.695702
v -0.151361 0.000000 -0.566671
v 0.075681 0.000000 0.777055
v 0.877411 0.000000 0.077946
v 0.943021 0.000000 -0.077506
v 0.966336 0.000000 -0.389097
v 0.151361 0.000000 -0.566671
v 0.075681 0.000000 -0.487728
v 0.979235 0.000000 -0.249791
v 0.227042 0.000000 -0.631663
v 0.529765 0.000000 -0.755120
v 0.454084 0.000000 -0.748178
v -0.227042 0.000000 -0.631663
v 0.302723 0.000000 -0.681439
vt 0.092432 0.111487
vt 0.107568 0.111487
vt 0.100000 0.689554
vt 0.022657 0.391607
vt 0.031890 0.342387
vt 0.100000 0.091530
vt 0.168110 0.342387
vt 0.177343 0.391607
vt 0.187738 0.461028
vt 0.194299 0.538752
vt 0.107568 0.743855
vt 0.197920 0.624891
vt 0.122703 0.815819
vt 0.196630 0.694541
vt 0.130271 0.840706
vt 0.190813 0.769955
vt 0.183246 0.816851
vt 0.175678 0.847838
vt 0.168110 0.865306
vt 0.160542 0.873511
vt 0.152974 0.877546
vt 0.145407 0.874075
vt 0.115136 0.783325
vt 0.092432 0.743855
vt 0.012262 0.461028
vt 0.084864 0.783325
vt 0.005701 0.538751
vt 0.077297 0.815819
vt 0.069729 0.840706
vt 0.002080 0.624891
vt 0.054593 0.874074
vt 0.047026 0.877545
vt 0.039458 0.873511
vt 0.031890 0.865306
vt 0.016754 0.816851
vt 0.024322 0.847838
vt 0.009187 0.769955
vt 0.003370 0.694541
vn 0.0000 1.0000 0.0000
usemtl Material
s off
f 5/1/1 27/2/1 18/3/1
f 8/4/1 6/5/1 18/3/1
f 6/5/1 5/1/1 18/3/1
f 5/1/1 1/6/1 27/2/1
f 27/2/1 22/7/1 18/3/1
f 22/7/1 20/8/1 18/3/1
f 20/8/1 28/9/1 18/3/1
f 28/9/1 29/10/1 32/11/1
f 18/3/1 28/9/1 32/11/1
f 29/10/1 33/12/1 34/13/1
f 33/12/1 30/14/1 38/15/1
f 30/14/1 19/16/1 38/15/1
f 19/16/1 21/17/1 38/15/1
f 21/17/1 25/18/1 24/19/1
f 24/19/1 23/20/1 21/17/1
f 23/20/1 35/21/1 38/15/1
f 21/17/1 23/20/1 38/15/1
f 35/21/1 36/22/1 38/15/1
f 38/15/1 34/13/1 33/12/1
f 34/13/1 31/23/1 29/10/1
f 31/23/1 32/11/1 29/10/1
f 18/3/1 9/24/1 16/25/1
f 9/24/1 26/26/1 17/27/1
f 18/3/1 16/25/1 8/4/1
f 26/26/1 37/28/1 17/27/1
f 37/28/1 14/29/1 11/30/1
f 17/27/1 37/28/1 11/30/1
f 14/29/1 7/31/1 13/32/1
f 13/32/1 12/33/1 14/29/1
f 12/33/1 3/34/1 4/35/1
f 14/29/1 12/33/1 4/35/1
f 3/34/1 2/36/1 4/35/1
f 4/35/1 15/37/1 14/29/1
f 15/37/1 10/38/1 14/29/1
f 10/38/1 11/30/1 14/29/1
f 17/27/1 16/25/1 9/24/1
