# Blender v2.79 (sub 0) OBJ File: 'HeartItemModel01.blend'
# www.blender.org
mtllib Heart.mtl
o pCylinder8
v -0.005982 0.452934 -0.031909
v -0.006038 0.466665 -0.017125
v 0.036482 0.454541 -0.040685
v 0.017054 0.495272 -0.017125
v 0.069628 0.528088 -0.017125
v 0.071544 0.476426 -0.040685
v 0.129365 0.527190 -0.017125
v 0.106662 0.475898 -0.040685
v 0.181503 0.491799 -0.017125
v 0.137815 0.454751 -0.040685
v 0.206231 0.429256 -0.017125
v 0.153754 0.414436 -0.040685
v -0.006149 0.174182 -0.040685
v 0.036482 0.454541 0.053260
v -0.006654 0.401102 0.053260
v -0.006149 0.174182 0.053260
v 0.071544 0.476426 0.053259
v 0.106662 0.475898 0.053260
v 0.137815 0.454751 0.053260
v 0.153754 0.414436 0.053260
v 0.198745 0.351002 -0.017125
v 0.148141 0.356512 -0.040685
v 0.148141 0.356512 0.053259
v 0.130772 0.311850 0.053260
v 0.175134 0.291291 -0.017125
v 0.130772 0.311850 -0.040685
v -0.006350 0.108817 -0.017125
v -0.047721 0.454768 -0.040685
v -0.027930 0.495272 -0.017125
v -0.080503 0.528088 -0.017125
v -0.082419 0.476426 -0.040685
v -0.140241 0.527190 -0.017125
v -0.117538 0.475898 -0.040685
v -0.192379 0.491799 -0.017125
v -0.148690 0.454751 -0.040685
v -0.217107 0.429256 -0.017125
v -0.164630 0.414436 -0.040685
v -0.209620 0.351002 -0.017125
v -0.159017 0.356512 -0.040685
v -0.047721 0.454768 0.053260
v -0.082419 0.476426 0.053259
v -0.117538 0.475898 0.053260
v -0.148690 0.454751 0.053260
v -0.164630 0.414436 0.053260
v -0.159017 0.356512 0.053259
v -0.141617 0.311772 -0.040685
v -0.186009 0.291291 -0.017125
v -0.141617 0.311772 0.053260
v -0.139565 0.526153 0.028694
v -0.144588 0.533865 0.007573
v -0.191442 0.490939 0.028694
v -0.198408 0.497332 0.007573
v -0.080127 0.527046 0.028694
v -0.082924 0.534791 0.007573
v -0.027817 0.494395 0.028694
v -0.028655 0.500917 0.007573
v -0.006057 0.471388 0.007573
v -0.006035 0.465931 0.028694
v 0.017779 0.500917 0.007573
v 0.016941 0.494395 0.028694
v 0.069251 0.527046 0.028694
v 0.072048 0.534791 0.007573
v 0.128689 0.526153 0.028694
v 0.133712 0.533865 0.007573
v 0.180566 0.490939 0.028694
v 0.187532 0.497332 0.007573
v 0.205170 0.428710 0.028694
v 0.213057 0.432772 0.007573
v 0.197721 0.350848 0.028694
v 0.205329 0.351362 0.007573
v 0.180957 0.290358 0.007573
v 0.174229 0.291436 0.028694
v -0.006379 0.101999 0.007573
v -0.006345 0.109877 0.028694
v -0.191833 0.290358 0.007573
v -0.185104 0.291436 0.028694
v -0.216205 0.351362 0.007573
v -0.208597 0.350848 0.028694
v -0.216046 0.428710 0.028694
v -0.223933 0.432772 0.007573
v 0.179598 0.349022 0.044483
v 0.158201 0.294005 0.044483
v 0.186383 0.419033 -0.031909
v 0.179598 0.349022 -0.031909
v -0.006264 0.128641 -0.031909
v 0.158201 0.294005 -0.031909
v 0.163974 0.475710 -0.031909
v -0.073464 0.508597 0.044483
v -0.127600 0.507783 0.044483
v 0.186383 0.419033 0.044483
v 0.062589 0.508597 -0.031909
v 0.116724 0.507783 -0.031909
v 0.014945 0.478858 0.044483
v 0.062589 0.508597 0.044483
v 0.116724 0.507783 0.044483
v 0.163974 0.475710 0.044483
v 0.014945 0.478858 -0.031909
v -0.025820 0.478858 -0.031909
v -0.073464 0.508597 -0.031909
v -0.174849 0.475710 0.044483
v -0.006264 0.128641 0.044483
v -0.197258 0.419033 -0.031909
v -0.190474 0.349022 -0.031909
v -0.127600 0.507783 -0.031909
v -0.174849 0.475710 -0.031909
v -0.006654 0.401102 -0.040685
v -0.197258 0.419033 0.044483
v -0.005982 0.452934 0.044483
v -0.025820 0.478858 0.044483
v -0.190474 0.349022 0.044483
v -0.169077 0.294005 0.044483
v -0.169077 0.294005 -0.031909
vt 0.644939 0.684258
vt 0.668482 0.799456
vt 0.635955 0.794540
vt 0.614178 0.692477
vt 0.584917 0.861417
vt 0.615899 0.880934
vt 0.556860 0.939151
vt 0.532921 0.912651
vt 0.983171 0.204681
vt 0.946268 0.209379
vt 0.926899 0.124085
vt 0.958000 0.105982
vt 0.046222 0.794352
vt 0.013688 0.799230
vt 0.037362 0.684061
vt 0.068115 0.692307
vt 0.110192 0.618969
vt 0.340439 0.436670
vt 0.340506 0.466367
vt 0.136734 0.630778
vt 0.511349 0.874231
vt 0.466306 0.883964
vt 0.411414 0.865188
vt 0.339227 0.794164
vt 0.340576 0.514831
vt 0.513317 0.657309
vt 0.541463 0.711477
vt 0.558150 0.784888
vt 0.545786 0.839644
vt 0.794321 0.045577
vt 0.710392 0.061624
vt 0.707920 0.023125
vt 0.802798 0.009019
vt 0.480309 0.958996
vt 0.488346 0.990981
vt 0.395488 0.974268
vt 0.396929 0.941123
vt 0.340288 0.955980
vt 0.340193 0.918679
vt 0.501000 0.009019
vt 0.509497 0.045561
vt 0.434502 0.066575
vt 0.412131 0.036404
vt 0.286424 0.974264
vt 0.193620 0.990952
vt 0.201675 0.958983
vt 0.284937 0.941192
vt 0.602591 0.092833
vt 0.593303 0.061524
vt 0.651074 0.083882
vt 0.651090 0.123945
vt 0.572163 0.619127
vt 0.545632 0.630911
vt 0.379356 0.311140
vt 0.421695 0.384314
vt 0.391972 0.405107
vt 0.344281 0.321480
vt 0.844828 0.092410
vt 0.777863 0.075088
vt 0.869338 0.066518
vt 0.140816 0.711376
vt 0.169082 0.657166
vt 0.270101 0.865498
vt 0.215757 0.883981
vt 0.170734 0.874194
vt 0.136340 0.839564
vt 0.124043 0.784789
vt 0.924743 0.310989
vt 0.892425 0.307602
vt 0.912472 0.219200
vt 0.643715 0.897525
vt 0.576876 0.965976
vt 0.480907 0.130170
vt 0.525621 0.119896
vt 0.580401 0.137777
vt 0.650130 0.209312
vt 0.651483 0.488388
vt 0.480388 0.346663
vt 0.452135 0.292529
vt 0.435248 0.219355
vt 0.447172 0.164892
vt 0.895614 0.143597
vt 0.084314 0.601994
vt 0.340178 0.879145
vt 0.389569 0.909379
vt 0.459039 0.092443
vt 0.408307 0.143692
vt 0.376996 0.124211
vt 0.525974 0.075054
vt 0.882467 0.384165
vt 0.856066 0.372910
vt 0.651412 0.536496
vt 0.651344 0.565848
vt 0.448107 0.373031
vt 0.701157 0.093024
vt 0.216794 0.928865
vt 0.292329 0.909538
vt 0.125152 0.939061
vt 0.066177 0.880774
vt 0.097183 0.861293
vt 0.149118 0.912588
vt 0.105108 0.965867
vt 0.598034 0.602148
vt 0.080037 0.784948
vt 0.100241 0.696168
vt 0.038340 0.897335
vt 0.602152 0.785099
vt 0.582048 0.696311
vt 0.912176 0.404965
vt 0.959826 0.321301
vt 0.391531 0.219325
vt 0.411672 0.307728
vt 0.357721 0.209539
vt 0.891678 0.036329
vt 0.320809 0.204881
vt 0.345870 0.106140
vt 0.340387 0.405005
vt 0.651214 0.039447
vt 0.595828 0.023112
vt 0.465210 0.928855
vt 0.651287 0.601904
vt 0.868762 0.219278
vt 0.851957 0.292442
vt 0.823820 0.346531
vt 0.722942 0.138107
vt 0.778273 0.119939
vt 0.823002 0.130160
vt 0.856776 0.164838
vn 0.9731 -0.2269 0.0397
vn 0.9868 0.1556 0.0443
vn 0.8063 0.1133 0.5805
vn 0.8209 -0.1956 0.5365
vn 0.3524 0.2765 0.8941
vn 0.6175 0.4937 0.6124
vn 0.2398 0.7680 0.5938
vn 0.1227 0.4494 0.8848
vn 0.8183 0.1172 -0.5626
vn 0.6308 0.5051 -0.5889
vn 0.7769 0.6278 0.0473
vn -0.8063 0.1133 0.5805
vn -0.9868 0.1556 0.0443
vn -0.9731 -0.2269 0.0397
vn -0.8209 -0.1956 0.5365
vn -0.7323 -0.4735 0.4895
vn -0.0020 -0.8500 0.5267
vn -0.0007 -0.5199 0.8542
vn -0.4446 -0.3102 0.8403
vn 0.0455 0.1441 0.9885
vn -0.0405 0.1454 0.9885
vn -0.0963 0.1087 0.9894
vn 0.0005 0.0356 0.9994
vn -0.0003 -0.1418 0.9899
vn 0.1235 -0.0804 0.9891
vn 0.1395 -0.0332 0.9897
vn 0.1474 0.0208 0.9888
vn 0.1182 0.0947 0.9885
vn -0.2268 0.8359 -0.4998
vn -0.6020 0.6991 -0.3858
vn -0.6474 0.7617 0.0264
vn -0.2377 0.9706 0.0379
vn -0.2300 0.8291 0.5095
vn -0.6055 0.6975 0.3832
vn 0.0152 0.9992 0.0361
vn 0.0157 0.8628 0.5052
vn 0.2377 0.9706 0.0379
vn 0.2268 0.8359 -0.4998
vn -0.2465 0.7815 -0.5730
vn -0.3156 0.9478 0.0456
vn 0.6559 0.7544 0.0261
vn 0.2300 0.8291 0.5095
vn 0.6151 0.6912 0.3793
vn 0.4373 0.4267 -0.7916
vn 0.6112 0.6930 -0.3822
vn 0.0163 0.8538 -0.5204
vn 0.0033 0.3113 -0.9503
vn 0.7313 -0.4754 0.4890
vn 0.4441 -0.3120 0.8399
vn -0.8280 -0.1960 -0.5253
vn -0.7370 -0.4741 -0.4817
vn -0.8441 -0.5349 0.0353
vn 0.1146 0.4217 -0.8994
vn -0.1821 0.4879 -0.8537
vn 0.2465 0.7815 -0.5730
vn -0.1395 -0.0332 0.9897
vn -0.1236 -0.0800 0.9891
vn 0.0982 0.1080 0.9893
vn 0.0405 0.1454 0.9885
vn -0.0455 0.1441 0.9885
vn -0.1182 0.0947 0.9885
vn -0.1474 0.0208 0.9888
vn 0.8280 -0.1960 -0.5253
vn 0.4592 -0.1192 -0.8803
vn 0.4451 0.0459 -0.8943
vn 0.3156 0.9478 0.0456
vn -0.0455 0.1441 -0.9885
vn 0.0405 0.1454 -0.9885
vn 0.0982 0.1080 -0.9893
vn 0.0005 0.0356 -0.9994
vn -0.0003 -0.1418 -0.9899
vn -0.1236 -0.0800 -0.9891
vn -0.1395 -0.0332 -0.9897
vn -0.1474 0.0208 -0.9888
vn -0.1182 0.0947 -0.9885
vn 0.3298 0.2586 -0.9079
vn 0.0035 0.3251 0.9456
vn -0.4383 0.4468 0.7799
vn -0.1146 0.4217 -0.8994
vn -0.3298 0.2586 -0.9079
vn -0.6308 0.5051 -0.5889
vn 0.1821 0.4879 -0.8537
vn 0.7360 -0.4760 -0.4812
vn 0.4211 -0.2970 -0.8570
vn -0.0006 -0.4870 -0.8734
vn -0.0021 -0.8637 -0.5040
vn -0.4216 -0.2953 -0.8574
vn -0.4247 0.4300 -0.7967
vn 0.1895 0.5142 0.8365
vn 0.4507 0.4432 0.7749
vn -0.2398 0.7680 0.5938
vn -0.6175 0.4937 0.6124
vn -0.3524 0.2765 0.8941
vn -0.1227 0.4494 0.8848
vn 0.8429 -0.5369 0.0353
vn -0.4733 0.0493 0.8795
vn -0.4860 -0.1257 0.8649
vn -0.7769 0.6278 0.0473
vn 0.4733 0.0493 0.8795
vn 0.4860 -0.1257 0.8649
vn -0.4451 0.0459 -0.8943
vn -0.4592 -0.1192 -0.8803
vn -0.8183 0.1172 -0.5626
vn -0.0027 -0.9992 0.0387
vn -0.1895 0.5142 0.8365
vn 0.1474 0.0208 -0.9888
vn 0.1395 -0.0332 -0.9897
vn 0.1235 -0.0804 -0.9891
vn -0.0963 0.1087 -0.9894
vn -0.0405 0.1454 -0.9885
vn 0.0455 0.1441 -0.9885
vn 0.1182 0.0947 -0.9885
usemtl lambert6SG
s 1
f 70/1/1 68/2/2 67/3/3 69/4/4
f 96/5/5 65/6/6 63/7/7 95/8/8
f 68/9/2 11/10/9 9/11/10 66/12/11
f 79/13/12 80/14/13 77/15/14 78/16/15
f 76/17/16 74/18/17 101/19/18 111/20/19
f 18/21/20 17/22/21 14/23/22 15/24/23 16/25/24 24/26/25 23/27/26 20/28/27 19/29/28
f 5/30/29 4/31/30 59/32/31 62/33/32
f 61/34/33 62/35/32 59/36/31 60/37/34
f 57/38/35 58/39/36 60/37/34 59/36/31
f 54/40/37 30/41/38 32/42/39 50/43/40
f 56/44/41 54/45/37 53/46/42 55/47/43
f 98/48/44 29/49/45 2/50/46 1/51/47
f 101/19/18 74/18/17 72/52/48 82/53/49
f 38/54/50 47/55/51 75/56/52 77/57/14
f 92/58/53 91/59/54 5/30/29 7/60/55
f 45/61/56 48/62/57 16/25/24 15/24/23 40/63/58 41/64/59 42/65/60 43/66/61 44/67/62
f 21/68/63 84/69/64 83/70/65 11/10/9
f 65/6/6 66/71/11 64/72/66 63/7/7
f 33/73/67 31/74/68 28/75/69 106/76/70 13/77/71 46/78/72 39/79/73 37/80/74 35/81/75
f 55/47/43 58/39/36 57/38/35 56/44/41
f 87/82/76 92/58/53 7/60/55 9/11/10
f 75/83/52 76/17/16 78/16/15 77/15/14
f 68/2/2 66/71/11 65/6/6 67/3/3
f 11/10/9 83/70/65 87/82/76 9/11/10
f 58/39/36 108/84/77 93/85/78 60/37/34
f 32/42/39 104/86/79 105/87/80 34/88/81
f 30/41/38 99/89/82 104/86/79 32/42/39
f 25/90/83 86/91/84 84/69/64 21/68/63
f 85/92/85 27/93/86 47/55/51 112/94/87
f 2/50/46 4/31/30 97/95/88 1/51/47
f 55/47/43 53/46/42 88/96/89 109/97/90
f 85/92/85 86/91/84 25/90/83 27/93/86
f 49/98/91 51/99/92 100/100/93 89/101/94
f 54/45/37 50/102/40 49/98/91 53/46/42
f 69/4/4 72/52/48 71/103/95 70/1/1
f 107/104/96 79/13/12 78/16/15 110/105/97
f 51/99/92 52/106/98 80/14/13 79/13/12
f 69/4/4 67/3/3 90/107/99 81/108/100
f 71/109/95 25/90/83 21/68/63 70/110/1
f 102/111/101 103/112/102 38/54/50 36/113/103
f 103/112/102 112/94/87 47/55/51 38/54/50
f 7/60/55 5/30/29 62/33/32 64/114/66
f 100/100/93 51/99/92 79/13/12 107/104/96
f 63/7/7 64/72/66 62/35/32 61/34/33
f 91/59/54 97/95/88 4/31/30 5/30/29
f 34/88/81 36/113/103 80/115/13 52/116/98
f 74/18/17 76/17/16 75/83/52 73/117/104
f 81/108/100 82/53/49 72/52/48 69/4/4
f 4/31/30 2/50/46 57/118/35 59/32/31
f 53/46/42 49/98/91 89/101/94 88/96/89
f 67/3/3 65/6/6 96/5/5 90/107/99
f 109/97/90 108/84/77 58/39/36 55/47/43
f 71/103/95 72/52/48 74/18/17 73/117/104
f 56/119/41 29/49/45 30/41/38 54/40/37
f 95/8/8 63/7/7 61/34/33 94/120/105
f 27/93/86 73/121/104 75/56/52 47/55/51
f 50/43/40 32/42/39 34/88/81 52/116/98
f 105/87/80 102/111/101 36/113/103 34/88/81
f 29/49/45 56/119/41 57/118/35 2/50/46
f 29/49/45 98/48/44 99/89/82 30/41/38
f 50/102/40 52/106/98 51/99/92 49/98/91
f 36/113/103 38/54/50 77/57/14 80/115/13
f 70/110/1 21/68/63 11/10/9 68/9/2
f 27/93/86 25/90/83 71/109/95 73/121/104
f 9/11/10 7/60/55 64/114/66 66/12/11
f 94/120/105 61/34/33 60/37/34 93/85/78
f 12/122/106 22/123/107 26/124/108 13/77/71 106/76/70 3/125/109 6/126/110 8/127/111 10/128/112
f 23/27/26 24/26/25 82/53/49 81/108/100
f 22/123/107 12/122/106 83/70/65 84/69/64
f 13/77/71 26/124/108 86/91/84 85/92/85
f 12/122/106 10/128/112 87/82/76 83/70/65
f 42/65/60 41/64/59 88/96/89 89/101/94
f 20/28/27 23/27/26 81/108/100 90/107/99
f 8/127/111 6/126/110 91/59/54 92/58/53
f 14/23/22 17/22/21 94/120/105 93/85/78
f 18/21/20 19/29/28 96/5/5 95/8/8
f 6/126/110 3/125/109 97/95/88 91/59/54
f 28/75/69 31/74/68 99/89/82 98/48/44
f 43/66/61 42/65/60 89/101/94 100/100/93
f 24/26/25 16/25/24 101/19/18 82/53/49
f 37/80/74 39/79/73 103/112/102 102/111/101
f 33/73/67 35/81/75 105/87/80 104/86/79
f 17/22/21 18/21/20 95/8/8 94/120/105
f 3/125/109 106/76/70 1/51/47 97/95/88
f 10/128/112 8/127/111 92/58/53 87/82/76
f 44/67/62 43/66/61 100/100/93 107/104/96
f 40/63/58 15/24/23 108/84/77 109/97/90
f 15/24/23 14/23/22 93/85/78 108/84/77
f 48/62/57 45/61/56 110/105/97 111/20/19
f 41/64/59 40/63/58 109/97/90 88/96/89
f 39/79/73 46/78/72 112/94/87 103/112/102
f 45/61/56 44/67/62 107/104/96 110/105/97
f 26/124/108 22/123/107 84/69/64 86/91/84
f 16/25/24 48/62/57 111/20/19 101/19/18
f 35/81/75 37/80/74 102/111/101 105/87/80
f 106/76/70 28/75/69 98/48/44 1/51/47
f 19/29/28 20/28/27 90/107/99 96/5/5
f 31/74/68 33/73/67 104/86/79 99/89/82
f 46/78/72 13/77/71 85/92/85 112/94/87
f 76/17/16 111/20/19 110/105/97 78/16/15
