# Blender v2.79 (sub 0) OBJ File: 'Level2_mapUI.blend'
# www.blender.org
o Cube_Cube.005
v 90.808556 -1.999999 -115.202110
v 90.808556 0.000001 -115.202110
v 90.808586 -1.999999 61.612820
v 90.808586 0.000001 61.612820
v -86.006363 -1.999999 -115.202087
v -86.006363 0.000001 -115.202087
v -86.006332 -1.999999 61.612850
v -86.006332 0.000001 61.612850
v 315.368073 -1.999999 286.172211
v 315.367950 -1.999999 -339.761597
v 315.367950 0.000001 -339.761597
v 315.368073 0.000001 286.172211
v -310.565735 -1.999999 286.172272
v -310.565735 0.000001 286.172272
v -310.565826 -1.999999 -339.761475
v -310.565826 0.000001 -339.761475
vt 0.000000 1.000000
vt 1.000000 1.000000
vt 1.000000 1.000000
vt 0.000000 1.000000
vt 1.000000 0.000000
vt 1.000000 0.000000
vt 1.000000 0.000000
vt 0.000000 0.000000
vt 0.000000 0.000000
vt 1.000000 0.000000
vt 0.000000 0.000000
vt 0.000000 0.000000
vt 1.000000 1.000000
vt 0.000000 1.000000
vt 0.000000 0.000000
vt 1.000000 0.000000
vt 1.000000 1.000000
vt 0.000000 1.000000
vt 1.000000 1.000000
vt 0.000000 1.000000
vt 0.000000 0.000000
vt 1.000000 0.000000
vt 1.000000 1.000000
vt 0.000000 1.000000
vt 0.000000 0.000000
vt 1.000000 0.000000
vt 0.000000 1.000000
vt 1.000000 1.000000
vn 0.0000 1.0000 0.0000
vn 0.0000 -1.0000 0.0000
vn 1.0000 0.0000 -0.0000
vn 0.0000 0.0000 1.0000
vn -1.0000 0.0000 0.0000
vn -0.0000 0.0000 -1.0000
s off
f 6/1/1 2/2/1 11/3/1 16/4/1
f 2/2/1 4/5/1 12/6/1 11/3/1
f 7/7/2 3/8/2 9/9/2 13/10/2
f 8/11/1 6/1/1 16/4/1 14/12/1
f 3/8/2 7/7/2 5/13/2 1/14/2
f 8/11/1 4/5/1 2/2/1 6/1/1
f 10/15/3 11/16/3 12/17/3 9/18/3
f 9/9/4 12/6/4 14/19/4 13/20/4
f 13/21/5 14/22/5 16/23/5 15/24/5
f 15/25/6 16/26/6 11/3/6 10/27/6
f 3/8/2 1/14/2 10/27/2 9/9/2
f 5/13/2 7/7/2 13/10/2 15/28/2
f 4/5/1 8/11/1 14/12/1 12/6/1
f 1/14/2 5/13/2 15/28/2 10/27/2
