# Blender v2.79 (sub 0) OBJ File: 'Level 1 _09_UIMap.blend'
# www.blender.org
mtllib LV1UIMap.mtl
o AMapUI_Cube.003
v 48.522690 -14.546021 -77.498581
v 48.522690 0.000000 -77.498581
v 48.522690 -14.546021 51.414875
v 48.522690 0.000000 51.414875
v -209.304214 -14.546021 -77.498566
v -209.304214 0.000000 -77.498566
v -209.304214 -14.546021 51.414898
v -209.304214 0.000000 51.414898
v 390.077820 -14.546021 392.970001
v 390.077820 -14.546021 -419.053772
v 390.077820 0.000000 -419.053772
v 390.077820 0.000000 392.970001
v -550.859375 -14.546021 392.970062
v -550.859375 0.000000 392.970062
v -550.859375 -14.546021 -419.053680
v -550.859375 0.000000 -419.053680
vt 0.935157 0.076968
vt 0.935157 0.035079
vt 0.935157 0.035079
vt 0.935157 0.076968
vt 1.000000 0.000000
vt 0.000000 0.000000
vt 0.000000 0.000000
vt 1.000000 0.000000
vt 0.893268 0.035079
vt 0.893268 0.076968
vt 0.893268 0.076968
vt 0.893268 0.035079
vt 0.000000 1.000000
vt 1.000000 1.000000
vt 1.000000 1.000000
vt 0.000000 1.000000
vt 0.000000 0.000000
vt 1.000000 0.000000
vt 1.000000 1.000000
vt 0.000000 1.000000
vt 0.000000 0.000000
vt 1.000000 0.000000
vt 1.000000 1.000000
vt 0.000000 1.000000
vt 1.000000 0.000000
vt 1.000000 1.000000
vt 0.000000 1.000000
vt 0.000000 0.000000
vt 1.000000 0.000000
vt 1.000000 1.000000
vt 0.000000 1.000000
vt 0.000000 0.000000
vt 1.000000 0.000000
vt 1.000000 1.000000
vt 0.000000 1.000000
vt 0.000000 0.000000
vn 0.0000 1.0000 0.0000
vn 0.0000 -1.0000 0.0000
vn 1.0000 0.0000 0.0000
vn 0.0000 0.0000 1.0000
vn -1.0000 0.0000 0.0000
vn -0.0000 0.0000 -1.0000
usemtl Material.004
s off
f 2/1/1 4/2/1 12/3/1 11/4/1
f 7/5/2 3/6/2 9/7/2 13/8/2
f 8/9/1 6/10/1 16/11/1 14/12/1
f 1/13/2 5/14/2 15/15/2 10/16/2
f 3/6/2 7/5/2 5/14/2 1/13/2
f 8/17/1 4/18/1 2/19/1 6/20/1
f 10/21/3 11/22/3 12/23/3 9/24/3
f 9/7/4 12/25/4 14/26/4 13/27/4
f 13/28/5 14/29/5 16/30/5 15/31/5
f 15/32/6 16/33/6 11/34/6 10/16/6
f 6/20/1 2/19/1 11/34/1 16/35/1
f 3/6/2 1/13/2 10/16/2 9/7/2
f 5/14/2 7/5/2 13/8/2 15/15/2
f 4/18/1 8/17/1 14/36/1 12/25/1
