# Blender v2.78 (sub 0) OBJ File: 'Map18Only Roofs.blend'
# www.blender.org
mtllib Map18_Roof.mtl
o Cube_Cube.001
v -70.000000 8.000000 4.500000
v -70.000000 12.000000 4.500000
v -70.000000 8.000000 -4.500000
v -70.000000 12.000000 -4.500000
v -30.000000 8.000000 4.500000
v -30.000000 12.000000 4.500000
v -30.000000 8.000000 -4.500000
v -30.000000 12.000000 -4.500000
v -110.000000 7.999999 20.000000
v -110.000000 11.999999 20.000000
v -110.000000 7.999999 -20.000000
v -110.000000 11.999999 -20.000000
v -70.000000 7.999999 20.000000
v -70.000000 11.999999 20.000000
v -70.000000 7.999999 -20.000000
v -70.000000 11.999999 -20.000000
v -110.000008 7.999999 -100.000008
v -110.000008 11.999999 -100.000008
v -110.000008 7.999999 -140.000000
v -110.000008 11.999999 -140.000000
v -70.000000 7.999999 -100.000008
v -70.000000 11.999999 -100.000008
v -70.000000 7.999999 -140.000000
v -70.000000 11.999999 -140.000000
v -70.000000 7.999999 -115.500000
v -70.000000 11.999999 -115.500000
v -70.000000 7.999999 -124.500000
v -70.000000 11.999999 -124.500000
v -29.999996 7.999999 -115.500000
v -29.999996 11.999999 -115.500000
v -29.999996 7.999999 -124.500000
v -29.999996 11.999999 -124.500000
v -19.999996 7.999999 -150.000015
v -19.999996 11.999999 -150.000015
v -19.999996 7.999999 -190.000000
v -19.999996 11.999999 -190.000000
v 20.000008 7.999999 -150.000015
v 20.000008 11.999999 -150.000015
v 20.000008 7.999999 -190.000000
v 20.000008 11.999999 -190.000000
v -29.999996 7.999999 -90.000000
v -29.999996 11.999999 -90.000000
v -29.999996 7.999999 -150.000015
v -29.999996 11.999999 -150.000015
v 30.000000 7.999999 -90.000000
v 30.000000 11.999999 -90.000000
v 30.000000 7.999999 -150.000015
v 30.000000 11.999999 -150.000015
v -19.999996 7.999999 -190.000000
v -19.999996 11.999999 -190.000000
v -19.999996 7.999999 -230.000015
v -19.999996 11.999999 -230.000015
v 20.000008 7.999999 -190.000000
v 20.000008 11.999999 -190.000000
v 20.000008 7.999999 -230.000015
v 20.000008 11.999999 -230.000015
vt 0.3750 0.5000
vt 0.3750 1.5000
vt 2.6250 1.5000
vt 2.6250 0.5000
vt 0.0000 0.5000
vt 0.0000 1.5000
vt 10.0000 1.5000
vt 10.0000 0.5000
vt 0.6250 0.5000
vt 0.6250 1.5000
vt -1.6250 1.5000
vt -1.6250 0.5000
vt 0.0000 0.5000
vt 0.0000 1.5000
vt -10.0000 1.5000
vt -10.0000 0.5000
vt 0.0000 0.6250
vt 10.0000 0.6250
vt 10.0000 -1.6250
vt 0.0000 -1.6250
vt 0.0000 0.6250
vt -10.0000 0.6250
vt -10.0000 -1.6250
vt 0.0000 -1.6250
vt 0.5000 0.5000
vt 0.5000 1.5000
vt 10.5000 1.5000
vt 10.5000 0.5000
vt 0.0000 0.5000
vt 0.0000 1.5000
vt 10.0000 1.5000
vt 10.0000 0.5000
vt 0.5000 0.5000
vt 0.5000 1.5000
vt -9.5000 1.5000
vt -9.5000 0.5000
vt 0.0000 0.5000
vt 0.0000 1.5000
vt -10.0000 1.5000
vt -10.0000 0.5000
vt 10.0000 -9.5000
vt 0.0000 -9.5000
vt 0.0000 0.5000
vt -10.0000 0.5000
vt -10.0000 -9.5000
vt 0.0000 -9.5000
vt 0.5000 0.5000
vt 0.5000 1.5000
vt 10.5000 1.5000
vt 10.5000 0.5000
vt 1.0000 0.5000
vt 1.0000 1.5000
vt 11.0000 1.5000
vt 11.0000 0.5000
vt 0.5000 0.5000
vt 0.5000 1.5000
vt -9.5000 1.5000
vt -9.5000 0.5000
vt 0.0000 0.5000
vt 0.0000 1.5000
vt -10.0000 1.5000
vt -10.0000 0.5000
vt 11.0000 -9.5000
vt 1.0000 -9.5000
vt 0.0000 0.5000
vt -10.0000 0.5000
vt -10.0000 -9.5000
vt 0.0000 -9.5000
vt 0.3750 0.5000
vt 0.3750 1.5000
vt 2.6250 1.5000
vt 2.6250 0.5000
vt 0.0000 0.5000
vt 0.0000 1.5000
vt 10.0000 1.5000
vt 10.0000 0.5000
vt 0.6250 0.5000
vt 0.6250 1.5000
vt -1.6250 1.5000
vt -1.6250 0.5000
vt 0.0000 0.5000
vt 0.0000 1.5000
vt -10.0000 1.5000
vt -10.0000 0.5000
vt 0.0000 0.6250
vt 10.0000 0.6250
vt 10.0000 -1.6250
vt 0.0000 -1.6250
vt 0.0000 0.6250
vt -10.0000 0.6250
vt -10.0000 -1.6250
vt 0.0000 -1.6250
vt 0.0000 0.5000
vt 0.0000 1.5000
vt 10.0000 1.5000
vt 10.0000 0.5000
vt 0.5000 0.5000
vt 0.5000 1.5000
vt 10.5000 1.5000
vt 10.5000 0.5000
vt 0.0000 0.5000
vt 0.0000 1.5000
vt -10.0000 1.5000
vt -10.0000 0.5000
vt 0.5000 0.5000
vt 0.5000 1.5000
vt -9.5000 1.5000
vt -9.5000 0.5000
vt 0.5000 0.0000
vt 10.5000 0.0000
vt 10.5000 -10.0000
vt 0.5000 -10.0000
vt 0.5000 0.0000
vt -9.5000 0.0000
vt -9.5000 -10.0000
vt 0.5000 -10.0000
vt 0.0000 0.5000
vt 0.0000 1.5000
vt 15.0000 1.5000
vt 15.0000 0.5000
vt 0.0000 0.5000
vt 0.0000 1.5000
vt 15.0000 1.5000
vt 15.0000 0.5000
vt 0.0000 0.5000
vt 0.0000 1.5000
vt -15.0000 1.5000
vt -15.0000 0.5000
vt 0.0000 0.5000
vt 0.0000 1.5000
vt -15.0000 1.5000
vt -15.0000 0.5000
vt 0.0000 0.0000
vt 15.0000 0.0000
vt 15.0000 -15.0000
vt 0.0000 -15.0000
vt 0.0000 0.0000
vt -15.0000 0.0000
vt -15.0000 -15.0000
vt 0.0000 -15.0000
vt 0.0000 0.5000
vt 0.0000 1.5000
vt 10.0000 1.5000
vt 10.0000 0.5000
vt 0.5000 0.5000
vt 0.5000 1.5000
vt 10.5000 1.5000
vt 10.5000 0.5000
vt 0.0000 0.5000
vt 0.0000 1.5000
vt -10.0000 1.5000
vt -10.0000 0.5000
vt 0.5000 0.5000
vt 0.5000 1.5000
vt -9.5000 1.5000
vt -9.5000 0.5000
vt 0.5000 0.0000
vt 10.5000 0.0000
vt 10.5000 -10.0000
vt 0.5000 -10.0000
vt 0.5000 0.0000
vt -9.5000 0.0000
vt -9.5000 -10.0000
vt 0.5000 -10.0000
vn -1.0000 0.0000 0.0000
vn 0.0000 0.0000 -1.0000
vn 1.0000 0.0000 0.0000
vn 0.0000 0.0000 1.0000
vn 0.0000 -1.0000 0.0000
vn 0.0000 1.0000 0.0000
usemtl None
s off
f 1/1/1 2/2/1 4/3/1 3/4/1
f 3/5/2 4/6/2 8/7/2 7/8/2
f 7/9/3 8/10/3 6/11/3 5/12/3
f 5/13/4 6/14/4 2/15/4 1/16/4
f 3/17/5 7/18/5 5/19/5 1/20/5
f 8/21/6 4/22/6 2/23/6 6/24/6
f 9/25/1 10/26/1 12/27/1 11/28/1
f 11/29/2 12/30/2 16/31/2 15/32/2
f 15/33/3 16/34/3 14/35/3 13/36/3
f 13/37/4 14/38/4 10/39/4 9/40/4
f 11/29/5 15/32/5 13/41/5 9/42/5
f 16/43/6 12/44/6 10/45/6 14/46/6
f 17/47/1 18/48/1 20/49/1 19/50/1
f 19/51/2 20/52/2 24/53/2 23/54/2
f 23/55/3 24/56/3 22/57/3 21/58/3
f 21/59/4 22/60/4 18/61/4 17/62/4
f 19/51/5 23/54/5 21/63/5 17/64/5
f 24/65/6 20/66/6 18/67/6 22/68/6
f 25/69/1 26/70/1 28/71/1 27/72/1
f 27/73/2 28/74/2 32/75/2 31/76/2
f 31/77/3 32/78/3 30/79/3 29/80/3
f 29/81/4 30/82/4 26/83/4 25/84/4
f 27/85/5 31/86/5 29/87/5 25/88/5
f 32/89/6 28/90/6 26/91/6 30/92/6
f 33/93/1 34/94/1 36/95/1 35/96/1
f 35/97/2 36/98/2 40/99/2 39/100/2
f 39/101/3 40/102/3 38/103/3 37/104/3
f 37/105/4 38/106/4 34/107/4 33/108/4
f 35/109/5 39/110/5 37/111/5 33/112/5
f 40/113/6 36/114/6 34/115/6 38/116/6
f 41/117/1 42/118/1 44/119/1 43/120/1
f 43/121/2 44/122/2 48/123/2 47/124/2
f 47/125/3 48/126/3 46/127/3 45/128/3
f 45/129/4 46/130/4 42/131/4 41/132/4
f 43/133/5 47/134/5 45/135/5 41/136/5
f 48/137/6 44/138/6 42/139/6 46/140/6
f 49/141/1 50/142/1 52/143/1 51/144/1
f 51/145/2 52/146/2 56/147/2 55/148/2
f 55/149/3 56/150/3 54/151/3 53/152/3
f 53/153/4 54/154/4 50/155/4 49/156/4
f 51/157/5 55/158/5 53/159/5 49/160/5
f 56/161/6 52/162/6 50/163/6 54/164/6
