# Blender v2.78 (sub 0) OBJ File: 'Map16.blend'
# www.blender.org
mtllib RoomWall2Colored.mtl
o Cube.002_Cube.005
v -10.000000 -11.536789 -10.000000
v -10.000000 11.536789 -10.000000
v 10.000000 -11.536789 -10.000000
v 10.000000 11.536789 -10.000000
v -10.000000 -11.536789 -30.000000
v -10.000000 11.536789 -30.000000
v 10.000000 11.536789 -30.000000
v 10.000000 -11.536789 -30.000000
v -9.929289 11.536789 -9.929289
v -9.929289 -11.536789 -9.929289
v 9.929289 11.536789 -9.929289
v 9.929289 -11.536789 -9.929289
v -9.929289 11.536789 -29.929289
v -9.929289 -11.536789 -29.929289
v 9.929289 11.536789 -29.929289
v 9.929289 -11.536789 -29.929289
vn 0.0000 0.0000 -1.0000
vn -1.0000 0.0000 0.0000
vn 1.0000 0.0000 0.0000
vn 0.0000 0.0000 1.0000
vn 0.0000 -1.0000 0.0000
vn 0.0000 1.0000 0.0000
usemtl None
s off
f 6//1 8//1 5//1
f 6//2 1//2 2//2
f 8//3 4//3 3//3
f 16//4 13//4 14//4
f 10//3 13//3 9//3
f 11//2 16//2 12//2
f 3//5 16//5 8//5
f 6//6 15//6 7//6
f 8//5 14//5 5//5
f 2//6 13//6 6//6
f 1//5 14//5 10//5
f 4//6 15//6 11//6
f 6//1 7//1 8//1
f 6//2 5//2 1//2
f 8//3 7//3 4//3
f 16//4 15//4 13//4
f 10//3 14//3 13//3
f 11//2 15//2 16//2
f 3//5 12//5 16//5
f 6//6 13//6 15//6
f 8//5 16//5 14//5
f 2//6 9//6 13//6
f 1//5 5//5 14//5
f 4//6 7//6 15//6
