# Blender v2.78 (sub 0) OBJ File: 'ChandleEER02.blend'
# www.blender.org
mtllib hangingLampE.mtl
o Cylinder.000_Cylinder.002
v -2.490762 -25.537548 -1.504599
v -0.057640 -25.537548 -2.909363
v -0.057640 -26.247208 -0.541290
v -0.439952 -26.247208 -0.320563
v 0.057640 -25.537548 -2.909363
v 2.490762 -25.537548 -1.504599
v 0.439951 -26.247208 -0.320563
v 0.057640 -26.247208 -0.541290
v 2.490762 -25.537548 1.504599
v 0.057640 -25.537548 2.909362
v 0.057640 -26.247208 0.541290
v 0.439951 -26.247208 0.320563
v -2.548402 -25.537548 1.404763
v -2.548402 -25.537548 -1.404763
v -0.497592 -26.247208 -0.220728
v -0.497592 -26.247208 0.220727
v 2.548402 -25.537548 -1.404763
v 2.548402 -25.537548 1.404764
v 0.497591 -26.247208 0.220728
v 0.497591 -26.247208 -0.220728
v -0.057641 -25.537548 2.909362
v -2.490762 -25.537548 1.504599
v -0.439952 -26.247208 0.320563
v -0.057640 -26.247208 0.541290
v 0.044815 -26.643787 -5.530527
v 0.044815 -24.812321 -5.530527
v 0.764885 -24.812321 -5.114794
v 0.764885 -26.643787 -5.114794
v 0.809700 -26.643787 -5.037173
v 0.809700 -24.812321 -5.037173
v 0.809700 -24.812321 -4.205707
v 0.809700 -26.643787 -4.205707
v 0.764885 -26.643787 -4.128086
v 0.764885 -24.812321 -4.128086
v 0.044815 -24.812321 -3.712353
v 0.044815 -26.643787 -3.712353
v -0.044815 -26.643787 -3.712353
v -0.044815 -24.812321 -3.712353
v -0.764885 -24.812321 -4.128086
v -0.764885 -26.643787 -4.128086
v -0.809700 -26.643787 -4.205707
v -0.809700 -24.812321 -4.205707
v -0.809700 -24.812321 -5.037173
v -0.809700 -26.643787 -5.037173
v -0.764885 -26.643787 -5.114794
v -0.764885 -24.812321 -5.114794
v -0.044815 -24.812321 -5.530527
v -0.044815 -26.643787 -5.530527
v 4.811985 -26.643787 -2.726453
v 4.811985 -24.812321 -2.726453
v 4.811985 -24.812321 -1.894987
v 4.811985 -26.643787 -1.894987
v 4.767170 -26.643787 -1.817365
v 4.767170 -24.812321 -1.817365
v 4.047099 -24.812321 -1.401633
v 4.047099 -26.643787 -1.401633
v 3.957470 -26.643787 -1.401633
v 3.957470 -24.812321 -1.401633
v 3.237399 -24.812321 -1.817366
v 3.237399 -26.643787 -1.817366
v 3.192585 -26.643787 -1.894987
v 3.192585 -24.812321 -1.894987
v 3.192585 -24.812321 -2.726453
v 3.192585 -26.643787 -2.726453
v 3.237399 -26.643787 -2.804074
v 3.237399 -24.812321 -2.804074
v 3.957470 -24.812321 -3.219807
v 3.957470 -26.643787 -3.219807
v 4.047100 -26.643787 -3.219807
v 4.047100 -24.812321 -3.219807
v 4.767169 -24.812321 -2.804074
v 4.767169 -26.643787 -2.804074
v 4.767169 -26.643787 2.804075
v 4.767169 -24.812321 2.804075
v 4.047099 -24.812321 3.219808
v 4.047099 -26.643787 3.219808
v 3.957469 -26.643787 3.219808
v 3.957469 -24.812321 3.219808
v 3.237399 -24.812321 2.804075
v 3.237399 -26.643787 2.804075
v 3.192584 -26.643787 2.726453
v 3.192584 -24.812321 2.726453
v 3.192585 -24.812321 1.894987
v 3.192585 -26.643787 1.894987
v 3.237399 -26.643787 1.817366
v 3.237399 -24.812321 1.817366
v 3.957470 -24.812321 1.401633
v 3.957470 -26.643787 1.401633
v 4.047099 -26.643787 1.401633
v 4.047099 -24.812321 1.401633
v 4.767169 -24.812321 1.817366
v 4.767169 -26.643787 1.817366
v 4.811985 -26.643787 1.894988
v 4.811985 -24.812321 1.894988
v 4.811985 -24.812321 2.726454
v 4.811985 -26.643787 2.726454
v -0.044816 -26.643787 5.530527
v -0.044816 -24.812321 5.530527
v -0.764886 -24.812321 5.114794
v -0.764886 -26.643787 5.114794
v -0.809701 -26.643787 5.037173
v -0.809701 -24.812321 5.037173
v -0.809701 -24.812321 4.205707
v -0.809701 -26.643787 4.205707
v -0.764886 -26.643787 4.128086
v -0.764886 -24.812321 4.128086
v -0.044815 -24.812321 3.712353
v -0.044815 -26.643787 3.712353
v 0.044814 -26.643787 3.712353
v 0.044814 -24.812321 3.712353
v 0.764885 -24.812321 4.128086
v 0.764885 -26.643787 4.128086
v 0.809699 -26.643787 4.205707
v 0.809699 -24.812321 4.205707
v 0.809699 -24.812321 5.037173
v 0.809699 -26.643787 5.037173
v 0.764885 -26.643787 5.114794
v 0.764885 -24.812321 5.114794
v 0.044814 -24.812321 5.530527
v 0.044814 -26.643787 5.530527
v -4.811985 -26.643787 2.726452
v -4.811985 -24.812321 2.726452
v -4.811985 -24.812321 1.894986
v -4.811985 -26.643787 1.894986
v -4.767170 -26.643787 1.817365
v -4.767170 -24.812321 1.817365
v -4.047100 -24.812321 1.401632
v -4.047100 -26.643787 1.401632
v -3.957470 -26.643787 1.401632
v -3.957470 -24.812321 1.401632
v -3.237400 -24.812321 1.817365
v -3.237400 -26.643787 1.817365
v -3.192585 -26.643787 1.894987
v -3.192585 -24.812321 1.894987
v -3.192585 -24.812321 2.726452
v -3.192585 -26.643787 2.726452
v -3.237400 -26.643787 2.804074
v -3.237400 -24.812321 2.804074
v -3.957470 -24.812321 3.219806
v -3.957470 -26.643787 3.219806
v -4.047100 -26.643787 3.219807
v -4.047100 -24.812321 3.219807
v -4.767170 -24.812321 2.804074
v -4.767170 -26.643787 2.804074
v -4.767169 -26.643787 -2.804076
v -4.767169 -24.812321 -2.804076
v -4.047099 -24.812321 -3.219808
v -4.047099 -26.643787 -3.219808
v -3.957469 -26.643787 -3.219808
v -3.957469 -24.812321 -3.219808
v -3.237399 -24.812321 -2.804075
v -3.237399 -26.643787 -2.804075
v -3.192584 -26.643787 -2.726454
v -3.192584 -24.812321 -2.726454
v -3.192584 -24.812321 -1.894988
v -3.192584 -26.643787 -1.894988
v -3.237399 -26.643787 -1.817366
v -3.237399 -24.812321 -1.817366
v -3.957469 -24.812321 -1.401634
v -3.957469 -26.643787 -1.401634
v -4.047099 -26.643787 -1.401634
v -4.047099 -24.812321 -1.401634
v -4.767169 -24.812321 -1.817367
v -4.767169 -26.643787 -1.817367
v -4.811985 -26.643787 -1.894988
v -4.811985 -24.812321 -1.894988
v -4.811984 -24.812321 -2.726454
v -4.811984 -26.643787 -2.726454
vt 0.2546 0.2523
vt 1.4712 0.9547
vt 1.4712 -0.2294
vt 1.2800 -0.3397
vt 0.5288 0.9547
vt 1.7454 0.2523
vt 0.7200 -0.3397
vt 0.5288 -0.2294
vt 0.7454 0.7477
vt -0.4712 0.0453
vt -0.4712 1.2294
vt -0.2800 1.3397
vt 0.2258 0.7976
vt 0.2258 2.2024
vt 1.2512 1.6104
vt 1.2512 1.3896
vt 0.7742 0.2024
vt 0.7742 -1.2024
vt -0.2512 -0.6104
vt -0.2512 -0.3896
vt 0.4712 0.0453
vt -0.7454 0.7477
vt 0.2800 1.3397
vt 0.4712 1.2294
vt 0.5224 0.1781
vt 0.5224 1.0938
vt 0.8824 1.0938
vt 0.8824 0.1781
vt 0.0186 0.1781
vt 0.0186 1.0938
vt -0.3971 1.0938
vt -0.3971 0.1781
vt 0.8824 0.1781
vt 0.8824 1.0938
vt 0.5224 1.0938
vt 0.5224 0.1781
vt 0.4776 0.1781
vt 0.4776 1.0938
vt 0.1176 1.0938
vt 0.1176 0.1781
vt 0.6029 0.1781
vt 0.6029 1.0938
vt 1.0186 1.0938
vt 1.0186 0.1781
vt 0.1176 0.1781
vt 0.1176 1.0938
vt 0.4776 1.0938
vt 0.4776 0.1781
vt 0.8632 0.1781
vt 0.8632 1.0938
vt 0.4475 1.0938
vt 0.4475 0.1781
vt 0.8836 0.1781
vt 0.8836 1.0938
vt 0.5235 1.0938
vt 0.5235 0.1781
vt 0.4787 0.1781
vt 0.4787 1.0938
vt 0.1187 1.0938
vt 0.1187 0.1781
vt 0.4475 0.1781
vt 0.4475 1.0938
vt 0.8632 1.0938
vt 0.8632 0.1781
vt 0.1187 0.1781
vt 0.1187 1.0938
vt 0.4787 1.0938
vt 0.4787 0.1781
vt 0.5235 0.1781
vt 0.5235 1.0938
vt 0.8836 1.0938
vt 0.8836 0.1781
vt 0.8836 0.1781
vt 0.8836 1.0938
vt 0.5235 1.0938
vt 0.5235 0.1781
vt 0.4787 0.1781
vt 0.4787 1.0938
vt 0.1187 1.0938
vt 0.1187 0.1781
vt 0.1368 0.1781
vt 0.1368 1.0938
vt 0.5525 1.0938
vt 0.5525 0.1781
vt 0.1187 0.1781
vt 0.1187 1.0938
vt 0.4787 1.0938
vt 0.4787 0.1781
vt 0.5235 0.1781
vt 0.5235 1.0938
vt 0.8836 1.0938
vt 0.8836 0.1781
vt 0.5525 0.1781
vt 0.5525 1.0938
vt 0.1368 1.0938
vt 0.1368 0.1781
vt 0.4776 0.1781
vt 0.4776 1.0938
vt 0.1176 1.0938
vt 0.1176 0.1781
vt 0.9814 0.1781
vt 0.9814 1.0938
vt 1.3971 1.0938
vt 1.3971 0.1781
vt 0.1176 0.1781
vt 0.1176 1.0938
vt 0.4776 1.0938
vt 0.4776 0.1781
vt 0.5224 0.1781
vt 0.5224 1.0938
vt 0.8824 1.0938
vt 0.8824 0.1781
vt 0.3971 0.1781
vt 0.3971 1.0938
vt -0.0186 1.0938
vt -0.0186 0.1781
vt 0.8824 0.1781
vt 0.8824 1.0938
vt 0.5224 1.0938
vt 0.5224 0.1781
vt 0.1368 0.1781
vt 0.1368 1.0938
vt 0.5525 1.0938
vt 0.5525 0.1781
vt 0.1164 0.1781
vt 0.1164 1.0938
vt 0.4765 1.0938
vt 0.4765 0.1781
vt 0.5213 0.1781
vt 0.5213 1.0938
vt 0.8813 1.0938
vt 0.8813 0.1781
vt 0.5525 0.1781
vt 0.5525 1.0938
vt 0.1368 1.0938
vt 0.1368 0.1781
vt 0.8813 0.1781
vt 0.8813 1.0938
vt 0.5213 1.0938
vt 0.5213 0.1781
vt 0.4765 0.1781
vt 0.4765 1.0938
vt 0.1164 1.0938
vt 0.1164 0.1781
vt 0.1164 0.1781
vt 0.1164 1.0938
vt 0.4765 1.0938
vt 0.4765 0.1781
vt 0.5213 0.1781
vt 0.5213 1.0938
vt 0.8813 1.0938
vt 0.8813 0.1781
vt 0.8632 0.1781
vt 0.8632 1.0938
vt 0.4475 1.0938
vt 0.4475 0.1781
vt 0.8813 0.1781
vt 0.8813 1.0938
vt 0.5213 1.0938
vt 0.5213 0.1781
vt 0.4765 0.1781
vt 0.4765 1.0938
vt 0.1164 1.0938
vt 0.1164 0.1781
vt 0.4475 0.1781
vt 0.4475 1.0938
vt 0.8632 1.0938
vt 0.8632 0.1781
vn -0.1635 -0.9450 -0.2832
vn 0.1635 -0.9450 -0.2832
vn 0.1635 -0.9450 0.2832
vn -0.3270 -0.9450 0.0000
vn 0.3270 -0.9450 0.0000
vn -0.1635 -0.9450 0.2832
vn 0.5000 0.0000 -0.8660
vn 1.0000 0.0000 0.0000
vn 0.5000 0.0000 0.8660
vn -0.5000 0.0000 0.8660
vn -1.0000 0.0000 0.0000
vn -0.5000 0.0000 -0.8660
usemtl None
s off
f 1/1/1 2/2/1 3/3/1 4/4/1
f 5/5/2 6/6/2 7/7/2 8/8/2
f 9/9/3 10/10/3 11/11/3 12/12/3
f 13/13/4 14/14/4 15/15/4 16/16/4
f 17/17/5 18/18/5 19/19/5 20/20/5
f 21/21/6 22/22/6 23/23/6 24/24/6
s 1
f 25/25/7 26/26/7 27/27/7 28/28/7
f 29/29/8 30/30/8 31/31/8 32/32/8
f 33/33/9 34/34/9 35/35/9 36/36/9
f 37/37/10 38/38/10 39/39/10 40/40/10
f 41/41/11 42/42/11 43/43/11 44/44/11
f 45/45/12 46/46/12 47/47/12 48/48/12
f 49/49/8 50/50/8 51/51/8 52/52/8
f 53/53/9 54/54/9 55/55/9 56/56/9
f 57/57/10 58/58/10 59/59/10 60/60/10
f 61/61/11 62/62/11 63/63/11 64/64/11
f 65/65/12 66/66/12 67/67/12 68/68/12
f 69/69/7 70/70/7 71/71/7 72/72/7
f 73/73/9 74/74/9 75/75/9 76/76/9
f 77/77/10 78/78/10 79/79/10 80/80/10
f 81/81/11 82/82/11 83/83/11 84/84/11
f 85/85/12 86/86/12 87/87/12 88/88/12
f 89/89/7 90/90/7 91/91/7 92/92/7
f 93/93/8 94/94/8 95/95/8 96/96/8
f 97/97/10 98/98/10 99/99/10 100/100/10
f 101/101/11 102/102/11 103/103/11 104/104/11
f 105/105/12 106/106/12 107/107/12 108/108/12
f 109/109/7 110/110/7 111/111/7 112/112/7
f 113/113/8 114/114/8 115/115/8 116/116/8
f 117/117/9 118/118/9 119/119/9 120/120/9
f 121/121/11 122/122/11 123/123/11 124/124/11
f 125/125/12 126/126/12 127/127/12 128/128/12
f 129/129/7 130/130/7 131/131/7 132/132/7
f 133/133/8 134/134/8 135/135/8 136/136/8
f 137/137/9 138/138/9 139/139/9 140/140/9
f 141/141/10 142/142/10 143/143/10 144/144/10
f 145/145/12 146/146/12 147/147/12 148/148/12
f 149/149/7 150/150/7 151/151/7 152/152/7
f 153/153/8 154/154/8 155/155/8 156/156/8
f 157/157/9 158/158/9 159/159/9 160/160/9
f 161/161/10 162/162/10 163/163/10 164/164/10
f 165/165/11 166/166/11 167/167/11 168/168/11
