# This file uses centimeters as units for non-parametric coordinates.

mtllib flagpole.mtl
g default
v 0.231075 0.041317 -0.318047
v 0.373887 0.041317 -0.121483
v 0.000000 0.041317 0.393127
v -0.231074 0.041317 0.318047
v 0.373887 0.041317 0.121483
v 0.231075 0.041317 0.318047
v 0.231075 22.870823 -0.318047
v 0.000000 0.041317 -0.393128
v 0.000000 22.870823 -0.393128
v 0.373887 22.870823 -0.121483
v 0.000000 22.857361 0.393127
v 0.231075 22.864201 0.318047
v -0.281315 22.899942 -0.398319
v -0.437894 23.094194 -0.598944
v -0.009029 22.907349 -0.489108
v -0.013798 23.105732 -0.740351
v -0.448108 22.888262 -0.164907
v -0.693927 23.058102 0.211427
v -0.697680 23.076000 -0.235397
v -0.445698 22.876768 0.121971
v 0.264746 22.907654 -0.402596
v -0.373886 22.854246 0.097156
v 0.412616 23.106205 -0.605605
v 0.373887 22.870823 0.012011
v 0.358411 22.870823 -0.116455
v -0.275007 22.869854 0.352739
v -0.001655 23.047806 0.705601
v -0.428069 23.047333 0.570856
v -0.001232 22.870159 0.439251
v 0.371449 22.870823 0.120691
v 0.373887 22.870823 0.121483
v 0.373887 22.870823 0.116197
v 0.362561 22.870823 0.137071
v 0.240105 22.861803 0.305618
v 0.271054 22.877567 0.348462
v -0.893510 24.262880 -0.244407
v -0.713892 24.503960 0.269515
v -0.717645 24.521858 -0.177308
v -0.888781 24.240324 0.318624
v 0.437847 22.889248 0.115051
v 0.682226 23.077538 0.200648
v 0.678474 23.095436 -0.246176
v 0.853363 23.359072 -0.295284
v 0.422440 23.059343 0.564194
v 0.858092 23.336515 0.267746
v -0.033763 24.551590 -0.682262
v -0.034186 24.729237 -0.415912
v 0.392652 24.552063 -0.547517
v -0.306472 24.721828 -0.325123
v 0.239589 24.729542 -0.329400
v -0.031826 24.822075 0.052745
v -0.448034 24.493191 0.628945
v -0.026389 24.692047 0.512447
v -0.300164 24.691742 0.425935
v -0.021620 24.493664 0.763690
v 0.412690 24.711134 0.188247
v 0.410280 24.722628 -0.098632
v 0.658509 24.541294 -0.188087
v 0.662262 24.523396 0.258736
v 0.245897 24.699453 0.421658
v 0.402476 24.505201 0.622283
v -0.231074 22.867348 -0.318047
v -0.231074 0.041317 -0.318047
v -0.373886 0.041317 -0.121483
v -0.373886 22.862406 -0.121483
v -0.361312 22.858946 -0.138790
v -0.373886 22.858160 0.121483
v -0.373886 0.041317 0.121483
v -0.231074 22.856228 0.318047
v -0.240867 22.853294 0.304569
v -0.001412 22.857061 0.392668
v -0.880692 23.334581 -0.281702
v -0.553342 23.357506 -0.739798
v -0.979229 23.638691 -0.299290
v -0.616359 23.664103 -0.807093
v -0.018951 23.372044 -0.917981
v -0.023982 23.680218 -1.004610
v -0.875963 23.312027 0.281329
v -0.983646 23.958561 -0.286439
v -0.620776 23.983973 -0.794242
v 0.000000 22.870823 -0.387863
v -0.012045 22.870823 -0.389214
v -0.007739 22.870823 -0.390332
v -0.973987 23.613688 0.324834
v -0.028398 24.000088 -0.991759
v 0.518363 23.372641 -0.748192
v -0.978404 23.933558 0.337685
v -0.566160 24.285805 -0.702503
v 0.571635 23.680882 -0.816398
v -0.031769 24.300343 -0.880686
v -0.540963 23.298456 0.734236
v 0.435437 22.900740 -0.171828
v 0.567219 24.000750 -0.803547
v -0.602636 23.598646 0.826886
v -0.457859 24.540052 -0.540855
v 0.505545 24.300940 -0.710897
v -0.607053 23.918514 0.839737
v -0.003649 23.299053 0.904025
v 0.942986 23.665838 -0.314346
v -0.473265 24.710148 -0.091711
v -0.553781 24.226755 0.771531
v 0.938569 23.985708 -0.301495
v -0.007019 23.599308 1.015099
v -0.470855 24.698656 0.195167
v 0.530742 23.313591 0.725842
v 0.840545 24.287369 -0.257989
v -0.011436 23.919178 1.027950
v 0.948228 23.640835 0.309778
v 0.585358 23.615423 0.817581
v -0.016467 24.227352 0.941320
v 0.943811 23.960705 0.322629
v 0.580941 23.935293 0.830432
v 0.845274 24.264814 0.305042
v 0.517924 24.241890 0.763137
v -0.222594 22.865757 -0.320803
v 0.206629 22.870823 -0.321949
v 0.221275 22.870823 -0.304559
v 0.354858 22.870823 -0.145946
v 0.373887 22.867298 0.093865
vt 0.400000 0.688440
vt 0.400000 0.312500
vt 0.425000 0.312500
vt 0.425000 0.688440
vt 0.375000 0.688440
vt 0.375000 0.312500
vt 0.550000 0.688218
vt 0.550000 0.312500
vt 0.575000 0.312500
vt 0.575000 0.688331
vt 0.250000 0.150000
vt 0.250000 0.250000
vt 0.150000 0.150000
vt 0.150000 0.250000
vt 0.350000 0.150000
vt 0.450000 0.250000
vt 0.350000 0.250000
vt 0.450000 0.150000
vt 0.050000 0.150000
vt 0.450000 0.125248
vt 0.050000 0.250000
vt 0.648603 0.838976
vt 0.648603 0.892034
vt 0.642452 0.889777
vt 0.550000 0.150000
vt 0.650000 0.250000
vt 0.550000 0.250000
vt 0.650000 0.150000
vt 0.647634 0.795740
vt 0.648603 0.795466
vt 0.648603 0.797567
vt 0.644101 0.789271
vt 0.750000 0.132773
vt 0.750000 0.150000
vt 0.350000 0.650000
vt 0.450000 0.750000
vt 0.350000 0.750000
vt 0.450000 0.650000
vt 0.850000 0.150000
vt 0.850000 0.250000
vt 0.950000 0.250000
vt 0.950000 0.350000
vt 0.750000 0.250000
vt 0.850000 0.350000
vt 0.150000 0.750000
vt 0.150000 0.850000
vt 0.050000 0.750000
vt 0.250000 0.850000
vt 0.050000 0.850000
vt 0.275000 1.000000
vt 0.175000 1.000000
vt 0.375000 1.000000
vt 0.075000 1.000000
vt 0.475000 1.000000
vt 0.975000 1.000000
vt 0.550000 0.750000
vt 0.650000 0.850000
vt 0.550000 0.850000
vt 0.575000 1.000000
vt 0.875000 1.000000
vt 0.675000 1.000000
vt 0.775000 1.000000
vt 0.650000 0.750000
vt 0.850000 0.850000
vt 0.950000 0.850000
vt 0.950000 0.750000
vt 0.850000 0.750000
vt 0.750000 0.850000
vt 0.750000 0.750000
vt 0.450000 0.688383
vt 0.450000 0.312500
vt 0.475000 0.312500
vt 0.475000 0.688301
vt 0.472799 0.688244
vt 0.500000 0.688231
vt 0.500000 0.312500
vt 0.525000 0.312500
vt 0.525000 0.688200
vt 0.523286 0.688151
vt 0.549847 0.688213
vt 0.350000 0.350000
vt 0.250000 0.350000
vt 0.350000 0.450000
vt 0.250000 0.450000
vt 0.150000 0.350000
vt 0.150000 0.450000
vt 0.450000 0.350000
vt 0.350000 0.550000
vt 0.250000 0.550000
vt 0.500000 0.997824
vt 0.500000 1.000000
vt 0.495213 0.998445
vt 0.496924 0.998884
vt 0.450000 0.450000
vt 0.150000 0.550000
vt 0.050000 0.350000
vt 0.450000 0.550000
vt 0.250000 0.650000
vt 0.050000 0.450000
vt 0.150000 0.650000
vt 0.550000 0.350000
vt 0.950000 0.150000
vt 0.050000 0.550000
vt 0.550000 0.450000
vt 0.250000 0.750000
vt 0.050000 0.650000
vt 0.550000 0.550000
vt 0.650000 0.350000
vt 0.950000 0.450000
vt 0.350000 0.850000
vt 0.550000 0.650000
vt 0.950000 0.550000
vt 0.650000 0.450000
vt 0.450000 0.850000
vt 0.750000 0.350000
vt 0.950000 0.650000
vt 0.650000 0.550000
vt 0.850000 0.450000
vt 0.750000 0.450000
vt 0.650000 0.650000
vt 0.850000 0.550000
vt 0.750000 0.550000
vt 0.850000 0.650000
vt 0.750000 0.650000
vt 0.449082 0.688356
vt 0.426303 0.688440
vt 0.497497 0.688167
vt 0.350000 0.120245
vt 0.250000 0.117803
vt 0.254001 0.119641
vt 0.150000 0.117104
vt 0.152082 0.117209
vt 0.357370 0.124617
vt 0.050000 0.116888
vt 0.146292 0.117096
vt 0.587946 0.964533
vt 0.591841 0.970159
vt 0.582126 0.971645
vt 0.550000 0.130847
vt 0.460178 0.130187
vt 0.950000 0.121962
vt 0.144590 0.117390
vt 0.641040 0.901740
vt 0.650000 0.134886
vt 0.556900 0.134220
vt 0.600000 0.688440
vt 0.600000 0.312500
vt 0.625000 0.312500
vt 0.625000 0.688440
vt 0.611264 0.688440
vt 0.602842 0.688382
vt 0.600544 0.688440
vt 0.598017 0.688440
vt 0.576581 0.688291
vt 0.850000 0.127866
vt 0.883691 0.128105
vt 0.936613 0.123109
vt 0.650517 0.135187
vt 0.735379 0.135825
vt 0.831053 0.133337
vt 0.838579 0.132548
vt 0.840699 0.132332
vn 0.587785 0.000000 -0.809017
vn 0.587785 0.000000 -0.809017
vn 0.000017 0.000000 -1.000000
vn 0.000017 0.000000 -1.000000
vn 0.951055 0.000000 -0.309022
vn 0.951055 0.000000 -0.309022
vn 0.309015 0.000000 0.951057
vn 0.309015 0.000000 0.951057
vn 0.309015 0.000000 0.951057
vn 0.309015 0.000000 0.951057
vn 0.006953 -0.810540 -0.585642
vn -0.317420 -0.818498 -0.478859
vn -0.430150 -0.655100 -0.621141
vn 0.003088 -0.643313 -0.765598
vn -0.691704 -0.691969 0.206698
vn -0.695537 -0.673684 -0.249757
vn -0.519395 -0.830296 -0.202085
vn -0.521785 -0.840946 0.143354
vn 0.332629 -0.809614 -0.483615
vn 0.438697 -0.642829 -0.627946
vn -0.290037 -0.956580 0.028854
vn -0.272599 -0.948875 -0.159145
vn -0.310201 -0.950010 -0.035454
vn 0.000000 1.000000 0.000000
vn 0.000000 1.000000 0.000056
vn 0.000000 1.000000 0.000051
vn 0.015494 -0.702486 0.711529
vn -0.420115 -0.702971 0.573878
vn -0.318607 -0.846213 0.427099
vn 0.015887 -0.844084 0.535976
vn 0.000000 1.000000 -0.000521
vn 0.000000 1.000000 -0.000498
vn 0.000000 1.000000 0.000000
vn 0.000000 1.000000 -0.000634
vn 0.219388 -0.956279 0.193388
vn 0.349848 -0.835568 0.423595
vn -0.008821 -0.962618 0.270719
vn 0.115529 -0.956346 0.268432
vn 0.115529 -0.956346 0.268432
vn -0.710286 0.653830 0.260767
vn -0.714119 0.672116 -0.195689
vn -0.866906 0.428420 -0.254813
vn -0.862224 0.406083 0.302765
vn 0.549376 -0.824546 0.135317
vn 0.714119 -0.672116 0.195689
vn 0.448732 -0.690701 0.567073
vn 0.710287 -0.653830 -0.260765
vn 0.862224 -0.406083 -0.302765
vn 0.866906 -0.428420 0.254815
vn 0.420114 0.702971 -0.573878
vn -0.015494 0.702486 -0.711528
vn -0.016140 0.888761 -0.458087
vn 0.274637 0.889082 -0.366207
vn -0.305335 0.880893 -0.361660
vn -0.013796 0.999099 0.040142
vn -0.482484 0.868486 -0.113755
vn -0.479925 0.856280 0.190934
vn -0.298635 0.848939 0.436027
vn 0.455927 0.881739 -0.121108
vn -0.007858 0.849260 0.527917
vn -0.438697 0.642829 0.627946
vn -0.003088 0.643314 0.765596
vn 0.458485 0.869533 0.183585
vn 0.281335 0.857126 0.431494
vn 0.695537 0.673684 0.249757
vn 0.691704 0.691969 -0.206699
vn 0.430150 0.655099 0.621141
vn -0.809017 -0.000000 -0.587785
vn -0.809017 -0.000000 -0.587785
vn -0.809017 -0.000000 -0.587785
vn -0.809017 -0.000000 -0.587785
vn -0.809017 -0.000000 -0.587785
vn -0.809017 0.000000 0.587785
vn -0.809017 0.000000 0.587785
vn -0.809017 0.000000 0.587785
vn -0.809017 0.000000 0.587785
vn -0.809017 0.000000 0.587785
vn -0.309015 0.000000 0.951057
vn -0.309015 0.000000 0.951057
vn -0.309015 0.000000 0.951057
vn -0.309015 0.000000 0.951057
vn -0.309015 0.000000 0.951057
vn -0.855048 -0.430336 -0.289317
vn -0.530867 -0.407633 -0.742978
vn -0.941045 -0.148516 -0.303936
vn -0.585948 -0.123648 -0.800860
vn -0.001648 -0.393236 -0.919436
vn -0.006263 -0.107878 -0.994144
vn -0.850366 -0.452673 0.268264
vn -0.945119 0.146417 -0.292084
vn -0.590024 0.171285 -0.789008
vn 0.000000 1.000000 0.000164
vn 0.000000 1.000000 0.000171
vn 0.000000 0.999999 0.001351
vn 0.000000 0.999999 0.001351
vn -0.935916 -0.172983 0.306819
vn -0.010336 0.187055 -0.982295
vn 0.530466 -0.392644 -0.751290
vn -0.939989 0.121950 0.318667
vn -0.542726 0.451124 -0.708474
vn 0.576594 -0.107230 -0.809964
vn -0.013506 0.465520 -0.884934
vn -0.518608 -0.466112 0.716788
vn 0.539644 -0.815069 -0.210824
vn 0.572521 0.187703 -0.798115
vn -0.572521 -0.187703 0.798115
vn -0.448732 0.690701 -0.567073
vn 0.518607 0.466111 -0.716789
vn -0.576594 0.107230 0.809964
vn 0.013506 -0.465520 0.884935
vn 0.939989 -0.121950 -0.318666
vn -0.530466 0.392644 0.751290
vn 0.935917 0.172983 -0.306818
vn 0.010336 -0.187055 0.982295
vn 0.542725 -0.451123 0.708476
vn 0.850365 0.452673 -0.268265
vn 0.006263 0.107878 0.994144
vn 0.945119 -0.146417 0.292083
vn 0.590024 -0.171285 0.789008
vn 0.001648 0.393236 0.919436
vn 0.941046 0.148516 0.303934
vn 0.585950 0.123648 0.800858
vn 0.855048 0.430336 0.289316
vn 0.530868 0.407634 0.742977
vn -0.309016 0.000000 -0.951057
vn -0.309016 0.000000 -0.951057
vn -0.309016 0.000000 -0.951057
vn -0.309016 0.000000 -0.951057
vn -1.000000 0.000000 0.000000
vn -1.000000 0.000000 0.000000
vn -1.000000 0.000000 0.000000
vn -1.000000 0.000000 0.000000
vn -1.000000 0.000000 0.000000
vn -0.150176 -0.941571 -0.301482
vn -0.250060 -0.941532 -0.225805
vn 0.013270 -0.937792 -0.346943
vn -0.089419 -0.934552 -0.344408
vn 0.188468 -0.937553 -0.292359
vn 0.110367 -0.931733 -0.345967
vn 0.000000 1.000000 0.000104
vn 0.000000 1.000000 0.000108
vn 0.000000 1.000000 0.000150
vn -0.192335 -0.961890 0.194357
vn -0.246869 -0.956748 0.153915
vn 0.301083 -0.941569 -0.150988
vn 0.272977 -0.934142 -0.229919
vn 0.000000 1.000000 0.000084
vn -0.084256 -0.959149 0.270062
vn 0.951065 0.000000 0.308993
vn 0.951065 0.000000 0.308993
vn 1.000000 0.000000 0.000001
vn 1.000000 0.000000 0.000001
vn 1.000000 0.000000 0.000001
vn 0.809018 0.000000 0.587785
vn 0.809017 0.000000 0.587785
vn 0.809018 0.000000 0.587785
vn 0.809017 0.000000 0.587785
vn 0.318140 -0.947800 0.021501
vn 0.336308 -0.940880 -0.040507
vn 0.336308 -0.940880 -0.040507
vn 0.276162 -0.949360 0.149833
vn 0.276162 -0.949360 0.149833
vn 0.276162 -0.949360 0.149833
s 1
g pSphere2
usemtl initialShadingGroup
f 7/1/1 1/2/2 8/3/3 9/4/4
f 10/5/5 2/6/6 1/2/2 7/1/1
s off
f 11/7/7 3/8/8 6/9/9 12/10/10
s 2
f 15/13/11 13/11/12 14/12/13 16/14/14
f 18/16/15 19/17/16 17/15/17 20/18/18
f 21/19/19 15/13/11 16/14/14 23/21/20
f 22/20/21 20/18/18 17/15/17 66/128/22 65/133/23
s 4
f 24/22/24 10/23/25 25/24/26
s 2
f 27/26/27 28/27/28 26/25/29 29/28/30
s 6
f 30/29/31 31/30/32 32/31/33
f 33/32/34 31/30/32 30/29/31
s 2
f 34/33/35 35/34/36 29/28/30 71/144/37 11/158/38 12/159/39
f 37/36/40 38/37/41 36/35/42 39/38/43
f 35/34/36 40/39/44 41/40/45 44/43/46
f 41/40/45 42/41/47 43/42/48 45/44/49
f 48/47/50 46/45/51 47/46/52 50/49/53
f 47/46/52 49/48/54 51/51/55
f 51/50/55 49/48/54 100/110/56
f 51/52/55 100/110/56 104/114/57
f 47/46/52 51/53/55 50/49/53
f 51/54/55 104/114/57 54/58/58
f 51/55/55 57/65/59 50/49/53
f 53/57/60 54/58/58 52/56/61 55/63/62
f 51/59/55 54/58/58 53/57/60
f 51/60/55 56/64/63 57/65/59
f 51/61/55 53/57/60 60/68/64
f 51/62/55 60/68/64 56/64/63
f 59/67/65 58/66/66 57/65/59 56/64/63
f 60/68/64 53/57/60 55/63/62 61/69/67
s off
f 62/70/68 63/71/69 64/72/70 65/73/71 66/74/72
f 67/75/73 68/76/74 4/77/75 69/78/76 70/79/77
f 69/78/78 4/77/79 3/8/80 11/7/81 71/80/82
s 2
f 19/17/16 72/81/83 73/82/84 14/12/13
f 17/15/17 19/17/16 14/12/13 13/11/12
f 72/81/83 74/83/85 75/84/86 73/82/84
f 14/12/13 73/82/84 76/85/87 16/14/14
f 73/82/84 75/84/86 77/86/88 76/85/87
f 18/16/15 78/87/89 72/81/83 19/17/16
f 74/83/85 79/88/90 80/89/91 75/84/86
s 4
f 81/90/92 9/91/93 82/92/94 83/93/95
s 2
f 78/87/89 84/94/96 74/83/85 72/81/83
f 75/84/86 80/89/91 85/95/97 77/86/88
f 16/14/14 76/85/87 86/96/98 23/21/20
f 26/25/29 28/27/28 18/16/15 20/18/18
f 84/94/96 87/97/99 79/88/90 74/83/85
f 79/88/90 36/35/42 88/98/100 80/89/91
f 76/85/87 77/86/88 89/99/101 86/96/98
f 80/89/91 88/98/100 90/100/102 85/95/97
f 28/27/28 91/101/103 78/87/89 18/16/15
f 21/19/19 23/21/20 42/41/47 92/102/104
f 87/97/99 39/38/43 36/35/42 79/88/90
f 77/86/88 85/95/97 93/103/105 89/99/101
f 91/101/103 94/104/106 84/94/96 78/87/89
f 36/35/42 38/37/41 95/105/107 88/98/100
f 23/21/20 86/96/98 43/42/48 42/41/47
f 88/98/100 95/105/107 46/45/51 90/100/102
f 92/102/104 42/41/47 41/40/45 40/39/44
f 85/95/97 90/100/102 96/106/108 93/103/105
f 94/104/106 97/107/109 87/97/99 84/94/96
f 35/34/36 44/43/46 27/26/27 29/28/30
f 27/26/27 98/108/110 91/101/103 28/27/28
f 86/96/98 89/99/101 99/109/111 43/42/48
f 38/37/41 100/110/56 49/48/54 95/105/107
f 97/107/109 101/111/112 39/38/43 87/97/99
f 90/100/102 46/45/51 48/47/50 96/106/108
f 95/105/107 49/48/54 47/46/52 46/45/51
f 89/99/101 93/103/105 102/112/113 99/109/111
f 98/108/110 103/113/114 94/104/106 91/101/103
f 37/36/40 104/114/57 100/110/56 38/37/41
f 44/43/46 105/115/115 98/108/110 27/26/27
f 101/111/112 52/56/61 37/36/40 39/38/43
f 41/40/45 45/44/49 105/115/115 44/43/46
f 93/103/105 96/106/108 106/116/116 102/112/113
f 103/113/114 107/117/117 97/107/109 94/104/106
f 43/42/48 99/109/111 108/118/118 45/44/49
f 52/56/61 54/58/58 104/114/57 37/36/40
f 96/106/108 48/47/50 58/66/66 106/116/116
f 105/115/115 109/119/119 103/113/114 98/108/110
f 107/117/117 110/120/120 101/111/112 97/107/109
f 45/44/49 108/118/118 109/119/119 105/115/115
f 99/109/111 102/112/113 111/121/121 108/118/118
f 48/47/50 50/49/53 57/65/59 58/66/66
f 110/120/120 55/63/62 52/56/61 101/111/112
f 109/119/119 112/122/122 107/117/117 103/113/114
f 102/112/113 106/116/116 113/123/123 111/121/121
f 108/118/118 111/121/121 112/122/122 109/119/119
f 106/116/116 58/66/66 59/67/65 113/123/123
f 112/122/122 114/124/124 110/120/120 107/117/117
f 114/124/124 61/69/67 55/63/62 110/120/120
f 111/121/121 113/123/123 114/124/124 112/122/122
f 59/67/65 56/64/63 60/68/64 61/69/67
f 113/123/123 59/67/65 61/69/67 114/124/124
s 1
f 9/4/4 8/3/3 63/71/125 62/70/126 115/125/127 82/126/128
s off
f 65/73/129 64/72/130 68/76/131 67/75/132 22/127/133
s 2
f 66/128/22 17/15/17 13/11/12 115/129/134 62/130/135
f 115/129/134 13/11/12 15/13/11 83/131/136 82/132/137
f 83/131/136 15/13/11 21/19/19 116/134/138 81/135/139
s 4
f 117/136/140 7/137/141 9/91/93 81/90/92 116/138/142
s 2
f 70/139/143 26/25/29 20/18/18 22/20/21 67/140/144
f 116/134/138 21/19/19 92/102/104 118/141/145 117/142/146
s 4
f 25/24/26 10/23/25 7/137/141 117/136/140 118/143/147
s 2
f 71/144/37 29/28/30 26/25/29 70/139/143 69/145/148
s 1
f 31/146/149 5/147/150 2/148/6 10/149/5 24/150/151 119/151/152 32/152/153
f 12/10/154 6/9/155 5/147/150 31/146/149 33/153/156 34/154/157
s 2
f 118/141/145 92/102/104 40/39/44 119/155/158 24/156/159 25/157/160
f 119/155/158 40/39/44 35/34/36 34/33/35 33/160/161 30/161/162 32/162/163
