# Blender v2.78 (sub 0) OBJ File: 'Map18_Floor.blend'
# www.blender.org
mtllib Map18_map.mtl
o Hall_Floor.036_Cube.121
v -10.000000 -0.000085 30.000000
v -10.000000 -0.000085 10.000000
v 10.000000 -0.000085 30.000000
v -10.000000 -0.000085 -30.000000
v 10.000000 -0.000085 -10.000000
v 10.000000 -0.000085 -30.000000
v 10.000000 -0.000085 10.000000
v 30.000000 -0.000085 10.000000
v 30.000000 -0.000085 -10.000000
v -30.000000 -0.000085 10.000000
v -30.000000 -0.000085 -10.000000
v -10.000000 -0.000085 -10.000000
v 6.000000 -0.000085 -61.000000
v 6.000000 -0.000085 -63.000000
v 10.000000 -0.000085 -61.000000
v 10.000000 -0.000085 -63.000000
v 12.000000 -0.000106 -61.000000
v 12.000000 -0.000106 -63.000000
v 14.000000 -0.000106 -61.000000
v 14.000000 -0.000106 -63.000000
v 16.000000 -0.000127 -61.000000
v 16.000000 -0.000127 -63.000000
v 18.000000 -0.000127 -61.000000
v 18.000000 -0.000127 -63.000000
v 20.000000 -0.000148 -61.000000
v 20.000000 -0.000148 -63.000000
v 22.000000 -0.000148 -61.000000
v 22.000000 -0.000148 -63.000000
v 24.000000 -0.000169 -60.000000
v 24.000000 -0.000169 -64.000000
v 28.000000 -0.000169 -60.000000
v 28.000000 -0.000169 -64.000000
v -20.000000 -0.000085 -230.000000
v 20.000000 -0.000085 -190.000000
v 20.000000 -0.000085 -230.000000
v -4.000000 -0.000085 -68.000000
v -4.000000 -0.000085 -76.000000
v 4.000000 -0.000085 -68.000000
v 4.000000 -0.000085 -76.000000
v -4.000000 -0.000085 -58.000000
v -4.000000 -0.000085 -66.000000
v 4.000000 -0.000085 -58.000000
v 4.000000 -0.000085 -66.000000
v -4.000000 -0.000085 -48.000000
v -4.000000 -0.000085 -56.000000
v 4.000000 -0.000085 -48.000000
v 4.000000 -0.000085 -56.000000
v -6.000000 -0.000085 -78.000000
v -6.000000 -0.000085 -90.000000
v 6.000000 -0.000085 -78.000000
v 6.000000 -0.000085 -90.000000
v -4.000000 -0.000085 -30.000000
v -4.000000 -0.000085 -45.999985
v 4.000000 -0.000085 -30.000000
v 4.000000 -0.000085 -45.999985
v -30.000000 -0.000085 -90.000000
v -30.000000 -0.000085 -150.000000
v 30.000000 -0.000085 -90.000000
v 30.000000 -0.000085 -150.000000
v -74.000000 -0.000169 -58.000000
v -74.000000 -0.000169 -61.999985
v -70.000000 -0.000169 -58.000000
v -70.000000 -0.000169 -61.999985
v -78.000000 -0.000148 -59.000000
v -78.000000 -0.000148 -60.999985
v -76.000000 -0.000148 -59.000000
v -76.000000 -0.000148 -60.999985
v -81.999985 -0.000127 -59.000000
v -81.999985 -0.000127 -60.999985
v -80.000000 -0.000127 -59.000000
v -80.000000 -0.000127 -60.999985
v -86.000000 -0.000106 -59.000000
v -86.000000 -0.000106 -60.999985
v -83.999969 -0.000106 -59.000000
v -83.999969 -0.000106 -60.999985
v -110.000000 -0.000169 -58.000000
v -110.000000 -0.000169 -61.999985
v -106.000000 -0.000169 -58.000000
v -106.000000 -0.000169 -61.999985
v -104.000000 -0.000148 -59.000000
v -104.000000 -0.000148 -60.999985
v -101.999969 -0.000148 -59.000000
v -101.999969 -0.000148 -60.999985
v -100.000000 -0.000127 -59.000000
v -100.000000 -0.000127 -60.999985
v -98.000000 -0.000127 -59.000000
v -98.000000 -0.000127 -60.999985
v -96.000000 -0.000106 -59.000000
v -96.000000 -0.000106 -60.999985
v -93.999969 -0.000106 -59.000000
v -93.999969 -0.000106 -60.999985
v -20.000000 -0.000085 -150.000000
v -20.000000 -0.000085 -190.000000
v 20.000000 -0.000085 -150.000000
v -91.999969 -0.000085 -59.000000
v -91.999969 -0.000085 -60.999985
v -88.000000 -0.000085 -59.000000
v -88.000000 -0.000085 -60.999985
v -96.000000 -0.000085 -63.999985
v -96.000000 -0.000085 -100.000000
v -83.999969 -0.000085 -63.999985
v -83.999969 -0.000085 -100.000000
v -96.000000 -0.000085 -19.999996
v -96.000000 -0.000085 -55.999985
v -83.999969 -0.000085 -19.999996
v -83.999969 -0.000085 -55.999985
v -70.000000 -0.000085 -115.500000
v -70.000000 -0.000085 -124.499969
v -30.000000 -0.000085 -115.500000
v -30.000000 -0.000085 -124.499969
v -110.000000 -0.000085 -100.000000
v -110.000000 -0.000085 -140.000000
v -70.000000 -0.000085 -100.000000
v -70.000000 -0.000085 -140.000000
v -110.000000 -0.000085 20.000000
v -110.000000 -0.000085 -20.000000
v -70.000000 -0.000085 20.000000
v -70.000000 -0.000085 -20.000000
v -70.000000 -0.000085 4.500000
v -70.000000 -0.000085 -4.500000
v -30.000000 -0.000085 4.500000
v -30.000000 -0.000085 -4.500000
vt 0.0000 0.0000
vt 5.0000 0.0000
vt 5.0000 -5.0000
vt 0.0000 -5.0000
vt 0.0000 0.0000
vt 5.0000 0.0000
vt 5.0000 -5.0000
vt 0.0000 -5.0000
vt 0.0000 0.0000
vt 5.0000 0.0000
vt 5.0000 -5.0000
vt 0.0000 -5.0000
vt 0.0000 0.0000
vt 5.0000 0.0000
vt 5.0000 -5.0000
vt 0.0000 -5.0000
vt 0.0000 0.0000
vt 5.0000 0.0000
vt 5.0000 -5.0000
vt 0.0000 -5.0000
vt 0.0000 0.2500
vt 1.0000 0.2500
vt 1.0000 -0.2500
vt 0.0000 -0.2500
vt 0.5000 0.2500
vt 1.0000 0.2500
vt 1.0000 -0.2500
vt 0.5000 -0.2500
vt 0.5000 0.2500
vt 1.0000 0.2500
vt 1.0000 -0.2500
vt 0.5000 -0.2500
vt 0.5000 0.2500
vt 1.0000 0.2500
vt 1.0000 -0.2500
vt 0.5000 -0.2500
vt 0.5000 0.5000
vt 1.5000 0.5000
vt 1.5000 -0.5000
vt 0.5000 -0.5000
vt 0.5000 0.0000
vt 10.5000 0.0000
vt 10.5000 -10.0000
vt 0.5000 -10.0000
vt 0.5000 0.5000
vt 2.5000 0.5000
vt 2.5000 -1.5000
vt 0.5000 -1.5000
vt 0.5000 0.0000
vt 2.5000 0.0000
vt 2.5000 -2.0000
vt 0.5000 -2.0000
vt 0.5000 0.5000
vt 2.5000 0.5000
vt 2.5000 -1.5000
vt 0.5000 -1.5000
vt 0.0000 0.0000
vt 3.0000 0.0000
vt 3.0000 -3.0000
vt 0.0000 -3.0000
vt 0.5000 1.0000
vt 2.5000 1.0000
vt 2.5000 -3.0000
vt 0.5000 -3.0000
vt 0.0000 0.0000
vt 15.0000 0.0000
vt 15.0000 -15.0000
vt 0.0000 -15.0000
vt 0.0000 1.0000
vt 1.0000 1.0000
vt 1.0000 0.0000
vt 0.0000 0.0000
vt 0.0000 0.7500
vt 0.5000 0.7500
vt 0.5000 0.2500
vt 0.0000 0.2500
vt 0.0000 0.7500
vt 0.5000 0.7500
vt 0.5000 0.2500
vt 0.0000 0.2500
vt 0.0000 0.7500
vt 0.5000 0.7500
vt 0.5000 0.2500
vt 0.0000 0.2500
vt 0.0000 1.0000
vt 1.0000 1.0000
vt 1.0000 0.0000
vt 0.0000 0.0000
vt 0.5000 0.7500
vt 1.0000 0.7500
vt 1.0000 0.2500
vt 0.5000 0.2500
vt 0.5000 0.7500
vt 1.0000 0.7500
vt 1.0000 0.2500
vt 0.5000 0.2500
vt 0.5000 0.7500
vt 1.0000 0.7500
vt 1.0000 0.2500
vt 0.5000 0.2500
vt 0.5000 0.0000
vt 10.5000 0.0000
vt 10.5000 -10.0000
vt 0.5000 -10.0000
vt 0.5000 0.7500
vt 1.5000 0.7500
vt 1.5000 0.2500
vt 0.5000 0.2500
vt 0.5000 0.5000
vt 3.5000 0.5000
vt 3.5000 -8.5000
vt 0.5000 -8.5000
vt 0.5000 0.5000
vt 3.5000 0.5000
vt 3.5000 -8.5000
vt 0.5000 -8.5000
vt 0.0000 0.6250
vt 10.0000 0.6250
vt 10.0000 -1.6250
vt 0.0000 -1.6250
vt 0.0000 0.5000
vt 10.0000 0.5000
vt 10.0000 -9.5000
vt 0.0000 -9.5000
vt 0.0000 0.5000
vt 10.0000 0.5000
vt 10.0000 -9.5000
vt 0.0000 -9.5000
vt 0.0000 0.6250
vt 10.0000 0.6250
vt 10.0000 -1.6250
vt 0.0000 -1.6250
vn 0.0000 -1.0000 0.0000
usemtl None
s off
f 2/1/1 7/2/1 3/3/1 1/4/1
f 4/5/1 6/6/1 5/7/1 12/8/1
f 5/9/1 9/10/1 8/11/1 7/12/1
f 11/13/1 12/14/1 2/15/1 10/16/1
f 12/17/1 5/18/1 7/19/1 2/20/1
f 14/21/1 16/22/1 15/23/1 13/24/1
f 18/25/1 20/26/1 19/27/1 17/28/1
f 22/29/1 24/30/1 23/31/1 21/32/1
f 26/33/1 28/34/1 27/35/1 25/36/1
f 30/37/1 32/38/1 31/39/1 29/40/1
f 33/41/1 35/42/1 34/43/1 93/44/1
f 37/45/1 39/46/1 38/47/1 36/48/1
f 41/49/1 43/50/1 42/51/1 40/52/1
f 45/53/1 47/54/1 46/55/1 44/56/1
f 49/57/1 51/58/1 50/59/1 48/60/1
f 53/61/1 55/62/1 54/63/1 52/64/1
f 57/65/1 59/66/1 58/67/1 56/68/1
f 61/69/1 63/70/1 62/71/1 60/72/1
f 65/73/1 67/74/1 66/75/1 64/76/1
f 69/77/1 71/78/1 70/79/1 68/80/1
f 73/81/1 75/82/1 74/83/1 72/84/1
f 77/85/1 79/86/1 78/87/1 76/88/1
f 81/89/1 83/90/1 82/91/1 80/92/1
f 85/93/1 87/94/1 86/95/1 84/96/1
f 89/97/1 91/98/1 90/99/1 88/100/1
f 93/101/1 34/102/1 94/103/1 92/104/1
f 96/105/1 98/106/1 97/107/1 95/108/1
f 100/109/1 102/110/1 101/111/1 99/112/1
f 104/113/1 106/114/1 105/115/1 103/116/1
f 108/117/1 110/118/1 109/119/1 107/120/1
f 112/121/1 114/122/1 113/123/1 111/124/1
f 116/125/1 118/126/1 117/127/1 115/128/1
f 120/129/1 122/130/1 121/131/1 119/132/1
