# This file uses centimeters as units for non-parametric coordinates.

mtllib star.mtl
g default
v -0.146213 0.604353 -1.933737
v -0.344056 2.776988 -1.177514
v -0.159777 4.417278 -3.217192
v -0.346662 4.231384 -0.721833
v -0.157344 6.816200 0.012513
v -0.342564 4.247449 0.802191
v -0.142275 4.485892 3.292035
v -0.337426 2.802982 1.288407
v -0.135396 0.646761 2.089186
v -0.338348 1.894188 0.064883
v 0.150939 0.605138 -1.934544
v 0.340651 2.778798 -1.179374
v 0.137375 4.418063 -3.217999
v 0.338045 4.233194 -0.723693
v 0.139809 6.816985 0.011706
v 0.342143 4.249259 0.800330
v 0.154877 4.486677 3.291227
v 0.347282 2.804792 1.286547
v 0.161757 0.647546 2.088379
v 0.346359 1.895998 0.063023
v -0.619833 3.392850 0.049843
v 0.619833 3.396127 0.046475
v 0.506518 4.237099 0.037915
v 0.482825 3.695660 -0.910328
v 0.454504 2.388398 -0.668821
v 0.457467 2.398125 0.787882
v 0.487605 3.716581 0.999888
v -0.511974 4.221896 0.040814
v -0.486743 3.706386 0.979899
v -0.451762 2.420088 0.772253
v -0.456240 2.408827 -0.650119
v -0.493413 3.683073 -0.875740
vt 0.626409 0.064408
vt 0.548284 0.007647
vt 0.451716 0.007647
vt 0.373591 0.064409
vt 0.343750 0.156250
vt 0.373591 0.248091
vt 0.451716 0.304853
vt 0.548284 0.304853
vt 0.626409 0.248091
vt 0.656250 0.156250
vt 0.387500 0.312500
vt 0.412500 0.312500
vt 0.437500 0.312500
vt 0.462500 0.312500
vt 0.487500 0.312500
vt 0.512500 0.312500
vt 0.537500 0.312500
vt 0.562500 0.312500
vt 0.587500 0.312500
vt 0.612500 0.312500
vt 0.387500 0.688440
vt 0.412500 0.688440
vt 0.437500 0.688440
vt 0.462500 0.688440
vt 0.487500 0.688440
vt 0.512500 0.688440
vt 0.537500 0.688440
vt 0.562500 0.688440
vt 0.587500 0.688440
vt 0.612500 0.688440
vt 0.626409 0.751908
vt 0.548284 0.695147
vt 0.451716 0.695147
vt 0.373591 0.751909
vt 0.343750 0.843750
vt 0.373591 0.935591
vt 0.451716 0.992353
vt 0.548284 0.992353
vt 0.626409 0.935591
vt 0.656250 0.843750
vt 0.500000 0.150000
vt 0.500000 0.837500
vt 0.461589 0.839036
vt 0.485848 0.882886
vt 0.545642 0.872918
vt 0.545899 0.806422
vt 0.485812 0.795672
vt 0.462160 0.151514
vt 0.486149 0.194421
vt 0.544778 0.184747
vt 0.544608 0.119796
vt 0.486321 0.109670
vn 0.001589 -0.943061 -0.332616
vn -0.000550 -0.608092 -0.793866
vn -0.001665 -0.337496 -0.941326
vn -0.001774 -0.306923 -0.951733
vn -0.002777 0.023074 -0.999730
vn -0.003743 0.576231 -0.817278
vn -0.003753 0.790832 -0.612022
vn -0.003732 0.811992 -0.583656
vn -0.003345 0.952462 -0.304639
vn -0.001761 0.958682 0.284473
vn -0.000639 0.824117 0.566419
vn -0.000507 0.803552 0.595234
vn 0.000619 0.593354 0.804941
vn 0.002597 0.044186 0.999020
vn 0.003361 -0.286785 0.957989
vn 0.003416 -0.317589 0.948222
vn 0.003754 -0.591197 0.806518
vn 0.003431 -0.935825 0.352450
vn 0.002712 -0.999670 0.025534
vn 0.002631 -0.999987 -0.004470
vn -0.979482 -0.065020 -0.190756
vn -0.990048 -0.127066 -0.060497
vn -0.990555 -0.113949 -0.076265
vn -0.989978 -0.000515 -0.141224
vn -0.991099 0.037550 -0.127718
vn -0.971177 0.193703 -0.138907
vn -0.990784 0.135449 0.001236
vn -0.991005 0.133818 0.001254
vn -0.970441 0.196348 0.140326
vn -0.989204 0.002518 0.146525
vn -0.990398 0.040510 0.132176
vn -0.978440 -0.060824 0.197374
vn -0.989701 -0.125706 0.068484
vn -0.990123 -0.112250 0.084002
vn -0.982351 -0.186990 0.004632
vn 0.978692 -0.059786 -0.196435
vn 0.990737 -0.108487 -0.081680
vn 0.990360 -0.121906 -0.065771
vn 0.990199 0.043310 -0.132778
vn 0.989177 0.004529 -0.146659
vn 0.969283 0.198700 -0.144941
vn 0.990303 0.138860 -0.004127
vn 0.990046 0.140685 -0.004145
vn 0.970041 0.201596 0.135569
vn 0.990896 0.046085 0.126501
vn 0.989951 0.007563 0.141210
vn 0.979742 -0.055718 0.192356
vn 0.991166 -0.106786 0.078658
vn 0.990706 -0.120549 0.063000
vn 0.983290 -0.182046 -0.000696
vn 0.999811 -0.019312 -0.002333
vn -0.999699 -0.024294 0.003352
s 1
g pCylinder1
usemtl initialShadingGroup
f 11/21/1 1/11/2 12/22/3
f 12/22/3 1/11/2 2/12/4
f 12/22/3 2/12/4 13/23/5
f 13/23/5 2/12/4 3/13/6
f 13/23/5 3/13/6 14/24/7
f 14/24/7 3/13/6 4/14/8
f 14/24/7 4/14/8 15/25/9
f 15/25/9 4/14/8 5/15/10
f 15/25/9 5/15/10 16/26/11
f 16/26/11 5/15/10 6/16/12
f 16/26/11 6/16/12 17/27/13
f 17/27/13 6/16/12 7/17/14
f 17/27/13 7/17/14 18/28/15
f 18/28/15 7/17/14 8/18/16
f 18/28/15 8/18/16 19/29/17
f 19/29/17 8/18/16 9/19/18
f 19/29/17 9/19/18 20/30/19
f 20/30/19 9/19/18 10/20/20
f 20/30/19 10/20/20 11/21/1
f 11/21/1 10/20/20 1/11/2
s 2
f 2/2/21 1/1/22 31/51/23
f 3/3/24 2/2/21 32/52/25
f 4/4/26 3/3/24 32/52/25
f 5/5/27 4/4/26 28/48/28
f 6/6/29 5/5/27 28/48/28
f 7/7/30 6/6/29 29/49/31
f 8/8/32 7/7/30 29/49/31
f 9/9/33 8/8/32 30/50/34
f 10/10/35 9/9/33 30/50/34
f 1/1/22 10/10/35 31/51/23
s 7
f 12/38/36 25/45/37 11/39/38
f 24/44/39 12/38/36 13/37/40
f 14/36/41 24/44/39 13/37/40
f 23/43/42 14/36/41 15/35/43
f 16/34/44 23/43/42 15/35/43
f 27/47/45 16/34/44 17/33/46
f 18/32/47 27/47/45 17/33/46
f 26/46/48 18/32/47 19/31/49
f 20/40/50 26/46/48 19/31/49
f 25/45/37 20/40/50 11/39/38
f 22/42/51 23/43/42 16/34/44
f 22/42/51 14/36/41 23/43/42
f 22/42/51 24/44/39 14/36/41
f 22/42/51 12/38/36 24/44/39
f 22/42/51 25/45/37 12/38/36
f 22/42/51 20/40/50 25/45/37
f 22/42/51 26/46/48 20/40/50
f 22/42/51 18/32/47 26/46/48
f 22/42/51 27/47/45 18/32/47
f 22/42/51 16/34/44 27/47/45
s 2
f 28/48/28 4/4/26 21/41/52
f 6/6/29 28/48/28 21/41/52
f 29/49/31 6/6/29 21/41/52
f 8/8/32 29/49/31 21/41/52
f 30/50/34 8/8/32 21/41/52
f 10/10/35 30/50/34 21/41/52
f 31/51/23 10/10/35 21/41/52
f 2/2/21 31/51/23 21/41/52
f 32/52/25 2/2/21 21/41/52
f 4/4/26 32/52/25 21/41/52
